<?xml version="1.0" encoding="UTF-8" standalone="no"?>
<!DOCTYPE svg PUBLIC "-//W3C//DTD SVG 1.1//EN"
 "http://www.w3.org/Graphics/SVG/1.1/DTD/svg11.dtd">
<!-- Generated by graphviz version 2.43.0 (0)
 -->
<!-- Title: %3 Pages: 1 -->
<svg width="936pt" height="121pt"
 viewBox="0.00 0.00 936.00 121.00" xmlns="http://www.w3.org/2000/svg" xmlns:xlink="http://www.w3.org/1999/xlink">
<g id="graph0" class="graph" transform="scale(1 1) rotate(0) translate(4 117)">
<title>%3</title>
<g id="a_graph0"><a xlink:title="Diagram of strcuture apbAddrSt/mixed.yaml">
<polygon fill="snow" stroke="transparent" points="-4,4 -4,-117 932,-117 932,4 -4,4"/>
</a>
</g>
<!-- apbAddrSt -->
<g id="node1" class="node">
<title>apbAddrSt</title>
<polygon fill="lightgrey" stroke="transparent" points="8,-87.5 8,-108.5 920,-108.5 920,-87.5 8,-87.5"/>
<polygon fill="none" stroke="black" points="8,-87.5 8,-108.5 920,-108.5 920,-87.5 8,-87.5"/>
<text text-anchor="start" x="426.5" y="-94.3" font-family="Courier,monospace" font-size="14.00">apbAddrSt</text>
<polygon fill="#8dd3c7" stroke="transparent" points="8,-66.5 8,-87.5 920,-87.5 920,-66.5 8,-66.5"/>
<polygon fill="none" stroke="black" points="8,-66.5 8,-87.5 920,-87.5 920,-66.5 8,-66.5"/>
<text text-anchor="start" x="435" y="-73.3" font-family="Courier,monospace" font-size="14.00">address</text>
<polygon fill="#ffffb3" stroke="transparent" points="8,-45.5 8,-66.5 920,-66.5 920,-45.5 8,-45.5"/>
<polygon fill="none" stroke="black" points="8,-45.5 8,-66.5 920,-66.5 920,-45.5 8,-45.5"/>
<text text-anchor="start" x="430.5" y="-52.3" font-family="Courier,monospace" font-size="14.00">apbAddrT</text>
<polygon fill="#bebada" stroke="transparent" points="8,-24.5 8,-45.5 920,-45.5 920,-24.5 8,-24.5"/>
<polygon fill="none" stroke="black" points="8,-24.5 8,-45.5 920,-45.5 920,-24.5 8,-24.5"/>
<text text-anchor="start" x="422.5" y="-31.3" font-family="Courier,monospace" font-size="14.00">DWORD (32)</text>
<polygon fill="#ffffe5" stroke="transparent" points="8,-3.5 8,-24.5 39,-24.5 39,-3.5 8,-3.5"/>
<polygon fill="none" stroke="black" points="8,-3.5 8,-24.5 39,-24.5 39,-3.5 8,-3.5"/>
<text text-anchor="start" x="11" y="-10.3" font-family="Courier,monospace" font-size="14.00"> 31</text>
<polygon fill="#f7fcb9" stroke="transparent" points="39,-3.5 39,-24.5 70,-24.5 70,-3.5 39,-3.5"/>
<polygon fill="none" stroke="black" points="39,-3.5 39,-24.5 70,-24.5 70,-3.5 39,-3.5"/>
<text text-anchor="start" x="42" y="-10.3" font-family="Courier,monospace" font-size="14.00"> 30</text>
<polygon fill="#d9f0a3" stroke="transparent" points="70,-3.5 70,-24.5 101,-24.5 101,-3.5 70,-3.5"/>
<polygon fill="none" stroke="black" points="70,-3.5 70,-24.5 101,-24.5 101,-3.5 70,-3.5"/>
<text text-anchor="start" x="73" y="-10.3" font-family="Courier,monospace" font-size="14.00"> 29</text>
<polygon fill="#addd8e" stroke="transparent" points="101,-3.5 101,-24.5 132,-24.5 132,-3.5 101,-3.5"/>
<polygon fill="none" stroke="black" points="101,-3.5 101,-24.5 132,-24.5 132,-3.5 101,-3.5"/>
<text text-anchor="start" x="104" y="-10.3" font-family="Courier,monospace" font-size="14.00"> 28</text>
<polygon fill="#78c679" stroke="transparent" points="132,-3.5 132,-24.5 163,-24.5 163,-3.5 132,-3.5"/>
<polygon fill="none" stroke="black" points="132,-3.5 132,-24.5 163,-24.5 163,-3.5 132,-3.5"/>
<text text-anchor="start" x="135" y="-10.3" font-family="Courier,monospace" font-size="14.00"> 27</text>
<polygon fill="#41ab5d" stroke="transparent" points="163,-3.5 163,-24.5 194,-24.5 194,-3.5 163,-3.5"/>
<polygon fill="none" stroke="black" points="163,-3.5 163,-24.5 194,-24.5 194,-3.5 163,-3.5"/>
<text text-anchor="start" x="166" y="-10.3" font-family="Courier,monospace" font-size="14.00"> 26</text>
<polygon fill="#238443" stroke="transparent" points="194,-3.5 194,-24.5 225,-24.5 225,-3.5 194,-3.5"/>
<polygon fill="none" stroke="black" points="194,-3.5 194,-24.5 225,-24.5 225,-3.5 194,-3.5"/>
<text text-anchor="start" x="197" y="-10.3" font-family="Courier,monospace" font-size="14.00"> 25</text>
<polygon fill="#005a32" stroke="transparent" points="225,-3.5 225,-24.5 256,-24.5 256,-3.5 225,-3.5"/>
<polygon fill="none" stroke="black" points="225,-3.5 225,-24.5 256,-24.5 256,-3.5 225,-3.5"/>
<text text-anchor="start" x="228" y="-10.3" font-family="Courier,monospace" font-size="14.00"> 24</text>
<polygon fill="#ffffe5" stroke="transparent" points="256,-3.5 256,-24.5 287,-24.5 287,-3.5 256,-3.5"/>
<polygon fill="none" stroke="black" points="256,-3.5 256,-24.5 287,-24.5 287,-3.5 256,-3.5"/>
<text text-anchor="start" x="259" y="-10.3" font-family="Courier,monospace" font-size="14.00"> 23</text>
<polygon fill="#f7fcb9" stroke="transparent" points="287,-3.5 287,-24.5 318,-24.5 318,-3.5 287,-3.5"/>
<polygon fill="none" stroke="black" points="287,-3.5 287,-24.5 318,-24.5 318,-3.5 287,-3.5"/>
<text text-anchor="start" x="290" y="-10.3" font-family="Courier,monospace" font-size="14.00"> 22</text>
<polygon fill="#d9f0a3" stroke="transparent" points="318,-3.5 318,-24.5 349,-24.5 349,-3.5 318,-3.5"/>
<polygon fill="none" stroke="black" points="318,-3.5 318,-24.5 349,-24.5 349,-3.5 318,-3.5"/>
<text text-anchor="start" x="321" y="-10.3" font-family="Courier,monospace" font-size="14.00"> 21</text>
<polygon fill="#addd8e" stroke="transparent" points="349,-3.5 349,-24.5 380,-24.5 380,-3.5 349,-3.5"/>
<polygon fill="none" stroke="black" points="349,-3.5 349,-24.5 380,-24.5 380,-3.5 349,-3.5"/>
<text text-anchor="start" x="352" y="-10.3" font-family="Courier,monospace" font-size="14.00"> 20</text>
<polygon fill="#78c679" stroke="transparent" points="380,-3.5 380,-24.5 411,-24.5 411,-3.5 380,-3.5"/>
<polygon fill="none" stroke="black" points="380,-3.5 380,-24.5 411,-24.5 411,-3.5 380,-3.5"/>
<text text-anchor="start" x="383" y="-10.3" font-family="Courier,monospace" font-size="14.00"> 19</text>
<polygon fill="#41ab5d" stroke="transparent" points="411,-3.5 411,-24.5 442,-24.5 442,-3.5 411,-3.5"/>
<polygon fill="none" stroke="black" points="411,-3.5 411,-24.5 442,-24.5 442,-3.5 411,-3.5"/>
<text text-anchor="start" x="414" y="-10.3" font-family="Courier,monospace" font-size="14.00"> 18</text>
<polygon fill="#238443" stroke="transparent" points="442,-3.5 442,-24.5 473,-24.5 473,-3.5 442,-3.5"/>
<polygon fill="none" stroke="black" points="442,-3.5 442,-24.5 473,-24.5 473,-3.5 442,-3.5"/>
<text text-anchor="start" x="445" y="-10.3" font-family="Courier,monospace" font-size="14.00"> 17</text>
<polygon fill="#005a32" stroke="transparent" points="473,-3.5 473,-24.5 504,-24.5 504,-3.5 473,-3.5"/>
<polygon fill="none" stroke="black" points="473,-3.5 473,-24.5 504,-24.5 504,-3.5 473,-3.5"/>
<text text-anchor="start" x="476" y="-10.3" font-family="Courier,monospace" font-size="14.00"> 16</text>
<polygon fill="#ffffe5" stroke="transparent" points="504,-3.5 504,-24.5 535,-24.5 535,-3.5 504,-3.5"/>
<polygon fill="none" stroke="black" points="504,-3.5 504,-24.5 535,-24.5 535,-3.5 504,-3.5"/>
<text text-anchor="start" x="507" y="-10.3" font-family="Courier,monospace" font-size="14.00"> 15</text>
<polygon fill="#f7fcb9" stroke="transparent" points="535,-3.5 535,-24.5 566,-24.5 566,-3.5 535,-3.5"/>
<polygon fill="none" stroke="black" points="535,-3.5 535,-24.5 566,-24.5 566,-3.5 535,-3.5"/>
<text text-anchor="start" x="538" y="-10.3" font-family="Courier,monospace" font-size="14.00"> 14</text>
<polygon fill="#d9f0a3" stroke="transparent" points="566,-3.5 566,-24.5 597,-24.5 597,-3.5 566,-3.5"/>
<polygon fill="none" stroke="black" points="566,-3.5 566,-24.5 597,-24.5 597,-3.5 566,-3.5"/>
<text text-anchor="start" x="569" y="-10.3" font-family="Courier,monospace" font-size="14.00"> 13</text>
<polygon fill="#addd8e" stroke="transparent" points="597,-3.5 597,-24.5 628,-24.5 628,-3.5 597,-3.5"/>
<polygon fill="none" stroke="black" points="597,-3.5 597,-24.5 628,-24.5 628,-3.5 597,-3.5"/>
<text text-anchor="start" x="600" y="-10.3" font-family="Courier,monospace" font-size="14.00"> 12</text>
<polygon fill="#78c679" stroke="transparent" points="628,-3.5 628,-24.5 659,-24.5 659,-3.5 628,-3.5"/>
<polygon fill="none" stroke="black" points="628,-3.5 628,-24.5 659,-24.5 659,-3.5 628,-3.5"/>
<text text-anchor="start" x="631" y="-10.3" font-family="Courier,monospace" font-size="14.00"> 11</text>
<polygon fill="#41ab5d" stroke="transparent" points="659,-3.5 659,-24.5 690,-24.5 690,-3.5 659,-3.5"/>
<polygon fill="none" stroke="black" points="659,-3.5 659,-24.5 690,-24.5 690,-3.5 659,-3.5"/>
<text text-anchor="start" x="662" y="-10.3" font-family="Courier,monospace" font-size="14.00"> 10</text>
<polygon fill="#238443" stroke="transparent" points="690,-3.5 690,-24.5 713,-24.5 713,-3.5 690,-3.5"/>
<polygon fill="none" stroke="black" points="690,-3.5 690,-24.5 713,-24.5 713,-3.5 690,-3.5"/>
<text text-anchor="start" x="693" y="-10.3" font-family="Courier,monospace" font-size="14.00"> 9</text>
<polygon fill="#005a32" stroke="transparent" points="713,-3.5 713,-24.5 736,-24.5 736,-3.5 713,-3.5"/>
<polygon fill="none" stroke="black" points="713,-3.5 713,-24.5 736,-24.5 736,-3.5 713,-3.5"/>
<text text-anchor="start" x="716" y="-10.3" font-family="Courier,monospace" font-size="14.00"> 8</text>
<polygon fill="#ffffe5" stroke="transparent" points="736,-3.5 736,-24.5 759,-24.5 759,-3.5 736,-3.5"/>
<polygon fill="none" stroke="black" points="736,-3.5 736,-24.5 759,-24.5 759,-3.5 736,-3.5"/>
<text text-anchor="start" x="739" y="-10.3" font-family="Courier,monospace" font-size="14.00"> 7</text>
<polygon fill="#f7fcb9" stroke="transparent" points="759,-3.5 759,-24.5 782,-24.5 782,-3.5 759,-3.5"/>
<polygon fill="none" stroke="black" points="759,-3.5 759,-24.5 782,-24.5 782,-3.5 759,-3.5"/>
<text text-anchor="start" x="762" y="-10.3" font-family="Courier,monospace" font-size="14.00"> 6</text>
<polygon fill="#d9f0a3" stroke="transparent" points="782,-3.5 782,-24.5 805,-24.5 805,-3.5 782,-3.5"/>
<polygon fill="none" stroke="black" points="782,-3.5 782,-24.5 805,-24.5 805,-3.5 782,-3.5"/>
<text text-anchor="start" x="785" y="-10.3" font-family="Courier,monospace" font-size="14.00"> 5</text>
<polygon fill="#addd8e" stroke="transparent" points="805,-3.5 805,-24.5 828,-24.5 828,-3.5 805,-3.5"/>
<polygon fill="none" stroke="black" points="805,-3.5 805,-24.5 828,-24.5 828,-3.5 805,-3.5"/>
<text text-anchor="start" x="808" y="-10.3" font-family="Courier,monospace" font-size="14.00"> 4</text>
<polygon fill="#78c679" stroke="transparent" points="828,-3.5 828,-24.5 851,-24.5 851,-3.5 828,-3.5"/>
<polygon fill="none" stroke="black" points="828,-3.5 828,-24.5 851,-24.5 851,-3.5 828,-3.5"/>
<text text-anchor="start" x="831" y="-10.3" font-family="Courier,monospace" font-size="14.00"> 3</text>
<polygon fill="#41ab5d" stroke="transparent" points="851,-3.5 851,-24.5 874,-24.5 874,-3.5 851,-3.5"/>
<polygon fill="none" stroke="black" points="851,-3.5 851,-24.5 874,-24.5 874,-3.5 851,-3.5"/>
<text text-anchor="start" x="854" y="-10.3" font-family="Courier,monospace" font-size="14.00"> 2</text>
<polygon fill="#238443" stroke="transparent" points="874,-3.5 874,-24.5 897,-24.5 897,-3.5 874,-3.5"/>
<polygon fill="none" stroke="black" points="874,-3.5 874,-24.5 897,-24.5 897,-3.5 874,-3.5"/>
<text text-anchor="start" x="877" y="-10.3" font-family="Courier,monospace" font-size="14.00"> 1</text>
<polygon fill="#005a32" stroke="transparent" points="897,-3.5 897,-24.5 920,-24.5 920,-3.5 897,-3.5"/>
<polygon fill="none" stroke="black" points="897,-3.5 897,-24.5 920,-24.5 920,-3.5 897,-3.5"/>
<text text-anchor="start" x="900" y="-10.3" font-family="Courier,monospace" font-size="14.00"> 0</text>
</g>
</g>
</svg>
