<?xml version="1.0" encoding="UTF-8" standalone="no"?>
<!DOCTYPE svg PUBLIC "-//W3C//DTD SVG 1.1//EN"
 "http://www.w3.org/Graphics/SVG/1.1/DTD/svg11.dtd">
<!-- Generated by graphviz version 2.43.0 (0)
 -->
<!-- Title: %3 Pages: 1 -->
<svg width="325pt" height="121pt"
 viewBox="0.00 0.00 325.00 121.00" xmlns="http://www.w3.org/2000/svg" xmlns:xlink="http://www.w3.org/1999/xlink">
<g id="graph0" class="graph" transform="scale(1 1) rotate(0) translate(4 117)">
<title>%3</title>
<g id="a_graph0"><a xlink:title="Diagram of strcuture aSt/mixed.yaml">
<polygon fill="snow" stroke="transparent" points="-4,4 -4,-117 321,-117 321,4 -4,4"/>
</a>
</g>
<!-- aSt -->
<g id="node1" class="node">
<title>aSt</title>
<polygon fill="lightgrey" stroke="transparent" points="8.5,-87.5 8.5,-108.5 309.5,-108.5 309.5,-87.5 8.5,-87.5"/>
<polygon fill="none" stroke="black" points="8.5,-87.5 8.5,-108.5 309.5,-108.5 309.5,-87.5 8.5,-87.5"/>
<text text-anchor="start" x="146.5" y="-94.3" font-family="Courier,monospace" font-size="14.00">aSt</text>
<polygon fill="#8dd3c7" stroke="transparent" points="8.5,-66.5 8.5,-87.5 114.5,-87.5 114.5,-66.5 8.5,-66.5"/>
<polygon fill="none" stroke="black" points="8.5,-66.5 8.5,-87.5 114.5,-87.5 114.5,-66.5 8.5,-66.5"/>
<text text-anchor="start" x="11.5" y="-73.3" font-family="Courier,monospace" font-size="14.00">variablea[1]</text>
<polygon fill="#8dd3c7" stroke="transparent" points="114.5,-66.5 114.5,-87.5 220.5,-87.5 220.5,-66.5 114.5,-66.5"/>
<polygon fill="none" stroke="black" points="114.5,-66.5 114.5,-87.5 220.5,-87.5 220.5,-66.5 114.5,-66.5"/>
<text text-anchor="start" x="117.5" y="-73.3" font-family="Courier,monospace" font-size="14.00">variablea[0]</text>
<polygon fill="#8dd3c7" stroke="transparent" points="220.5,-66.5 220.5,-87.5 309.5,-87.5 309.5,-66.5 220.5,-66.5"/>
<polygon fill="none" stroke="black" points="220.5,-66.5 220.5,-87.5 309.5,-87.5 309.5,-66.5 220.5,-66.5"/>
<text text-anchor="start" x="223.5" y="-73.3" font-family="Courier,monospace" font-size="14.00">variablea2</text>
<polygon fill="#ffffb3" stroke="transparent" points="8.5,-45.5 8.5,-66.5 114.5,-66.5 114.5,-45.5 8.5,-45.5"/>
<polygon fill="none" stroke="black" points="8.5,-45.5 8.5,-66.5 114.5,-66.5 114.5,-45.5 8.5,-45.5"/>
<text text-anchor="start" x="36.5" y="-52.3" font-family="Courier,monospace" font-size="14.00">aSizeT</text>
<polygon fill="#ffffb3" stroke="transparent" points="114.5,-45.5 114.5,-66.5 220.5,-66.5 220.5,-45.5 114.5,-45.5"/>
<polygon fill="none" stroke="black" points="114.5,-45.5 114.5,-66.5 220.5,-66.5 220.5,-45.5 114.5,-45.5"/>
<text text-anchor="start" x="142.5" y="-52.3" font-family="Courier,monospace" font-size="14.00">aSizeT</text>
<polygon fill="#ffffb3" stroke="transparent" points="220.5,-45.5 220.5,-66.5 309.5,-66.5 309.5,-45.5 220.5,-45.5"/>
<polygon fill="none" stroke="black" points="220.5,-45.5 220.5,-66.5 309.5,-66.5 309.5,-45.5 220.5,-45.5"/>
<text text-anchor="start" x="236" y="-52.3" font-family="Courier,monospace" font-size="14.00">twoBitT</text>
<polygon fill="#bebada" stroke="transparent" points="8.5,-24.5 8.5,-45.5 114.5,-45.5 114.5,-24.5 8.5,-24.5"/>
<polygon fill="none" stroke="black" points="8.5,-24.5 8.5,-45.5 114.5,-45.5 114.5,-24.5 8.5,-24.5"/>
<text text-anchor="start" x="24" y="-31.3" font-family="Courier,monospace" font-size="14.00">ASIZE (1)</text>
<polygon fill="#bebada" stroke="transparent" points="114.5,-24.5 114.5,-45.5 220.5,-45.5 220.5,-24.5 114.5,-24.5"/>
<polygon fill="none" stroke="black" points="114.5,-24.5 114.5,-45.5 220.5,-45.5 220.5,-24.5 114.5,-24.5"/>
<text text-anchor="start" x="130" y="-31.3" font-family="Courier,monospace" font-size="14.00">ASIZE (1)</text>
<polygon fill="snow" stroke="transparent" points="220.5,-24.5 220.5,-45.5 309.5,-45.5 309.5,-24.5 220.5,-24.5"/>
<polygon fill="none" stroke="black" points="220.5,-24.5 220.5,-45.5 309.5,-45.5 309.5,-24.5 220.5,-24.5"/>
<text text-anchor="start" x="260.5" y="-31.3" font-family="Courier,monospace" font-size="14.00">2</text>
<polygon fill="#78c679" stroke="transparent" points="8.5,-3.5 8.5,-24.5 114.5,-24.5 114.5,-3.5 8.5,-3.5"/>
<polygon fill="none" stroke="black" points="8.5,-3.5 8.5,-24.5 114.5,-24.5 114.5,-3.5 8.5,-3.5"/>
<text text-anchor="start" x="53" y="-10.3" font-family="Courier,monospace" font-size="14.00"> 3</text>
<polygon fill="#41ab5d" stroke="transparent" points="114.5,-3.5 114.5,-24.5 220.5,-24.5 220.5,-3.5 114.5,-3.5"/>
<polygon fill="none" stroke="black" points="114.5,-3.5 114.5,-24.5 220.5,-24.5 220.5,-3.5 114.5,-3.5"/>
<text text-anchor="start" x="159" y="-10.3" font-family="Courier,monospace" font-size="14.00"> 2</text>
<polygon fill="#238443" stroke="transparent" points="220.5,-3.5 220.5,-24.5 264.5,-24.5 264.5,-3.5 220.5,-3.5"/>
<polygon fill="none" stroke="black" points="220.5,-3.5 220.5,-24.5 264.5,-24.5 264.5,-3.5 220.5,-3.5"/>
<text text-anchor="start" x="234" y="-10.3" font-family="Courier,monospace" font-size="14.00"> 1</text>
<polygon fill="#005a32" stroke="transparent" points="264.5,-3.5 264.5,-24.5 309.5,-24.5 309.5,-3.5 264.5,-3.5"/>
<polygon fill="none" stroke="black" points="264.5,-3.5 264.5,-24.5 309.5,-24.5 309.5,-3.5 264.5,-3.5"/>
<text text-anchor="start" x="278.5" y="-10.3" font-family="Courier,monospace" font-size="14.00"> 0</text>
</g>
</g>
</svg>
