<?xml version="1.0" encoding="UTF-8" standalone="no"?>
<!DOCTYPE svg PUBLIC "-//W3C//DTD SVG 1.1//EN"
 "http://www.w3.org/Graphics/SVG/1.1/DTD/svg11.dtd">
<!-- Generated by graphviz version 2.43.0 (0)
 -->
<!-- Title: %3 Pages: 1 -->
<svg width="146pt" height="121pt"
 viewBox="0.00 0.00 146.00 121.00" xmlns="http://www.w3.org/2000/svg" xmlns:xlink="http://www.w3.org/1999/xlink">
<g id="graph0" class="graph" transform="scale(1 1) rotate(0) translate(4 117)">
<title>%3</title>
<g id="a_graph0"><a xlink:title="Diagram of strcuture bSizeSt/mixed.yaml">
<polygon fill="snow" stroke="transparent" points="-4,4 -4,-117 142,-117 142,4 -4,4"/>
</a>
</g>
<!-- bSizeSt -->
<g id="node1" class="node">
<title>bSizeSt</title>
<polygon fill="lightgrey" stroke="transparent" points="8,-87.5 8,-108.5 130,-108.5 130,-87.5 8,-87.5"/>
<polygon fill="none" stroke="black" points="8,-87.5 8,-108.5 130,-108.5 130,-87.5 8,-87.5"/>
<text text-anchor="start" x="40" y="-94.3" font-family="Courier,monospace" font-size="14.00">bSizeSt</text>
<polygon fill="#8dd3c7" stroke="transparent" points="8,-66.5 8,-87.5 130,-87.5 130,-66.5 8,-66.5"/>
<polygon fill="none" stroke="black" points="8,-66.5 8,-87.5 130,-87.5 130,-66.5 8,-66.5"/>
<text text-anchor="start" x="48" y="-73.3" font-family="Courier,monospace" font-size="14.00">index</text>
<polygon fill="#ffffb3" stroke="transparent" points="8,-45.5 8,-66.5 130,-66.5 130,-45.5 8,-45.5"/>
<polygon fill="none" stroke="black" points="8,-45.5 8,-66.5 130,-66.5 130,-45.5 8,-45.5"/>
<text text-anchor="start" x="44" y="-52.3" font-family="Courier,monospace" font-size="14.00">bSizeT</text>
<polygon fill="#bebada" stroke="transparent" points="8,-24.5 8,-45.5 130,-45.5 130,-24.5 8,-24.5"/>
<polygon fill="none" stroke="black" points="8,-24.5 8,-45.5 130,-45.5 130,-24.5 8,-24.5"/>
<text text-anchor="start" x="11" y="-31.3" font-family="Courier,monospace" font-size="14.00">BSIZE_LOG2 (4)</text>
<polygon fill="#78c679" stroke="transparent" points="8,-3.5 8,-24.5 46,-24.5 46,-3.5 8,-3.5"/>
<polygon fill="none" stroke="black" points="8,-3.5 8,-24.5 46,-24.5 46,-3.5 8,-3.5"/>
<text text-anchor="start" x="18.5" y="-10.3" font-family="Courier,monospace" font-size="14.00"> 3</text>
<polygon fill="#41ab5d" stroke="transparent" points="46,-3.5 46,-24.5 76,-24.5 76,-3.5 46,-3.5"/>
<polygon fill="none" stroke="black" points="46,-3.5 46,-24.5 76,-24.5 76,-3.5 46,-3.5"/>
<text text-anchor="start" x="52.5" y="-10.3" font-family="Courier,monospace" font-size="14.00"> 2</text>
<polygon fill="#238443" stroke="transparent" points="76,-3.5 76,-24.5 103,-24.5 103,-3.5 76,-3.5"/>
<polygon fill="none" stroke="black" points="76,-3.5 76,-24.5 103,-24.5 103,-3.5 76,-3.5"/>
<text text-anchor="start" x="81" y="-10.3" font-family="Courier,monospace" font-size="14.00"> 1</text>
<polygon fill="#005a32" stroke="transparent" points="103,-3.5 103,-24.5 130,-24.5 130,-3.5 103,-3.5"/>
<polygon fill="none" stroke="black" points="103,-3.5 103,-24.5 130,-24.5 130,-3.5 103,-3.5"/>
<text text-anchor="start" x="108" y="-10.3" font-family="Courier,monospace" font-size="14.00"> 0</text>
</g>
</g>
</svg>
