<?xml version="1.0" encoding="UTF-8" standalone="no"?>
<!DOCTYPE svg PUBLIC "-//W3C//DTD SVG 1.1//EN"
 "http://www.w3.org/Graphics/SVG/1.1/DTD/svg11.dtd">
<!-- Generated by graphviz version 2.43.0 (0)
 -->
<!-- Title: %3 Pages: 1 -->
<svg width="552pt" height="270pt"
 viewBox="0.00 0.00 552.00 270.00" xmlns="http://www.w3.org/2000/svg" xmlns:xlink="http://www.w3.org/1999/xlink">
<g id="graph0" class="graph" transform="scale(1 1) rotate(0) translate(4 266)">
<title>%3</title>
<g id="a_graph0"><a xlink:title="Diagram of strcuture nestedSt/mixed.yaml">
<polygon fill="snow" stroke="transparent" points="-4,4 -4,-266 548,-266 548,4 -4,4"/>
</a>
</g>
<!-- nestedSt -->
<g id="node1" class="node">
<title>nestedSt</title>
<polygon fill="lightgrey" stroke="transparent" points="8,-236.5 8,-257.5 536,-257.5 536,-236.5 8,-236.5"/>
<polygon fill="none" stroke="black" points="8,-236.5 8,-257.5 536,-257.5 536,-236.5 8,-236.5"/>
<text text-anchor="start" x="238.5" y="-243.3" font-family="Courier,monospace" font-size="14.00">nestedSt</text>
<polygon fill="#8dd3c7" stroke="transparent" points="8,-215.5 8,-236.5 89,-236.5 89,-215.5 8,-215.5"/>
<polygon fill="none" stroke="black" points="8,-215.5 8,-236.5 89,-236.5 89,-215.5 8,-215.5"/>
<text text-anchor="start" x="11" y="-222.3" font-family="Courier,monospace" font-size="14.00">variablea</text>
<polygon fill="#8dd3c7" stroke="transparent" points="89,-215.5 89,-236.5 306,-236.5 306,-215.5 89,-215.5"/>
<polygon fill="none" stroke="black" points="89,-215.5 89,-236.5 306,-236.5 306,-215.5 89,-215.5"/>
<text text-anchor="start" x="185" y="-222.3" font-family="Courier,monospace" font-size="14.00">bob</text>
<polygon fill="#8dd3c7" stroke="transparent" points="306,-215.5 306,-236.5 421,-236.5 421,-215.5 306,-215.5"/>
<polygon fill="none" stroke="black" points="306,-215.5 306,-236.5 421,-236.5 421,-215.5 306,-215.5"/>
<text text-anchor="start" x="338.5" y="-222.3" font-family="Courier,monospace" font-size="14.00">joe[1]</text>
<polygon fill="#8dd3c7" stroke="transparent" points="421,-215.5 421,-236.5 536,-236.5 536,-215.5 421,-215.5"/>
<polygon fill="none" stroke="black" points="421,-215.5 421,-236.5 536,-236.5 536,-215.5 421,-215.5"/>
<text text-anchor="start" x="453.5" y="-222.3" font-family="Courier,monospace" font-size="14.00">joe[0]</text>
<polygon fill="#ffffb3" stroke="transparent" points="8,-194.5 8,-215.5 89,-215.5 89,-194.5 8,-194.5"/>
<polygon fill="none" stroke="black" points="8,-194.5 8,-215.5 89,-215.5 89,-194.5 8,-194.5"/>
<text text-anchor="start" x="23.5" y="-201.3" font-family="Courier,monospace" font-size="14.00">aSizeT</text>
<polygon fill="#fb8072" stroke="transparent" points="89,-194.5 89,-215.5 306,-215.5 306,-194.5 89,-194.5"/>
<polygon fill="none" stroke="black" points="89,-194.5 89,-215.5 306,-215.5 306,-194.5 89,-194.5"/>
<text text-anchor="start" x="185" y="-201.3" font-family="Courier,monospace" font-size="14.00">dSt</text>
<polygon fill="#fb8072" stroke="transparent" points="306,-194.5 306,-215.5 421,-215.5 421,-194.5 306,-194.5"/>
<polygon fill="none" stroke="black" points="306,-194.5 306,-215.5 421,-215.5 421,-194.5 306,-194.5"/>
<text text-anchor="start" x="342.5" y="-201.3" font-family="Courier,monospace" font-size="14.00">seeSt</text>
<polygon fill="#fb8072" stroke="transparent" points="421,-194.5 421,-215.5 536,-215.5 536,-194.5 421,-194.5"/>
<polygon fill="none" stroke="black" points="421,-194.5 421,-215.5 536,-215.5 536,-194.5 421,-194.5"/>
<text text-anchor="start" x="457.5" y="-201.3" font-family="Courier,monospace" font-size="14.00">seeSt</text>
<polygon fill="#bebada" stroke="transparent" points="8,-173.5 8,-194.5 89,-194.5 89,-173.5 8,-173.5"/>
<polygon fill="none" stroke="black" points="8,-173.5 8,-194.5 89,-194.5 89,-173.5 8,-173.5"/>
<text text-anchor="start" x="11" y="-180.3" font-family="Courier,monospace" font-size="14.00">ASIZE (1)</text>
<polygon fill="snow" stroke="transparent" points="89,-173.5 89,-194.5 306,-194.5 306,-173.5 89,-173.5"/>
<polygon fill="none" stroke="black" points="89,-173.5 89,-194.5 306,-194.5 306,-173.5 89,-173.5"/>
<text text-anchor="start" x="193" y="-180.3" font-family="Courier,monospace" font-size="14.00">7</text>
<polygon fill="snow" stroke="transparent" points="306,-173.5 306,-194.5 421,-194.5 421,-173.5 306,-173.5"/>
<polygon fill="none" stroke="black" points="306,-173.5 306,-194.5 421,-194.5 421,-173.5 306,-173.5"/>
<text text-anchor="start" x="359" y="-180.3" font-family="Courier,monospace" font-size="14.00">5</text>
<polygon fill="snow" stroke="transparent" points="421,-173.5 421,-194.5 536,-194.5 536,-173.5 421,-173.5"/>
<polygon fill="none" stroke="black" points="421,-173.5 421,-194.5 536,-194.5 536,-173.5 421,-173.5"/>
<text text-anchor="start" x="474" y="-180.3" font-family="Courier,monospace" font-size="14.00">5</text>
<polygon fill="#238443" stroke="transparent" points="8,-152.5 8,-173.5 89,-173.5 89,-152.5 8,-152.5"/>
<polygon fill="none" stroke="black" points="8,-152.5 8,-173.5 89,-173.5 89,-152.5 8,-152.5"/>
<text text-anchor="start" x="36" y="-159.3" font-family="Courier,monospace" font-size="14.00"> 17</text>
<polygon fill="#005a32" stroke="transparent" points="89,-152.5 89,-173.5 120,-173.5 120,-152.5 89,-152.5"/>
<polygon fill="none" stroke="black" points="89,-152.5 89,-173.5 120,-173.5 120,-152.5 89,-152.5"/>
<text text-anchor="start" x="92" y="-159.3" font-family="Courier,monospace" font-size="14.00"> 16</text>
<polygon fill="#ffffe5" stroke="transparent" points="120,-152.5 120,-173.5 151,-173.5 151,-152.5 120,-152.5"/>
<polygon fill="none" stroke="black" points="120,-152.5 120,-173.5 151,-173.5 151,-152.5 120,-152.5"/>
<text text-anchor="start" x="123" y="-159.3" font-family="Courier,monospace" font-size="14.00"> 15</text>
<polygon fill="#f7fcb9" stroke="transparent" points="151,-152.5 151,-173.5 182,-173.5 182,-152.5 151,-152.5"/>
<polygon fill="none" stroke="black" points="151,-152.5 151,-173.5 182,-173.5 182,-152.5 151,-152.5"/>
<text text-anchor="start" x="154" y="-159.3" font-family="Courier,monospace" font-size="14.00"> 14</text>
<polygon fill="#d9f0a3" stroke="transparent" points="182,-152.5 182,-173.5 213,-173.5 213,-152.5 182,-152.5"/>
<polygon fill="none" stroke="black" points="182,-152.5 182,-173.5 213,-173.5 213,-152.5 182,-152.5"/>
<text text-anchor="start" x="185" y="-159.3" font-family="Courier,monospace" font-size="14.00"> 13</text>
<polygon fill="#addd8e" stroke="transparent" points="213,-152.5 213,-173.5 244,-173.5 244,-152.5 213,-152.5"/>
<polygon fill="none" stroke="black" points="213,-152.5 213,-173.5 244,-173.5 244,-152.5 213,-152.5"/>
<text text-anchor="start" x="216" y="-159.3" font-family="Courier,monospace" font-size="14.00"> 12</text>
<polygon fill="#78c679" stroke="transparent" points="244,-152.5 244,-173.5 275,-173.5 275,-152.5 244,-152.5"/>
<polygon fill="none" stroke="black" points="244,-152.5 244,-173.5 275,-173.5 275,-152.5 244,-152.5"/>
<text text-anchor="start" x="247" y="-159.3" font-family="Courier,monospace" font-size="14.00"> 11</text>
<polygon fill="#41ab5d" stroke="transparent" points="275,-152.5 275,-173.5 306,-173.5 306,-152.5 275,-152.5"/>
<polygon fill="none" stroke="black" points="275,-152.5 275,-173.5 306,-173.5 306,-152.5 275,-152.5"/>
<text text-anchor="start" x="278" y="-159.3" font-family="Courier,monospace" font-size="14.00"> 10</text>
<polygon fill="#238443" stroke="transparent" points="306,-152.5 306,-173.5 329,-173.5 329,-152.5 306,-152.5"/>
<polygon fill="none" stroke="black" points="306,-152.5 306,-173.5 329,-173.5 329,-152.5 306,-152.5"/>
<text text-anchor="start" x="309" y="-159.3" font-family="Courier,monospace" font-size="14.00"> 9</text>
<polygon fill="#005a32" stroke="transparent" points="329,-152.5 329,-173.5 352,-173.5 352,-152.5 329,-152.5"/>
<polygon fill="none" stroke="black" points="329,-152.5 329,-173.5 352,-173.5 352,-152.5 329,-152.5"/>
<text text-anchor="start" x="332" y="-159.3" font-family="Courier,monospace" font-size="14.00"> 8</text>
<polygon fill="#ffffe5" stroke="transparent" points="352,-152.5 352,-173.5 375,-173.5 375,-152.5 352,-152.5"/>
<polygon fill="none" stroke="black" points="352,-152.5 352,-173.5 375,-173.5 375,-152.5 352,-152.5"/>
<text text-anchor="start" x="355" y="-159.3" font-family="Courier,monospace" font-size="14.00"> 7</text>
<polygon fill="#f7fcb9" stroke="transparent" points="375,-152.5 375,-173.5 398,-173.5 398,-152.5 375,-152.5"/>
<polygon fill="none" stroke="black" points="375,-152.5 375,-173.5 398,-173.5 398,-152.5 375,-152.5"/>
<text text-anchor="start" x="378" y="-159.3" font-family="Courier,monospace" font-size="14.00"> 6</text>
<polygon fill="#d9f0a3" stroke="transparent" points="398,-152.5 398,-173.5 421,-173.5 421,-152.5 398,-152.5"/>
<polygon fill="none" stroke="black" points="398,-152.5 398,-173.5 421,-173.5 421,-152.5 398,-152.5"/>
<text text-anchor="start" x="401" y="-159.3" font-family="Courier,monospace" font-size="14.00"> 5</text>
<polygon fill="#addd8e" stroke="transparent" points="421,-152.5 421,-173.5 444,-173.5 444,-152.5 421,-152.5"/>
<polygon fill="none" stroke="black" points="421,-152.5 421,-173.5 444,-173.5 444,-152.5 421,-152.5"/>
<text text-anchor="start" x="424" y="-159.3" font-family="Courier,monospace" font-size="14.00"> 4</text>
<polygon fill="#78c679" stroke="transparent" points="444,-152.5 444,-173.5 467,-173.5 467,-152.5 444,-152.5"/>
<polygon fill="none" stroke="black" points="444,-152.5 444,-173.5 467,-173.5 467,-152.5 444,-152.5"/>
<text text-anchor="start" x="447" y="-159.3" font-family="Courier,monospace" font-size="14.00"> 3</text>
<polygon fill="#41ab5d" stroke="transparent" points="467,-152.5 467,-173.5 490,-173.5 490,-152.5 467,-152.5"/>
<polygon fill="none" stroke="black" points="467,-152.5 467,-173.5 490,-173.5 490,-152.5 467,-152.5"/>
<text text-anchor="start" x="470" y="-159.3" font-family="Courier,monospace" font-size="14.00"> 2</text>
<polygon fill="#238443" stroke="transparent" points="490,-152.5 490,-173.5 513,-173.5 513,-152.5 490,-152.5"/>
<polygon fill="none" stroke="black" points="490,-152.5 490,-173.5 513,-173.5 513,-152.5 490,-152.5"/>
<text text-anchor="start" x="493" y="-159.3" font-family="Courier,monospace" font-size="14.00"> 1</text>
<polygon fill="#005a32" stroke="transparent" points="513,-152.5 513,-173.5 536,-173.5 536,-152.5 513,-152.5"/>
<polygon fill="none" stroke="black" points="513,-152.5 513,-173.5 536,-173.5 536,-152.5 513,-152.5"/>
<text text-anchor="start" x="516" y="-159.3" font-family="Courier,monospace" font-size="14.00"> 0</text>
</g>
<!-- dSt -->
<g id="node2" class="node">
<title>dSt</title>
<polygon fill="lightgrey" stroke="transparent" points="83,-87.5 83,-108.5 256,-108.5 256,-87.5 83,-87.5"/>
<polygon fill="none" stroke="black" points="83,-87.5 83,-108.5 256,-108.5 256,-87.5 83,-87.5"/>
<text text-anchor="start" x="157" y="-94.3" font-family="Courier,monospace" font-size="14.00">dSt</text>
<polygon fill="#8dd3c7" stroke="transparent" points="83,-66.5 83,-87.5 164,-87.5 164,-66.5 83,-66.5"/>
<polygon fill="none" stroke="black" points="83,-66.5 83,-87.5 164,-87.5 164,-66.5 83,-66.5"/>
<text text-anchor="start" x="86" y="-73.3" font-family="Courier,monospace" font-size="14.00">variabled</text>
<polygon fill="#8dd3c7" stroke="transparent" points="164,-66.5 164,-87.5 256,-87.5 256,-66.5 164,-66.5"/>
<polygon fill="none" stroke="black" points="164,-66.5 164,-87.5 256,-87.5 256,-66.5 164,-66.5"/>
<text text-anchor="start" x="168.5" y="-73.3" font-family="Courier,monospace" font-size="14.00">variabled2</text>
<polygon fill="#ffffb3" stroke="transparent" points="83,-45.5 83,-66.5 164,-66.5 164,-45.5 83,-45.5"/>
<polygon fill="none" stroke="black" points="83,-45.5 83,-66.5 164,-66.5 164,-45.5 83,-45.5"/>
<text text-anchor="start" x="86" y="-52.3" font-family="Courier,monospace" font-size="14.00">threeBitT</text>
<polygon fill="#ffffb3" stroke="transparent" points="164,-45.5 164,-66.5 256,-66.5 256,-45.5 164,-45.5"/>
<polygon fill="none" stroke="black" points="164,-45.5 164,-66.5 256,-66.5 256,-45.5 164,-45.5"/>
<text text-anchor="start" x="176.5" y="-52.3" font-family="Courier,monospace" font-size="14.00">fourBitT</text>
<polygon fill="snow" stroke="transparent" points="83,-24.5 83,-45.5 164,-45.5 164,-24.5 83,-24.5"/>
<polygon fill="none" stroke="black" points="83,-24.5 83,-45.5 164,-45.5 164,-24.5 83,-24.5"/>
<text text-anchor="start" x="119" y="-31.3" font-family="Courier,monospace" font-size="14.00">3</text>
<polygon fill="snow" stroke="transparent" points="164,-24.5 164,-45.5 256,-45.5 256,-24.5 164,-24.5"/>
<polygon fill="none" stroke="black" points="164,-24.5 164,-45.5 256,-45.5 256,-24.5 164,-24.5"/>
<text text-anchor="start" x="205.5" y="-31.3" font-family="Courier,monospace" font-size="14.00">4</text>
<polygon fill="#f7fcb9" stroke="transparent" points="83,-3.5 83,-24.5 112,-24.5 112,-3.5 83,-3.5"/>
<polygon fill="none" stroke="black" points="83,-3.5 83,-24.5 112,-24.5 112,-3.5 83,-3.5"/>
<text text-anchor="start" x="89" y="-10.3" font-family="Courier,monospace" font-size="14.00"> 6</text>
<polygon fill="#d9f0a3" stroke="transparent" points="112,-3.5 112,-24.5 138,-24.5 138,-3.5 112,-3.5"/>
<polygon fill="none" stroke="black" points="112,-3.5 112,-24.5 138,-24.5 138,-3.5 112,-3.5"/>
<text text-anchor="start" x="116.5" y="-10.3" font-family="Courier,monospace" font-size="14.00"> 5</text>
<polygon fill="#addd8e" stroke="transparent" points="138,-3.5 138,-24.5 164,-24.5 164,-3.5 138,-3.5"/>
<polygon fill="none" stroke="black" points="138,-3.5 138,-24.5 164,-24.5 164,-3.5 138,-3.5"/>
<text text-anchor="start" x="142.5" y="-10.3" font-family="Courier,monospace" font-size="14.00"> 4</text>
<polygon fill="#78c679" stroke="transparent" points="164,-3.5 164,-24.5 187,-24.5 187,-3.5 164,-3.5"/>
<polygon fill="none" stroke="black" points="164,-3.5 164,-24.5 187,-24.5 187,-3.5 164,-3.5"/>
<text text-anchor="start" x="167" y="-10.3" font-family="Courier,monospace" font-size="14.00"> 3</text>
<polygon fill="#41ab5d" stroke="transparent" points="187,-3.5 187,-24.5 210,-24.5 210,-3.5 187,-3.5"/>
<polygon fill="none" stroke="black" points="187,-3.5 187,-24.5 210,-24.5 210,-3.5 187,-3.5"/>
<text text-anchor="start" x="190" y="-10.3" font-family="Courier,monospace" font-size="14.00"> 2</text>
<polygon fill="#238443" stroke="transparent" points="210,-3.5 210,-24.5 233,-24.5 233,-3.5 210,-3.5"/>
<polygon fill="none" stroke="black" points="210,-3.5 210,-24.5 233,-24.5 233,-3.5 210,-3.5"/>
<text text-anchor="start" x="213" y="-10.3" font-family="Courier,monospace" font-size="14.00"> 1</text>
<polygon fill="#005a32" stroke="transparent" points="233,-3.5 233,-24.5 256,-24.5 256,-3.5 233,-3.5"/>
<polygon fill="none" stroke="black" points="233,-3.5 233,-24.5 256,-24.5 256,-3.5 233,-3.5"/>
<text text-anchor="start" x="236" y="-10.3" font-family="Courier,monospace" font-size="14.00"> 0</text>
</g>
<!-- nestedSt&#45;&gt;dSt -->
<g id="edge1" class="edge">
<title>nestedSt:dSt&#45;&gt;dSt:dSt</title>
<path fill="none" stroke="black" d="M206.76,-194.18C230.44,-171.09 287.54,-112.26 267.08,-100.55"/>
<polygon fill="black" stroke="black" points="267.5,-97.06 257,-98.5 266.1,-103.92 267.5,-97.06"/>
</g>
<!-- seeSt -->
<g id="node3" class="node">
<title>seeSt</title>
<polygon fill="lightgrey" stroke="transparent" points="290,-87.5 290,-108.5 493,-108.5 493,-87.5 290,-87.5"/>
<polygon fill="none" stroke="black" points="290,-87.5 290,-108.5 493,-108.5 493,-87.5 290,-87.5"/>
<text text-anchor="start" x="370.5" y="-94.3" font-family="Courier,monospace" font-size="14.00">seeSt</text>
<polygon fill="#8dd3c7" stroke="transparent" points="290,-66.5 290,-87.5 371,-87.5 371,-66.5 290,-66.5"/>
<polygon fill="none" stroke="black" points="290,-66.5 290,-87.5 371,-87.5 371,-66.5 290,-66.5"/>
<text text-anchor="start" x="293" y="-73.3" font-family="Courier,monospace" font-size="14.00">variablec</text>
<polygon fill="#8dd3c7" stroke="transparent" points="371,-66.5 371,-87.5 493,-87.5 493,-66.5 371,-66.5"/>
<polygon fill="none" stroke="black" points="371,-66.5 371,-87.5 493,-87.5 493,-66.5 371,-66.5"/>
<text text-anchor="start" x="390.5" y="-73.3" font-family="Courier,monospace" font-size="14.00">variablec2</text>
<polygon fill="#ffffb3" stroke="transparent" points="290,-45.5 290,-66.5 371,-66.5 371,-45.5 290,-45.5"/>
<polygon fill="none" stroke="black" points="290,-45.5 290,-66.5 371,-66.5 371,-45.5 290,-45.5"/>
<text text-anchor="start" x="305.5" y="-52.3" font-family="Courier,monospace" font-size="14.00">cSizeT</text>
<polygon fill="#ffffb3" stroke="transparent" points="371,-45.5 371,-66.5 493,-66.5 493,-45.5 371,-45.5"/>
<polygon fill="none" stroke="black" points="371,-45.5 371,-66.5 493,-66.5 493,-45.5 371,-45.5"/>
<text text-anchor="start" x="390.5" y="-52.3" font-family="Courier,monospace" font-size="14.00">cSizePlusT</text>
<polygon fill="#bebada" stroke="transparent" points="290,-24.5 290,-45.5 371,-45.5 371,-24.5 290,-24.5"/>
<polygon fill="none" stroke="black" points="290,-24.5 290,-45.5 371,-45.5 371,-24.5 290,-24.5"/>
<text text-anchor="start" x="293" y="-31.3" font-family="Courier,monospace" font-size="14.00">CSIZE (2)</text>
<polygon fill="#bebada" stroke="transparent" points="371,-24.5 371,-45.5 493,-45.5 493,-24.5 371,-24.5"/>
<polygon fill="none" stroke="black" points="371,-24.5 371,-45.5 493,-45.5 493,-24.5 371,-24.5"/>
<text text-anchor="start" x="374" y="-31.3" font-family="Courier,monospace" font-size="14.00">CSIZE_PLUS (3)</text>
<polygon fill="#addd8e" stroke="transparent" points="290,-3.5 290,-24.5 330,-24.5 330,-3.5 290,-3.5"/>
<polygon fill="none" stroke="black" points="290,-3.5 290,-24.5 330,-24.5 330,-3.5 290,-3.5"/>
<text text-anchor="start" x="301.5" y="-10.3" font-family="Courier,monospace" font-size="14.00"> 4</text>
<polygon fill="#78c679" stroke="transparent" points="330,-3.5 330,-24.5 371,-24.5 371,-3.5 330,-3.5"/>
<polygon fill="none" stroke="black" points="330,-3.5 330,-24.5 371,-24.5 371,-3.5 330,-3.5"/>
<text text-anchor="start" x="342" y="-10.3" font-family="Courier,monospace" font-size="14.00"> 3</text>
<polygon fill="#41ab5d" stroke="transparent" points="371,-3.5 371,-24.5 420,-24.5 420,-3.5 371,-3.5"/>
<polygon fill="none" stroke="black" points="371,-3.5 371,-24.5 420,-24.5 420,-3.5 371,-3.5"/>
<text text-anchor="start" x="387" y="-10.3" font-family="Courier,monospace" font-size="14.00"> 2</text>
<polygon fill="#238443" stroke="transparent" points="420,-3.5 420,-24.5 456,-24.5 456,-3.5 420,-3.5"/>
<polygon fill="none" stroke="black" points="420,-3.5 420,-24.5 456,-24.5 456,-3.5 420,-3.5"/>
<text text-anchor="start" x="429.5" y="-10.3" font-family="Courier,monospace" font-size="14.00"> 1</text>
<polygon fill="#005a32" stroke="transparent" points="456,-3.5 456,-24.5 493,-24.5 493,-3.5 456,-3.5"/>
<polygon fill="none" stroke="black" points="456,-3.5 456,-24.5 493,-24.5 493,-3.5 456,-3.5"/>
<text text-anchor="start" x="466" y="-10.3" font-family="Courier,monospace" font-size="14.00"> 0</text>
</g>
<!-- nestedSt&#45;&gt;seeSt -->
<g id="edge2" class="edge">
<title>nestedSt:seeSt&#45;&gt;seeSt:seeSt</title>
<path fill="none" stroke="black" d="M352.61,-194.18C324.69,-170.89 256.68,-111.23 279.02,-100.25"/>
<polygon fill="black" stroke="black" points="279.76,-103.68 289,-98.5 278.55,-96.78 279.76,-103.68"/>
</g>
</g>
</svg>
