<?xml version="1.0" encoding="UTF-8" standalone="no"?>
<!DOCTYPE svg PUBLIC "-//W3C//DTD SVG 1.1//EN"
 "http://www.w3.org/Graphics/SVG/1.1/DTD/svg11.dtd">
<!-- Generated by graphviz version 2.43.0 (0)
 -->
<!-- Title: %3 Pages: 1 -->
<svg width="227pt" height="121pt"
 viewBox="0.00 0.00 227.00 121.00" xmlns="http://www.w3.org/2000/svg" xmlns:xlink="http://www.w3.org/1999/xlink">
<g id="graph0" class="graph" transform="scale(1 1) rotate(0) translate(4 117)">
<title>%3</title>
<g id="a_graph0"><a xlink:title="Diagram of strcuture seeSt/mixedBlockC.yaml">
<polygon fill="snow" stroke="transparent" points="-4,4 -4,-117 223,-117 223,4 -4,4"/>
</a>
</g>
<!-- seeSt -->
<g id="node1" class="node">
<title>seeSt</title>
<polygon fill="lightgrey" stroke="transparent" points="8.5,-87.5 8.5,-108.5 211.5,-108.5 211.5,-87.5 8.5,-87.5"/>
<polygon fill="none" stroke="black" points="8.5,-87.5 8.5,-108.5 211.5,-108.5 211.5,-87.5 8.5,-87.5"/>
<text text-anchor="start" x="89" y="-94.3" font-family="Courier,monospace" font-size="14.00">seeSt</text>
<polygon fill="#8dd3c7" stroke="transparent" points="8.5,-66.5 8.5,-87.5 89.5,-87.5 89.5,-66.5 8.5,-66.5"/>
<polygon fill="none" stroke="black" points="8.5,-66.5 8.5,-87.5 89.5,-87.5 89.5,-66.5 8.5,-66.5"/>
<text text-anchor="start" x="11.5" y="-73.3" font-family="Courier,monospace" font-size="14.00">variablec</text>
<polygon fill="#8dd3c7" stroke="transparent" points="89.5,-66.5 89.5,-87.5 211.5,-87.5 211.5,-66.5 89.5,-66.5"/>
<polygon fill="none" stroke="black" points="89.5,-66.5 89.5,-87.5 211.5,-87.5 211.5,-66.5 89.5,-66.5"/>
<text text-anchor="start" x="109" y="-73.3" font-family="Courier,monospace" font-size="14.00">variablec2</text>
<polygon fill="#ffffb3" stroke="transparent" points="8.5,-45.5 8.5,-66.5 89.5,-66.5 89.5,-45.5 8.5,-45.5"/>
<polygon fill="none" stroke="black" points="8.5,-45.5 8.5,-66.5 89.5,-66.5 89.5,-45.5 8.5,-45.5"/>
<text text-anchor="start" x="24" y="-52.3" font-family="Courier,monospace" font-size="14.00">cSizeT</text>
<polygon fill="#ffffb3" stroke="transparent" points="89.5,-45.5 89.5,-66.5 211.5,-66.5 211.5,-45.5 89.5,-45.5"/>
<polygon fill="none" stroke="black" points="89.5,-45.5 89.5,-66.5 211.5,-66.5 211.5,-45.5 89.5,-45.5"/>
<text text-anchor="start" x="109" y="-52.3" font-family="Courier,monospace" font-size="14.00">cSizePlusT</text>
<polygon fill="#bebada" stroke="transparent" points="8.5,-24.5 8.5,-45.5 89.5,-45.5 89.5,-24.5 8.5,-24.5"/>
<polygon fill="none" stroke="black" points="8.5,-24.5 8.5,-45.5 89.5,-45.5 89.5,-24.5 8.5,-24.5"/>
<text text-anchor="start" x="11.5" y="-31.3" font-family="Courier,monospace" font-size="14.00">CSIZE (2)</text>
<polygon fill="#bebada" stroke="transparent" points="89.5,-24.5 89.5,-45.5 211.5,-45.5 211.5,-24.5 89.5,-24.5"/>
<polygon fill="none" stroke="black" points="89.5,-24.5 89.5,-45.5 211.5,-45.5 211.5,-24.5 89.5,-24.5"/>
<text text-anchor="start" x="92.5" y="-31.3" font-family="Courier,monospace" font-size="14.00">CSIZE_PLUS (3)</text>
<polygon fill="#addd8e" stroke="transparent" points="8.5,-3.5 8.5,-24.5 48.5,-24.5 48.5,-3.5 8.5,-3.5"/>
<polygon fill="none" stroke="black" points="8.5,-3.5 8.5,-24.5 48.5,-24.5 48.5,-3.5 8.5,-3.5"/>
<text text-anchor="start" x="20" y="-10.3" font-family="Courier,monospace" font-size="14.00"> 4</text>
<polygon fill="#78c679" stroke="transparent" points="48.5,-3.5 48.5,-24.5 89.5,-24.5 89.5,-3.5 48.5,-3.5"/>
<polygon fill="none" stroke="black" points="48.5,-3.5 48.5,-24.5 89.5,-24.5 89.5,-3.5 48.5,-3.5"/>
<text text-anchor="start" x="60.5" y="-10.3" font-family="Courier,monospace" font-size="14.00"> 3</text>
<polygon fill="#41ab5d" stroke="transparent" points="89.5,-3.5 89.5,-24.5 138.5,-24.5 138.5,-3.5 89.5,-3.5"/>
<polygon fill="none" stroke="black" points="89.5,-3.5 89.5,-24.5 138.5,-24.5 138.5,-3.5 89.5,-3.5"/>
<text text-anchor="start" x="105.5" y="-10.3" font-family="Courier,monospace" font-size="14.00"> 2</text>
<polygon fill="#238443" stroke="transparent" points="138.5,-3.5 138.5,-24.5 174.5,-24.5 174.5,-3.5 138.5,-3.5"/>
<polygon fill="none" stroke="black" points="138.5,-3.5 138.5,-24.5 174.5,-24.5 174.5,-3.5 138.5,-3.5"/>
<text text-anchor="start" x="148" y="-10.3" font-family="Courier,monospace" font-size="14.00"> 1</text>
<polygon fill="#005a32" stroke="transparent" points="174.5,-3.5 174.5,-24.5 211.5,-24.5 211.5,-3.5 174.5,-3.5"/>
<polygon fill="none" stroke="black" points="174.5,-3.5 174.5,-24.5 211.5,-24.5 211.5,-3.5 174.5,-3.5"/>
<text text-anchor="start" x="184.5" y="-10.3" font-family="Courier,monospace" font-size="14.00"> 0</text>
</g>
</g>
</svg>
