<?xml version="1.0" encoding="UTF-8" standalone="no"?>
<!DOCTYPE svg PUBLIC "-//W3C//DTD SVG 1.1//EN"
 "http://www.w3.org/Graphics/SVG/1.1/DTD/svg11.dtd">
<!-- Generated by graphviz version 2.43.0 (0)
 -->
<!-- Title: %3 Pages: 1 -->
<svg width="446pt" height="218pt"
 viewBox="0.00 0.00 446.00 218.00" xmlns="http://www.w3.org/2000/svg" xmlns:xlink="http://www.w3.org/1999/xlink">
<g id="graph0" class="graph" transform="scale(1 1) rotate(0) translate(4 214)">
<title>%3</title>
<g id="a_graph0"><a xlink:title="uTop/apbDecode.yaml + depth 4">
<polygon fill="snow" stroke="transparent" points="-4,4 -4,-214 442,-214 442,4 -4,4"/>
</a>
</g>
<g id="clust1" class="cluster">
<title>cluster_uTop/apbDecode.yaml.uSomeRapper/apbDecode.yaml</title>
<g id="a_clust1"><a xlink:title="A level of wrapper">
<polygon fill="snow" stroke="black" points="8,-8 8,-166 430,-166 430,-8 8,-8"/>
<text text-anchor="middle" x="219" y="-150.8" font-family="Times,serif" font-size="14.00">someRapper</text>
</a>
</g>
</g>
<g id="clust2" class="cluster">
<title>cluster_uTop/apbDecode.yaml.uSomeRapper/apbDecode.yaml.uBlockA/apbDecode.yaml</title>
<g id="a_clust2"><a xlink:title="The block named A">
<polygon fill="snow" stroke="black" points="16,-16 16,-91 214,-91 214,-16 16,-16"/>
<text text-anchor="middle" x="115" y="-75.8" font-family="Times,serif" font-size="14.00">blockA</text>
</a>
</g>
</g>
<g id="clust3" class="cluster">
<title>cluster_uTop/apbDecode.yaml.uSomeRapper/apbDecode.yaml.uBlockB/apbDecode.yaml</title>
<g id="a_clust3"><a xlink:title="The block named B">
<polygon fill="#8470ff" stroke="#8470ff" points="222,-16 222,-91 422,-91 422,-16 222,-16"/>
<text text-anchor="middle" x="322" y="-75.8" font-family="Times,serif" font-size="14.00">blockB</text>
</a>
</g>
</g>
<!-- uTop/apbDecode.yaml.uCPU/apbDecode.yaml -->
<g id="node1" class="node">
<title>uTop/apbDecode.yaml.uCPU/apbDecode.yaml</title>
<g id="a_node1"><a xlink:title="A RISC&#45;V CPU">
<polygon fill="pink" stroke="black" points="145,-210 91,-210 91,-174 145,-174 145,-210"/>
<text text-anchor="middle" x="118" y="-188.3" font-family="Times,serif" font-size="14.00">cpu</text>
</a>
</g>
</g>
<!-- uTop/apbDecode.yaml.uSomeRapper/apbDecode.yaml.uAPBDecode/apbDecode.yaml -->
<g id="node3" class="node">
<title>uTop/apbDecode.yaml.uSomeRapper/apbDecode.yaml.uAPBDecode/apbDecode.yaml</title>
<g id="a_node3"><a xlink:title="The block to decode apb addresses">
<polygon fill="pink" stroke="black" points="165.5,-135 70.5,-135 70.5,-99 165.5,-99 165.5,-135"/>
<text text-anchor="middle" x="118" y="-113.3" font-family="Times,serif" font-size="14.00">apbDecode</text>
</a>
</g>
</g>
<!-- uTop/apbDecode.yaml.uCPU/apbDecode.yaml&#45;&gt;uTop/apbDecode.yaml.uSomeRapper/apbDecode.yaml.uAPBDecode/apbDecode.yaml -->
<g id="edge1" class="edge">
<title>uTop/apbDecode.yaml.uCPU/apbDecode.yaml&#45;&gt;uTop/apbDecode.yaml.uSomeRapper/apbDecode.yaml.uAPBDecode/apbDecode.yaml</title>
<g id="a_edge1"><a xlink:title="apbReg(apbAddrSt, apbDataSt) CPU access to SoC registers in the design">
<path fill="none" stroke="black" d="M118,-173.7C118,-165.25 118,-154.87 118,-145.37"/>
<polygon fill="black" stroke="black" points="121.5,-145.18 118,-135.18 114.5,-145.18 121.5,-145.18"/>
</a>
</g>
</g>
<!-- uTop/apbDecode.yaml.uSomeRapper/apbDecode.yaml -->
<!-- uTop/apbDecode.yaml.uSomeRapper/apbDecode.yaml.uBlockA/apbDecode.yaml.uBlockARegs/apbDecode.yaml -->
<g id="node5" class="node">
<title>uTop/apbDecode.yaml.uSomeRapper/apbDecode.yaml.uBlockA/apbDecode.yaml.uBlockARegs/apbDecode.yaml</title>
<g id="a_node5"><a xlink:title="The register block inside block A">
<polygon fill="grey" stroke="black" points="123.5,-60 24.5,-60 24.5,-24 123.5,-24 123.5,-60"/>
<text text-anchor="middle" x="74" y="-38.3" font-family="Times,serif" font-size="14.00">blockARegs</text>
</a>
</g>
</g>
<!-- uTop/apbDecode.yaml.uSomeRapper/apbDecode.yaml.uAPBDecode/apbDecode.yaml&#45;&gt;uTop/apbDecode.yaml.uSomeRapper/apbDecode.yaml.uBlockA/apbDecode.yaml.uBlockARegs/apbDecode.yaml -->
<g id="edge2" class="edge">
<title>uTop/apbDecode.yaml.uSomeRapper/apbDecode.yaml.uAPBDecode/apbDecode.yaml&#45;&gt;uTop/apbDecode.yaml.uSomeRapper/apbDecode.yaml.uBlockA/apbDecode.yaml.uBlockARegs/apbDecode.yaml</title>
<g id="a_edge2"><a xlink:title="apbReg(apbAddrSt, apbDataSt) CPU access to SoC registers in the design">
<path fill="none" stroke="black" d="M107.57,-98.7C102.2,-89.79 95.55,-78.75 89.58,-68.85"/>
<polygon fill="black" stroke="black" points="92.51,-66.93 84.35,-60.18 86.52,-70.55 92.51,-66.93"/>
</a>
</g>
</g>
<!-- uTop/apbDecode.yaml.uSomeRapper/apbDecode.yaml.uBlockB/apbDecode.yaml.uBlockBRegs/apbDecode.yaml -->
<g id="node7" class="node">
<title>uTop/apbDecode.yaml.uSomeRapper/apbDecode.yaml.uBlockB/apbDecode.yaml.uBlockBRegs/apbDecode.yaml</title>
<g id="a_node7"><a xlink:title="The register block inside block B">
<polygon fill="grey" stroke="black" points="330,-60 230,-60 230,-24 330,-24 330,-60"/>
<text text-anchor="middle" x="280" y="-38.3" font-family="Times,serif" font-size="14.00">blockBRegs</text>
</a>
</g>
</g>
<!-- uTop/apbDecode.yaml.uSomeRapper/apbDecode.yaml.uAPBDecode/apbDecode.yaml&#45;&gt;uTop/apbDecode.yaml.uSomeRapper/apbDecode.yaml.uBlockB/apbDecode.yaml.uBlockBRegs/apbDecode.yaml -->
<g id="edge3" class="edge">
<title>uTop/apbDecode.yaml.uSomeRapper/apbDecode.yaml.uAPBDecode/apbDecode.yaml&#45;&gt;uTop/apbDecode.yaml.uSomeRapper/apbDecode.yaml.uBlockB/apbDecode.yaml.uBlockBRegs/apbDecode.yaml</title>
<g id="a_edge3"><a xlink:title="apbReg(apbAddrSt, apbDataSt) CPU access to SoC registers in the design">
<path fill="none" stroke="black" d="M165.7,-108.28C182.74,-104.45 201.74,-98.89 218,-91 230.98,-84.7 243.84,-75.39 254.45,-66.64"/>
<polygon fill="black" stroke="black" points="256.76,-69.27 262.1,-60.12 252.22,-63.95 256.76,-69.27"/>
</a>
</g>
</g>
<!-- uTop/apbDecode.yaml.uSomeRapper/apbDecode.yaml.uBlockA/apbDecode.yaml -->
<!-- uTop/apbDecode.yaml.uSomeRapper/apbDecode.yaml.uBlockB/apbDecode.yaml -->
</g>
</svg>
