<?xml version="1.0" encoding="UTF-8" standalone="no"?>
<!DOCTYPE svg PUBLIC "-//W3C//DTD SVG 1.1//EN"
 "http://www.w3.org/Graphics/SVG/1.1/DTD/svg11.dtd">
<!-- Generated by graphviz version 2.43.0 (0)
 -->
<!-- Title: %3 Pages: 1 -->
<svg width="103pt" height="116pt"
 viewBox="0.00 0.00 103.25 116.00" xmlns="http://www.w3.org/2000/svg" xmlns:xlink="http://www.w3.org/1999/xlink">
<g id="graph0" class="graph" transform="scale(1 1) rotate(0) translate(4 112)">
<title>%3</title>
<g id="a_graph0"><a xlink:title="uTop/axiDemo.yaml + depth 1">
<polygon fill="snow" stroke="transparent" points="-4,4 -4,-112 99.25,-112 99.25,4 -4,4"/>
</a>
</g>
<!-- uTop/axiDemo.yaml.uProducer/axiDemo.yaml -->
<g id="node1" class="node">
<title>uTop/axiDemo.yaml.uProducer/axiDemo.yaml</title>
<g id="a_node1"><a xlink:title="The block that initiates AXI transactions, the one reading or writting.">
<polygon fill="green" stroke="black" points="88.13,-108 7.13,-108 7.13,-72 88.13,-72 88.13,-108"/>
<text text-anchor="middle" x="47.63" y="-86.3" font-family="Times,serif" font-size="14.00">producer</text>
</a>
</g>
</g>
<!-- uTop/axiDemo.yaml.uConsumer/axiDemo.yaml -->
<g id="node2" class="node">
<title>uTop/axiDemo.yaml.uConsumer/axiDemo.yaml</title>
<g id="a_node2"><a xlink:title="The block that recieves AXI transactions, the one returns read data or stores write data.">
<polygon fill="orange" stroke="black" points="90.63,-36 4.63,-36 4.63,0 90.63,0 90.63,-36"/>
<text text-anchor="middle" x="47.63" y="-14.3" font-family="Times,serif" font-size="14.00">consumer</text>
</a>
</g>
</g>
<!-- uTop/axiDemo.yaml.uProducer/axiDemo.yaml&#45;&gt;uTop/axiDemo.yaml.uConsumer/axiDemo.yaml -->
<g id="edge1" class="edge">
<title>uTop/axiDemo.yaml.uProducer/axiDemo.yaml&#45;&gt;uTop/axiDemo.yaml.uConsumer/axiDemo.yaml</title>
<g id="a_edge1"><a xlink:title="axiRdIf(axiAddrSt, axiDataSt) AXI Read channels; Address and Data">
<path fill="none" stroke="black" d="M7.02,-72.76C0.62,-64.61 -1.16,-54.53 1.7,-45.31"/>
<polygon fill="black" stroke="black" points="4.95,-46.63 6.35,-36.12 -1.29,-43.46 4.95,-46.63"/>
</a>
</g>
</g>
<!-- uTop/axiDemo.yaml.uProducer/axiDemo.yaml&#45;&gt;uTop/axiDemo.yaml.uConsumer/axiDemo.yaml -->
<g id="edge2" class="edge">
<title>uTop/axiDemo.yaml.uProducer/axiDemo.yaml&#45;&gt;uTop/axiDemo.yaml.uConsumer/axiDemo.yaml</title>
<g id="a_edge2"><a xlink:title="axiRdIf(axiAddrSt, axiDataSt) AXI Read channels; Address and Data">
<path fill="none" stroke="black" d="M18.05,-71.7C13.98,-63.81 12.89,-54.3 14.77,-45.55"/>
<polygon fill="black" stroke="black" points="18.07,-46.7 18.15,-36.1 11.48,-44.34 18.07,-46.7"/>
</a>
</g>
</g>
<!-- uTop/axiDemo.yaml.uProducer/axiDemo.yaml&#45;&gt;uTop/axiDemo.yaml.uConsumer/axiDemo.yaml -->
<g id="edge3" class="edge">
<title>uTop/axiDemo.yaml.uProducer/axiDemo.yaml&#45;&gt;uTop/axiDemo.yaml.uConsumer/axiDemo.yaml</title>
<g id="a_edge3"><a xlink:title="axiRdIf(axiAddrSt, axiDataSt) AXI Read channels; Address and Data">
<path fill="none" stroke="black" d="M29.88,-71.7C27.49,-63.98 26.81,-54.71 27.84,-46.11"/>
<polygon fill="black" stroke="black" points="31.31,-46.61 29.94,-36.1 24.46,-45.17 31.31,-46.61"/>
</a>
</g>
</g>
<!-- uTop/axiDemo.yaml.uProducer/axiDemo.yaml&#45;&gt;uTop/axiDemo.yaml.uConsumer/axiDemo.yaml -->
<g id="edge4" class="edge">
<title>uTop/axiDemo.yaml.uProducer/axiDemo.yaml&#45;&gt;uTop/axiDemo.yaml.uConsumer/axiDemo.yaml</title>
<g id="a_edge4"><a xlink:title="axiRdIf(axiAddrSt, axiDataSt) AXI Read channels; Address and Data">
<path fill="none" stroke="black" d="M41.71,-71.7C40.92,-63.98 40.69,-54.71 41.03,-46.11"/>
<polygon fill="black" stroke="black" points="44.53,-46.32 41.73,-36.1 37.54,-45.84 44.53,-46.32"/>
</a>
</g>
</g>
<!-- uTop/axiDemo.yaml.uProducer/axiDemo.yaml&#45;&gt;uTop/axiDemo.yaml.uConsumer/axiDemo.yaml -->
<g id="edge5" class="edge">
<title>uTop/axiDemo.yaml.uProducer/axiDemo.yaml&#45;&gt;uTop/axiDemo.yaml.uConsumer/axiDemo.yaml</title>
<g id="a_edge5"><a xlink:title="axiWrIf(axiAddrSt, axiDataSt, axiStrobeSt) AXI Write channels; Address, Data, and Response">
<path fill="none" stroke="black" d="M53.54,-71.7C54.34,-63.98 54.57,-54.71 54.22,-46.11"/>
<polygon fill="black" stroke="black" points="57.71,-45.84 53.52,-36.1 50.73,-46.32 57.71,-45.84"/>
</a>
</g>
</g>
<!-- uTop/axiDemo.yaml.uProducer/axiDemo.yaml&#45;&gt;uTop/axiDemo.yaml.uConsumer/axiDemo.yaml -->
<g id="edge6" class="edge">
<title>uTop/axiDemo.yaml.uProducer/axiDemo.yaml&#45;&gt;uTop/axiDemo.yaml.uConsumer/axiDemo.yaml</title>
<g id="a_edge6"><a xlink:title="axiWrIf(axiAddrSt, axiDataSt, axiStrobeSt) AXI Write channels; Address, Data, and Response">
<path fill="none" stroke="black" d="M65.37,-71.7C67.76,-63.98 68.44,-54.71 67.41,-46.11"/>
<polygon fill="black" stroke="black" points="70.79,-45.17 65.31,-36.1 63.94,-46.61 70.79,-45.17"/>
</a>
</g>
</g>
<!-- uTop/axiDemo.yaml.uProducer/axiDemo.yaml&#45;&gt;uTop/axiDemo.yaml.uConsumer/axiDemo.yaml -->
<g id="edge7" class="edge">
<title>uTop/axiDemo.yaml.uProducer/axiDemo.yaml&#45;&gt;uTop/axiDemo.yaml.uConsumer/axiDemo.yaml</title>
<g id="a_edge7"><a xlink:title="axiWrIf(axiAddrSt, axiDataSt, axiStrobeSt) AXI Write channels; Address, Data, and Response">
<path fill="none" stroke="black" d="M77.21,-71.7C81.27,-63.81 82.37,-54.3 80.49,-45.55"/>
<polygon fill="black" stroke="black" points="83.77,-44.34 77.1,-36.1 77.18,-46.7 83.77,-44.34"/>
</a>
</g>
</g>
<!-- uTop/axiDemo.yaml.uProducer/axiDemo.yaml&#45;&gt;uTop/axiDemo.yaml.uConsumer/axiDemo.yaml -->
<g id="edge8" class="edge">
<title>uTop/axiDemo.yaml.uProducer/axiDemo.yaml&#45;&gt;uTop/axiDemo.yaml.uConsumer/axiDemo.yaml</title>
<g id="a_edge8"><a xlink:title="axiWrIf(axiAddrSt, axiDataSt, axiStrobeSt) AXI Write channels; Address, Data, and Response">
<path fill="none" stroke="black" d="M88.23,-72.76C94.64,-64.61 96.41,-54.53 93.56,-45.31"/>
<polygon fill="black" stroke="black" points="96.55,-43.46 88.91,-36.12 90.3,-46.63 96.55,-43.46"/>
</a>
</g>
</g>
</g>
</svg>
