<?xml version="1.0" encoding="UTF-8" standalone="no"?>
<!DOCTYPE svg PUBLIC "-//W3C//DTD SVG 1.1//EN"
 "http://www.w3.org/Graphics/SVG/1.1/DTD/svg11.dtd">
<!-- Generated by graphviz version 2.43.0 (0)
 -->
<!-- Title: %3 Pages: 1 -->
<svg width="130pt" height="116pt"
 viewBox="0.00 0.00 130.27 116.00" xmlns="http://www.w3.org/2000/svg" xmlns:xlink="http://www.w3.org/1999/xlink">
<g id="graph0" class="graph" transform="scale(1 1) rotate(0) translate(4 112)">
<title>%3</title>
<g id="a_graph0"><a xlink:title="uTop/axiDemo.yaml + depth 1">
<polygon fill="snow" stroke="transparent" points="-4,4 -4,-112 126.27,-112 126.27,4 -4,4"/>
</a>
</g>
<!-- uTop/axiDemo.yaml.uProducer/axiDemo.yaml -->
<g id="node1" class="node">
<title>uTop/axiDemo.yaml.uProducer/axiDemo.yaml</title>
<g id="a_node1"><a xlink:title="The block that initiates AXI transactions, the one reading or writting.">
<polygon fill="green" stroke="black" points="101.64,-108 20.64,-108 20.64,-72 101.64,-72 101.64,-108"/>
<text text-anchor="middle" x="61.14" y="-86.3" font-family="Times,serif" font-size="14.00">producer</text>
</a>
</g>
</g>
<!-- uTop/axiDemo.yaml.uConsumer/axiDemo.yaml -->
<g id="node2" class="node">
<title>uTop/axiDemo.yaml.uConsumer/axiDemo.yaml</title>
<g id="a_node2"><a xlink:title="The block that recieves AXI transactions, the one returns read data or stores write data.">
<polygon fill="orange" stroke="black" points="104.14,-36 18.14,-36 18.14,0 104.14,0 104.14,-36"/>
<text text-anchor="middle" x="61.14" y="-14.3" font-family="Times,serif" font-size="14.00">consumer</text>
</a>
</g>
</g>
<!-- uTop/axiDemo.yaml.uProducer/axiDemo.yaml&#45;&gt;uTop/axiDemo.yaml.uConsumer/axiDemo.yaml -->
<g id="edge1" class="edge">
<title>uTop/axiDemo.yaml.uProducer/axiDemo.yaml&#45;&gt;uTop/axiDemo.yaml.uConsumer/axiDemo.yaml</title>
<g id="a_edge1"><a xlink:title="axiRdIf(axiAddrSt, axiDataSt) AXI Read channels; Address and Data">
<path fill="none" stroke="black" d="M20.42,-80.83C-2.03,-69.51 -5.61,-48.83 9.67,-34.52"/>
<polygon fill="black" stroke="black" points="11.99,-37.16 18.02,-28.45 7.87,-31.5 11.99,-37.16"/>
</a>
</g>
</g>
<!-- uTop/axiDemo.yaml.uProducer/axiDemo.yaml&#45;&gt;uTop/axiDemo.yaml.uConsumer/axiDemo.yaml -->
<g id="edge2" class="edge">
<title>uTop/axiDemo.yaml.uProducer/axiDemo.yaml&#45;&gt;uTop/axiDemo.yaml.uConsumer/axiDemo.yaml</title>
<g id="a_edge2"><a xlink:title="axiRdIf(axiAddrSt, axiDataSt) AXI Read channels; Address and Data">
<path fill="none" stroke="black" d="M20.53,-72.76C14.13,-64.61 12.35,-54.53 15.21,-45.31"/>
<polygon fill="black" stroke="black" points="18.46,-46.63 19.86,-36.12 12.22,-43.46 18.46,-46.63"/>
</a>
</g>
</g>
<!-- uTop/axiDemo.yaml.uProducer/axiDemo.yaml&#45;&gt;uTop/axiDemo.yaml.uConsumer/axiDemo.yaml -->
<g id="edge3" class="edge">
<title>uTop/axiDemo.yaml.uProducer/axiDemo.yaml&#45;&gt;uTop/axiDemo.yaml.uConsumer/axiDemo.yaml</title>
<g id="a_edge3"><a xlink:title="axiRdIf(axiAddrSt, axiDataSt) AXI Read channels; Address and Data">
<path fill="none" stroke="black" d="M31.56,-71.7C27.49,-63.81 26.4,-54.3 28.28,-45.55"/>
<polygon fill="black" stroke="black" points="31.58,-46.7 31.66,-36.1 24.99,-44.34 31.58,-46.7"/>
</a>
</g>
</g>
<!-- uTop/axiDemo.yaml.uProducer/axiDemo.yaml&#45;&gt;uTop/axiDemo.yaml.uConsumer/axiDemo.yaml -->
<g id="edge4" class="edge">
<title>uTop/axiDemo.yaml.uProducer/axiDemo.yaml&#45;&gt;uTop/axiDemo.yaml.uConsumer/axiDemo.yaml</title>
<g id="a_edge4"><a xlink:title="axiRdIf(axiAddrSt, axiDataSt) AXI Read channels; Address and Data">
<path fill="none" stroke="black" d="M43.39,-71.7C41,-63.98 40.32,-54.71 41.35,-46.11"/>
<polygon fill="black" stroke="black" points="44.82,-46.61 43.45,-36.1 37.97,-45.17 44.82,-46.61"/>
</a>
</g>
</g>
<!-- uTop/axiDemo.yaml.uProducer/axiDemo.yaml&#45;&gt;uTop/axiDemo.yaml.uConsumer/axiDemo.yaml -->
<g id="edge5" class="edge">
<title>uTop/axiDemo.yaml.uProducer/axiDemo.yaml&#45;&gt;uTop/axiDemo.yaml.uConsumer/axiDemo.yaml</title>
<g id="a_edge5"><a xlink:title="axiWrIf(axiAddrSt, axiDataSt, axiStrobeSt) AXI Write channels; Address, Data, and Response">
<path fill="none" stroke="black" d="M55.22,-71.7C54.42,-63.98 54.2,-54.71 54.54,-46.11"/>
<polygon fill="black" stroke="black" points="58.03,-46.32 55.24,-36.1 51.05,-45.84 58.03,-46.32"/>
</a>
</g>
</g>
<!-- uTop/axiDemo.yaml.uProducer/axiDemo.yaml&#45;&gt;uTop/axiDemo.yaml.uConsumer/axiDemo.yaml -->
<g id="edge6" class="edge">
<title>uTop/axiDemo.yaml.uProducer/axiDemo.yaml&#45;&gt;uTop/axiDemo.yaml.uConsumer/axiDemo.yaml</title>
<g id="a_edge6"><a xlink:title="axiWrIf(axiAddrSt, axiDataSt, axiStrobeSt) AXI Write channels; Address, Data, and Response">
<path fill="none" stroke="black" d="M67.05,-71.7C67.85,-63.98 68.07,-54.71 67.73,-46.11"/>
<polygon fill="black" stroke="black" points="71.22,-45.84 67.03,-36.1 64.24,-46.32 71.22,-45.84"/>
</a>
</g>
</g>
<!-- uTop/axiDemo.yaml.uProducer/axiDemo.yaml&#45;&gt;uTop/axiDemo.yaml.uConsumer/axiDemo.yaml -->
<g id="edge7" class="edge">
<title>uTop/axiDemo.yaml.uProducer/axiDemo.yaml&#45;&gt;uTop/axiDemo.yaml.uConsumer/axiDemo.yaml</title>
<g id="a_edge7"><a xlink:title="axiWrIf(axiAddrSt, axiDataSt, axiStrobeSt) AXI Write channels; Address, Data, and Response">
<path fill="none" stroke="black" d="M78.88,-71.7C81.27,-63.98 81.95,-54.71 80.92,-46.11"/>
<polygon fill="black" stroke="black" points="84.3,-45.17 78.82,-36.1 77.45,-46.61 84.3,-45.17"/>
</a>
</g>
</g>
<!-- uTop/axiDemo.yaml.uProducer/axiDemo.yaml&#45;&gt;uTop/axiDemo.yaml.uConsumer/axiDemo.yaml -->
<g id="edge8" class="edge">
<title>uTop/axiDemo.yaml.uProducer/axiDemo.yaml&#45;&gt;uTop/axiDemo.yaml.uConsumer/axiDemo.yaml</title>
<g id="a_edge8"><a xlink:title="axiWrIf(axiAddrSt, axiDataSt, axiStrobeSt) AXI Write channels; Address, Data, and Response">
<path fill="none" stroke="black" d="M90.71,-71.7C94.78,-63.81 95.87,-54.3 93.99,-45.55"/>
<polygon fill="black" stroke="black" points="97.28,-44.34 90.61,-36.1 90.69,-46.7 97.28,-44.34"/>
</a>
</g>
</g>
<!-- uTop/axiDemo.yaml.uProducer/axiDemo.yaml&#45;&gt;uTop/axiDemo.yaml.uConsumer/axiDemo.yaml -->
<g id="edge9" class="edge">
<title>uTop/axiDemo.yaml.uProducer/axiDemo.yaml&#45;&gt;uTop/axiDemo.yaml.uConsumer/axiDemo.yaml</title>
<g id="a_edge9"><a xlink:title="axiStreamIf(axiDataSt, axiAddrSt, axiAddrSt, axiAddrSt) AXI stream channel">
<path fill="none" stroke="black" d="M101.74,-72.76C108.14,-64.61 109.92,-54.53 107.07,-45.31"/>
<polygon fill="black" stroke="black" points="110.06,-43.46 102.42,-36.12 103.81,-46.63 110.06,-43.46"/>
</a>
</g>
</g>
<!-- uTop/axiDemo.yaml.uProducer/axiDemo.yaml&#45;&gt;uTop/axiDemo.yaml.uConsumer/axiDemo.yaml -->
<g id="edge10" class="edge">
<title>uTop/axiDemo.yaml.uProducer/axiDemo.yaml&#45;&gt;uTop/axiDemo.yaml.uConsumer/axiDemo.yaml</title>
<g id="a_edge10"><a xlink:title="axiStreamIf(axiDataSt, axiAddrSt, axiAddrSt, axiAddrSt) AXI stream channel">
<path fill="none" stroke="black" d="M101.85,-80.83C124.3,-69.51 127.88,-48.83 112.6,-34.52"/>
<polygon fill="black" stroke="black" points="114.4,-31.5 104.25,-28.45 110.28,-37.16 114.4,-31.5"/>
</a>
</g>
</g>
</g>
</svg>
