<?xml version="1.0" encoding="UTF-8" standalone="no"?>
<!DOCTYPE svg PUBLIC "-//W3C//DTD SVG 1.1//EN"
 "http://www.w3.org/Graphics/SVG/1.1/DTD/svg11.dtd">
<!-- Generated by graphviz version 2.43.0 (0)
 -->
<!-- Title: %3 Pages: 1 -->
<svg width="92pt" height="116pt"
 viewBox="0.00 0.00 92.00 116.00" xmlns="http://www.w3.org/2000/svg" xmlns:xlink="http://www.w3.org/1999/xlink">
<g id="graph0" class="graph" transform="scale(1 1) rotate(0) translate(4 112)">
<title>%3</title>
<g id="a_graph0"><a xlink:title="uTop/inAndOut.yaml + depth 2">
<polygon fill="snow" stroke="transparent" points="-4,4 -4,-112 88,-112 88,4 -4,4"/>
</a>
</g>
<!-- uTop/inAndOut.yaml.uInAndOut0/inAndOut.yaml -->
<g id="node1" class="node">
<title>uTop/inAndOut.yaml.uInAndOut0/inAndOut.yaml</title>
<g id="a_node1"><a xlink:title="The block that has each interface type in and out to show both directions">
<polygon fill="orange" stroke="black" points="84,-108 0,-108 0,-72 84,-72 84,-108"/>
<text text-anchor="middle" x="42" y="-86.3" font-family="Times,serif" font-size="14.00">inAndOut</text>
</a>
</g>
</g>
<!-- uTop/inAndOut.yaml.uInAndOut1/inAndOut.yaml -->
<g id="node2" class="node">
<title>uTop/inAndOut.yaml.uInAndOut1/inAndOut.yaml</title>
<g id="a_node2"><a xlink:title="The block that has each interface type in and out to show both directions">
<polygon fill="green" stroke="black" points="84,-36 0,-36 0,0 84,0 84,-36"/>
<text text-anchor="middle" x="42" y="-14.3" font-family="Times,serif" font-size="14.00">inAndOut</text>
</a>
</g>
</g>
<!-- uTop/inAndOut.yaml.uInAndOut0/inAndOut.yaml&#45;&gt;uTop/inAndOut.yaml.uInAndOut1/inAndOut.yaml -->
<g id="edge1" class="edge">
<title>uTop/inAndOut.yaml.uInAndOut0/inAndOut.yaml&#45;&gt;uTop/inAndOut.yaml.uInAndOut1/inAndOut.yaml</title>
<g id="a_edge1"><a xlink:title="aStuffIf(aSt) An interface of type rdyVld">
<path fill="none" stroke="black" d="M12.42,-71.7C8.36,-63.81 7.26,-54.3 9.14,-45.55"/>
<polygon fill="black" stroke="black" points="12.45,-46.7 12.52,-36.1 5.86,-44.34 12.45,-46.7"/>
</a>
</g>
</g>
<!-- uTop/inAndOut.yaml.uInAndOut0/inAndOut.yaml&#45;&gt;uTop/inAndOut.yaml.uInAndOut1/inAndOut.yaml -->
<g id="edge3" class="edge">
<title>uTop/inAndOut.yaml.uInAndOut0/inAndOut.yaml&#45;&gt;uTop/inAndOut.yaml.uInAndOut1/inAndOut.yaml</title>
<g id="a_edge3"><a xlink:title="bStuffIf(bSt, bBSt) An interface of type reqAck">
<path fill="none" stroke="black" d="M36.08,-71.7C35.29,-63.98 35.06,-54.71 35.4,-46.11"/>
<polygon fill="black" stroke="black" points="38.9,-46.32 36.1,-36.1 31.92,-45.84 38.9,-46.32"/>
</a>
</g>
</g>
<!-- uTop/inAndOut.yaml.uInAndOut0/inAndOut.yaml&#45;&gt;uTop/inAndOut.yaml.uInAndOut1/inAndOut.yaml -->
<g id="edge5" class="edge">
<title>uTop/inAndOut.yaml.uInAndOut0/inAndOut.yaml&#45;&gt;uTop/inAndOut.yaml.uInAndOut1/inAndOut.yaml</title>
<g id="a_edge5"><a xlink:title="dStuffIf(dSt) An interface of type rdyAck">
<path fill="none" stroke="black" d="M59.75,-71.7C62.13,-63.98 62.81,-54.71 61.79,-46.11"/>
<polygon fill="black" stroke="black" points="65.16,-45.17 59.69,-36.1 58.31,-46.61 65.16,-45.17"/>
</a>
</g>
</g>
<!-- uTop/inAndOut.yaml.uInAndOut1/inAndOut.yaml&#45;&gt;uTop/inAndOut.yaml.uInAndOut0/inAndOut.yaml -->
<g id="edge2" class="edge">
<title>uTop/inAndOut.yaml.uInAndOut1/inAndOut.yaml&#45;&gt;uTop/inAndOut.yaml.uInAndOut0/inAndOut.yaml</title>
<g id="a_edge2"><a xlink:title="aStuffIf(aSt) An interface of type rdyVld">
<path fill="none" stroke="black" d="M24.31,-36.1C21.9,-43.79 21.19,-53.05 22.19,-61.67"/>
<polygon fill="black" stroke="black" points="18.81,-62.61 24.25,-71.7 25.66,-61.2 18.81,-62.61"/>
</a>
</g>
</g>
<!-- uTop/inAndOut.yaml.uInAndOut1/inAndOut.yaml&#45;&gt;uTop/inAndOut.yaml.uInAndOut0/inAndOut.yaml -->
<g id="edge4" class="edge">
<title>uTop/inAndOut.yaml.uInAndOut1/inAndOut.yaml&#45;&gt;uTop/inAndOut.yaml.uInAndOut0/inAndOut.yaml</title>
<g id="a_edge4"><a xlink:title="bStuffIf(bSt, bBSt) An interface of type reqAck">
<path fill="none" stroke="black" d="M47.9,-36.1C48.7,-43.79 48.94,-53.05 48.6,-61.67"/>
<polygon fill="black" stroke="black" points="45.11,-61.48 47.92,-71.7 52.09,-61.96 45.11,-61.48"/>
</a>
</g>
</g>
<!-- uTop/inAndOut.yaml.uInAndOut1/inAndOut.yaml&#45;&gt;uTop/inAndOut.yaml.uInAndOut0/inAndOut.yaml -->
<g id="edge6" class="edge">
<title>uTop/inAndOut.yaml.uInAndOut1/inAndOut.yaml&#45;&gt;uTop/inAndOut.yaml.uInAndOut0/inAndOut.yaml</title>
<g id="a_edge6"><a xlink:title="dStuffIf(dSt) An interface of type rdyAck">
<path fill="none" stroke="black" d="M71.48,-36.1C75.59,-43.96 76.73,-53.46 74.91,-62.23"/>
<polygon fill="black" stroke="black" points="71.59,-61.1 71.58,-71.7 78.2,-63.42 71.59,-61.1"/>
</a>
</g>
</g>
</g>
</svg>
