<?xml version="1.0" encoding="UTF-8" standalone="no"?>
<!DOCTYPE svg PUBLIC "-//W3C//DTD SVG 1.1//EN"
 "http://www.w3.org/Graphics/SVG/1.1/DTD/svg11.dtd">
<!-- Generated by graphviz version 2.43.0 (0)
 -->
<!-- Title: %3 Pages: 1 -->
<svg width="130pt" height="116pt"
 viewBox="0.00 0.00 130.27 116.00" xmlns="http://www.w3.org/2000/svg" xmlns:xlink="http://www.w3.org/1999/xlink">
<g id="graph0" class="graph" transform="scale(1 1) rotate(0) translate(4 112)">
<title>%3</title>
<g id="a_graph0"><a xlink:title="uTop/inAndOut.yaml + depth 2">
<polygon fill="snow" stroke="transparent" points="-4,4 -4,-112 126.27,-112 126.27,4 -4,4"/>
</a>
</g>
<!-- uTop/inAndOut.yaml.uInAndOut0/inAndOut.yaml -->
<g id="node1" class="node">
<title>uTop/inAndOut.yaml.uInAndOut0/inAndOut.yaml</title>
<g id="a_node1"><a xlink:title="The block that has each interface type in and out to show both directions">
<polygon fill="orange" stroke="black" points="103.14,-108 19.14,-108 19.14,-72 103.14,-72 103.14,-108"/>
<text text-anchor="middle" x="61.14" y="-86.3" font-family="Times,serif" font-size="14.00">inAndOut</text>
</a>
</g>
</g>
<!-- uTop/inAndOut.yaml.uInAndOut1/inAndOut.yaml -->
<g id="node2" class="node">
<title>uTop/inAndOut.yaml.uInAndOut1/inAndOut.yaml</title>
<g id="a_node2"><a xlink:title="The block that has each interface type in and out to show both directions">
<polygon fill="green" stroke="black" points="103.14,-36 19.14,-36 19.14,0 103.14,0 103.14,-36"/>
<text text-anchor="middle" x="61.14" y="-14.3" font-family="Times,serif" font-size="14.00">inAndOut</text>
</a>
</g>
</g>
<!-- uTop/inAndOut.yaml.uInAndOut0/inAndOut.yaml&#45;&gt;uTop/inAndOut.yaml.uInAndOut1/inAndOut.yaml -->
<g id="edge1" class="edge">
<title>uTop/inAndOut.yaml.uInAndOut0/inAndOut.yaml&#45;&gt;uTop/inAndOut.yaml.uInAndOut1/inAndOut.yaml</title>
<g id="a_edge1"><a xlink:title="aStuffIf(aSt) An interface of type rdyVld">
<path fill="none" stroke="black" d="M19.08,-80.13C-2.45,-68.52 -5.38,-47.99 10.29,-33.95"/>
<polygon fill="black" stroke="black" points="12.6,-36.61 18.8,-28.01 8.6,-30.87 12.6,-36.61"/>
</a>
</g>
</g>
<!-- uTop/inAndOut.yaml.uInAndOut0/inAndOut.yaml&#45;&gt;uTop/inAndOut.yaml.uInAndOut1/inAndOut.yaml -->
<g id="edge3" class="edge">
<title>uTop/inAndOut.yaml.uInAndOut0/inAndOut.yaml&#45;&gt;uTop/inAndOut.yaml.uInAndOut1/inAndOut.yaml</title>
<g id="a_edge3"><a xlink:title="bStuffIf(bSt, bBSt) An interface of type reqAck">
<path fill="none" stroke="black" d="M31.56,-71.7C27.49,-63.81 26.4,-54.3 28.28,-45.55"/>
<polygon fill="black" stroke="black" points="31.58,-46.7 31.66,-36.1 24.99,-44.34 31.58,-46.7"/>
</a>
</g>
</g>
<!-- uTop/inAndOut.yaml.uInAndOut0/inAndOut.yaml&#45;&gt;uTop/inAndOut.yaml.uInAndOut1/inAndOut.yaml -->
<g id="edge5" class="edge">
<title>uTop/inAndOut.yaml.uInAndOut0/inAndOut.yaml&#45;&gt;uTop/inAndOut.yaml.uInAndOut1/inAndOut.yaml</title>
<g id="a_edge5"><a xlink:title="cStuffIf(seeSt) An interface of type status">
<path fill="none" stroke="black" d="M55.22,-71.7C54.42,-63.98 54.2,-54.71 54.54,-46.11"/>
<polygon fill="black" stroke="black" points="58.03,-46.32 55.24,-36.1 51.05,-45.84 58.03,-46.32"/>
</a>
</g>
</g>
<!-- uTop/inAndOut.yaml.uInAndOut0/inAndOut.yaml&#45;&gt;uTop/inAndOut.yaml.uInAndOut1/inAndOut.yaml -->
<g id="edge7" class="edge">
<title>uTop/inAndOut.yaml.uInAndOut0/inAndOut.yaml&#45;&gt;uTop/inAndOut.yaml.uInAndOut1/inAndOut.yaml</title>
<g id="a_edge7"><a xlink:title="dStuffIf(dSt) An interface of type rdyAck">
<path fill="none" stroke="black" d="M78.88,-71.7C81.27,-63.98 81.95,-54.71 80.92,-46.11"/>
<polygon fill="black" stroke="black" points="84.3,-45.17 78.82,-36.1 77.45,-46.61 84.3,-45.17"/>
</a>
</g>
</g>
<!-- uTop/inAndOut.yaml.uInAndOut0/inAndOut.yaml&#45;&gt;uTop/inAndOut.yaml.uInAndOut1/inAndOut.yaml -->
<g id="edge9" class="edge">
<title>uTop/inAndOut.yaml.uInAndOut0/inAndOut.yaml&#45;&gt;uTop/inAndOut.yaml.uInAndOut1/inAndOut.yaml</title>
<g id="a_edge9"><a xlink:title="eStuffIf(eNestedSt, eHeaderSt) An interface of type rdyVldBurst">
<path fill="none" stroke="black" d="M102.55,-71.7C108.3,-63.73 109.8,-54.1 107.05,-45.26"/>
<polygon fill="black" stroke="black" points="110.05,-43.44 102.4,-36.1 103.81,-46.61 110.05,-43.44"/>
</a>
</g>
</g>
<!-- uTop/inAndOut.yaml.uInAndOut1/inAndOut.yaml&#45;&gt;uTop/inAndOut.yaml.uInAndOut0/inAndOut.yaml -->
<g id="edge2" class="edge">
<title>uTop/inAndOut.yaml.uInAndOut1/inAndOut.yaml&#45;&gt;uTop/inAndOut.yaml.uInAndOut0/inAndOut.yaml</title>
<g id="a_edge2"><a xlink:title="aStuffIf(aSt) An interface of type rdyVld">
<path fill="none" stroke="black" d="M19.87,-36.1C14.05,-44.04 12.47,-53.67 15.15,-62.51"/>
<polygon fill="black" stroke="black" points="12.13,-64.31 19.73,-71.7 18.4,-61.19 12.13,-64.31"/>
</a>
</g>
</g>
<!-- uTop/inAndOut.yaml.uInAndOut1/inAndOut.yaml&#45;&gt;uTop/inAndOut.yaml.uInAndOut0/inAndOut.yaml -->
<g id="edge4" class="edge">
<title>uTop/inAndOut.yaml.uInAndOut1/inAndOut.yaml&#45;&gt;uTop/inAndOut.yaml.uInAndOut0/inAndOut.yaml</title>
<g id="a_edge4"><a xlink:title="bStuffIf(bSt, bBSt) An interface of type reqAck">
<path fill="none" stroke="black" d="M43.45,-36.1C41.03,-43.79 40.33,-53.05 41.32,-61.67"/>
<polygon fill="black" stroke="black" points="37.94,-62.61 43.39,-71.7 44.8,-61.2 37.94,-62.61"/>
</a>
</g>
</g>
<!-- uTop/inAndOut.yaml.uInAndOut1/inAndOut.yaml&#45;&gt;uTop/inAndOut.yaml.uInAndOut0/inAndOut.yaml -->
<g id="edge6" class="edge">
<title>uTop/inAndOut.yaml.uInAndOut1/inAndOut.yaml&#45;&gt;uTop/inAndOut.yaml.uInAndOut0/inAndOut.yaml</title>
<g id="a_edge6"><a xlink:title="cStuffIf(seeSt) An interface of type status">
<path fill="none" stroke="black" d="M67.03,-36.1C67.84,-43.79 68.07,-53.05 67.74,-61.67"/>
<polygon fill="black" stroke="black" points="64.24,-61.48 67.05,-71.7 71.23,-61.96 64.24,-61.48"/>
</a>
</g>
</g>
<!-- uTop/inAndOut.yaml.uInAndOut1/inAndOut.yaml&#45;&gt;uTop/inAndOut.yaml.uInAndOut0/inAndOut.yaml -->
<g id="edge8" class="edge">
<title>uTop/inAndOut.yaml.uInAndOut1/inAndOut.yaml&#45;&gt;uTop/inAndOut.yaml.uInAndOut0/inAndOut.yaml</title>
<g id="a_edge8"><a xlink:title="dStuffIf(dSt) An interface of type rdyAck">
<path fill="none" stroke="black" d="M90.61,-36.1C94.73,-43.96 95.87,-53.46 94.04,-62.23"/>
<polygon fill="black" stroke="black" points="90.73,-61.1 90.72,-71.7 97.33,-63.42 90.73,-61.1"/>
</a>
</g>
</g>
<!-- uTop/inAndOut.yaml.uInAndOut1/inAndOut.yaml&#45;&gt;uTop/inAndOut.yaml.uInAndOut0/inAndOut.yaml -->
<g id="edge10" class="edge">
<title>uTop/inAndOut.yaml.uInAndOut1/inAndOut.yaml&#45;&gt;uTop/inAndOut.yaml.uInAndOut0/inAndOut.yaml</title>
<g id="a_edge10"><a xlink:title="eStuffIf(eNestedSt, eHeaderSt) An interface of type rdyVldBurst">
<path fill="none" stroke="black" d="M103.47,-28.01C124.84,-39.7 127.61,-60.24 111.78,-74.23"/>
<polygon fill="black" stroke="black" points="109.45,-71.58 103.19,-80.13 113.42,-77.35 109.45,-71.58"/>
</a>
</g>
</g>
</g>
</svg>
