<?xml version="1.0" encoding="UTF-8" standalone="no"?>
<!DOCTYPE svg PUBLIC "-//W3C//DTD SVG 1.1//EN"
 "http://www.w3.org/Graphics/SVG/1.1/DTD/svg11.dtd">
<!-- Generated by graphviz version 2.43.0 (0)
 -->
<!-- Title: %3 Pages: 1 -->
<svg width="1425pt" height="679pt"
 viewBox="0.00 0.00 1425.00 679.00" xmlns="http://www.w3.org/2000/svg" xmlns:xlink="http://www.w3.org/1999/xlink">
<g id="graph0" class="graph" transform="scale(1 1) rotate(0) translate(4 675)">
<title>%3</title>
<g id="a_graph0"><a xlink:title="uTop/nestedTop.yaml + depth 6">
<polygon fill="snow" stroke="transparent" points="-4,4 -4,-675 1421,-675 1421,4 -4,4"/>
</a>
</g>
<g id="clust1" class="cluster">
<title>cluster_uTop/nestedTop.yaml.uTestTop/nestedTop.yaml</title>
<g id="a_clust1"><a xlink:title="Top for test blocks">
<polygon fill="snow" stroke="black" points="8,-8 8,-663 764,-663 764,-8 8,-8"/>
<text text-anchor="middle" x="386" y="-647.8" font-family="Times,serif" font-size="14.00">testContainer</text>
</a>
</g>
</g>
<g id="clust2" class="cluster">
<title>cluster_uTop/nestedTop.yaml.uTestTop/nestedTop.yaml.uSubBlockContainer0/nestedTop.yaml</title>
<g id="a_clust2"><a xlink:title="container of sub test blocks">
<polygon fill="snow" stroke="black" points="18,-16 18,-163 286,-163 286,-16 18,-16"/>
<text text-anchor="middle" x="152" y="-147.8" font-family="Times,serif" font-size="14.00">subBlockContainer</text>
</a>
</g>
</g>
<g id="clust3" class="cluster">
<title>cluster_uTop/nestedTop.yaml.uTestTop/nestedTop.yaml.uSubBlockContainer1/nestedTop.yaml</title>
<g id="a_clust3"><a xlink:title="container of sub test blocks">
<polygon fill="snow" stroke="black" points="362,-358 362,-632 630,-632 630,-358 362,-358"/>
<text text-anchor="middle" x="496" y="-616.8" font-family="Times,serif" font-size="14.00">subBlockContainer</text>
</a>
</g>
</g>
<g id="clust4" class="cluster">
<title>cluster_uTop/nestedTop.yaml.uTestTop/nestedTop.yaml.uSubBlockContainer2/nestedTop.yaml</title>
<g id="a_clust4"><a xlink:title="container of sub test blocks">
<polygon fill="snow" stroke="black" points="374,-171 374,-318 642,-318 642,-171 374,-171"/>
<text text-anchor="middle" x="508" y="-302.8" font-family="Times,serif" font-size="14.00">subBlockContainer</text>
</a>
</g>
</g>
<g id="clust5" class="cluster">
<title>cluster_uTop/nestedTop.yaml.uTestTop/nestedTop.yaml.uSecond/nestedTop.yaml</title>
<g id="a_clust5"><a xlink:title="middle Block">
<polygon fill="snow" stroke="black" points="110,-358 110,-632 354,-632 354,-358 110,-358"/>
<text text-anchor="middle" x="232" y="-616.8" font-family="Times,serif" font-size="14.00">secondBlock</text>
</a>
</g>
</g>
<g id="clust6" class="cluster">
<title>cluster_uTop/nestedTop.yaml.uNestedL1/nestedTop.yaml</title>
<g id="a_clust6"><a xlink:title="Nested mapping test case L1">
<polygon fill="snow" stroke="black" points="772,-326 772,-557 1409,-557 1409,-326 772,-326"/>
<text text-anchor="middle" x="1090.5" y="-541.8" font-family="Times,serif" font-size="14.00">nestedL1</text>
</a>
</g>
</g>
<g id="clust7" class="cluster">
<title>cluster_uTop/nestedTop.yaml.uNestedL1/nestedTop.yaml.uNestedL2/nestedTop.yaml</title>
<g id="a_clust7"><a xlink:title="Nested mapping test case L2">
<polygon fill="snow" stroke="black" points="873,-334 873,-526 1401,-526 1401,-334 873,-334"/>
<text text-anchor="middle" x="1137" y="-510.8" font-family="Times,serif" font-size="14.00">nestedL2</text>
</a>
</g>
</g>
<g id="clust8" class="cluster">
<title>cluster_uTop/nestedTop.yaml.uNestedL1/nestedTop.yaml.uNestedL2/nestedTop.yaml.uNestedL3/nestedTop.yaml</title>
<g id="a_clust8"><a xlink:title="Nested mapping test case L3">
<polygon fill="snow" stroke="black" points="974,-342 974,-495 1393,-495 1393,-342 974,-342"/>
<text text-anchor="middle" x="1183.5" y="-479.8" font-family="Times,serif" font-size="14.00">nestedL3</text>
</a>
</g>
</g>
<g id="clust9" class="cluster">
<title>cluster_uTop/nestedTop.yaml.uNestedL1/nestedTop.yaml.uNestedL2/nestedTop.yaml.uNestedL3/nestedTop.yaml.uNestedL4/nestedTop.yaml</title>
<g id="a_clust9"><a xlink:title="Nested mapping test case L4">
<polygon fill="snow" stroke="black" points="1075,-350 1075,-464 1385,-464 1385,-350 1075,-350"/>
<text text-anchor="middle" x="1230" y="-448.8" font-family="Times,serif" font-size="14.00">nestedL4</text>
</a>
</g>
</g>
<g id="clust10" class="cluster">
<title>cluster_uTop/nestedTop.yaml.uNestedL1/nestedTop.yaml.uNestedL2/nestedTop.yaml.uNestedL3/nestedTop.yaml.uNestedL4/nestedTop.yaml.uNestedL5/nestedTop.yaml</title>
<g id="a_clust10"><a xlink:title="Nested mapping test case L5">
<polygon fill="snow" stroke="black" points="1176,-358 1176,-433 1377,-433 1377,-358 1176,-358"/>
<text text-anchor="middle" x="1276.5" y="-417.8" font-family="Times,serif" font-size="14.00">nestedL5</text>
</a>
</g>
</g>
<!-- uTop/nestedTop.yaml.uTestTop/nestedTop.yaml -->
<!-- uTop/nestedTop.yaml.uNestedL1/nestedTop.yaml.uNestedL2/nestedTop.yaml.uNestedL3/nestedTop.yaml.uNestedL4/nestedTop.yaml.uNestedL5/nestedTop.yaml.uNestedL6/nestedTop.yaml -->
<g id="node25" class="node">
<title>uTop/nestedTop.yaml.uNestedL1/nestedTop.yaml.uNestedL2/nestedTop.yaml.uNestedL3/nestedTop.yaml.uNestedL4/nestedTop.yaml.uNestedL5/nestedTop.yaml.uNestedL6/nestedTop.yaml</title>
<g id="a_node25"><a xlink:title="Nested mapping test case L6">
<polygon fill="white" stroke="black" points="1267.5,-402 1184.5,-402 1184.5,-366 1267.5,-366 1267.5,-402"/>
<text text-anchor="middle" x="1226" y="-380.3" font-family="Times,serif" font-size="14.00">nestedL6</text>
</a>
</g>
</g>
<!-- uTop/nestedTop.yaml.uTestTop/nestedTop.yaml&#45;&gt;uTop/nestedTop.yaml.uNestedL1/nestedTop.yaml.uNestedL2/nestedTop.yaml.uNestedL3/nestedTop.yaml.uNestedL4/nestedTop.yaml.uNestedL5/nestedTop.yaml.uNestedL6/nestedTop.yaml -->
<g id="edge1" class="edge">
<title>uTop/nestedTop.yaml.uTestTop/nestedTop.yaml&#45;&gt;uTop/nestedTop.yaml.uNestedL1/nestedTop.yaml.uNestedL2/nestedTop.yaml.uNestedL3/nestedTop.yaml.uNestedL4/nestedTop.yaml.uNestedL5/nestedTop.yaml.uNestedL6/nestedTop.yaml</title>
<g id="a_edge1"><a xlink:title="test(test_st) Test interface">
<path fill="none" stroke="black" d="M755.82,-580.82C880.5,-578.02 1164.76,-570.22 1181,-557 1224.1,-521.91 1228.83,-451.08 1227.85,-412.16"/>
<polygon fill="black" stroke="black" points="1231.34,-411.93 1227.45,-402.08 1224.35,-412.21 1231.34,-411.93"/>
</a>
</g>
</g>
<!-- uTop/nestedTop.yaml.uTestTop/nestedTop.yaml.uTestBlock0/nestedTop.yaml -->
<g id="node2" class="node">
<title>uTop/nestedTop.yaml.uTestTop/nestedTop.yaml.uTestBlock0/nestedTop.yaml</title>
<g id="a_node2"><a xlink:title="Top test block">
<polygon fill="white" stroke="black" points="236.5,-215 153.5,-215 153.5,-179 236.5,-179 236.5,-215"/>
<text text-anchor="middle" x="195" y="-193.3" font-family="Times,serif" font-size="14.00">testBlock</text>
</a>
</g>
</g>
<!-- uTop/nestedTop.yaml.uTestTop/nestedTop.yaml.uTestBlock1/nestedTop.yaml -->
<g id="node3" class="node">
<title>uTop/nestedTop.yaml.uTestTop/nestedTop.yaml.uTestBlock1/nestedTop.yaml</title>
<g id="a_node3"><a xlink:title="Top test block">
<polygon fill="white" stroke="black" points="402.5,-132 319.5,-132 319.5,-96 402.5,-96 402.5,-132"/>
<text text-anchor="middle" x="361" y="-110.3" font-family="Times,serif" font-size="14.00">testBlock</text>
</a>
</g>
</g>
<!-- uTop/nestedTop.yaml.uTestTop/nestedTop.yaml.uTestBlock0/nestedTop.yaml&#45;&gt;uTop/nestedTop.yaml.uTestTop/nestedTop.yaml.uTestBlock1/nestedTop.yaml -->
<g id="edge2" class="edge">
<title>uTop/nestedTop.yaml.uTestTop/nestedTop.yaml.uTestBlock0/nestedTop.yaml&#45;&gt;uTop/nestedTop.yaml.uTestTop/nestedTop.yaml.uTestBlock1/nestedTop.yaml</title>
<g id="a_edge2"><a xlink:title="test(test_st) Test interface">
<path fill="none" stroke="black" d="M217.12,-178.93C223.41,-175.9 230.31,-173.06 237,-171 261.03,-163.6 269.97,-173.08 293,-163 306.11,-157.26 318.69,-147.78 329.53,-138.75"/>
<polygon fill="black" stroke="black" points="332.11,-141.15 337.46,-132.01 327.57,-135.82 332.11,-141.15"/>
</a>
</g>
</g>
<!-- uTop/nestedTop.yaml.uTestTop/nestedTop.yaml.uSubBlockContainer0/nestedTop.yaml.uSubBlock0/nestedTop.yaml -->
<g id="node5" class="node">
<title>uTop/nestedTop.yaml.uTestTop/nestedTop.yaml.uSubBlockContainer0/nestedTop.yaml.uSubBlock0/nestedTop.yaml</title>
<g id="a_node5"><a xlink:title="sub test block">
<polygon fill="white" stroke="black" points="107.5,-132 26.5,-132 26.5,-96 107.5,-96 107.5,-132"/>
<text text-anchor="middle" x="67" y="-110.3" font-family="Times,serif" font-size="14.00">subBlock</text>
</a>
</g>
</g>
<!-- uTop/nestedTop.yaml.uTestTop/nestedTop.yaml.uTestBlock0/nestedTop.yaml&#45;&gt;uTop/nestedTop.yaml.uTestTop/nestedTop.yaml.uSubBlockContainer0/nestedTop.yaml.uSubBlock0/nestedTop.yaml -->
<g id="edge4" class="edge">
<title>uTop/nestedTop.yaml.uTestTop/nestedTop.yaml.uTestBlock0/nestedTop.yaml&#45;&gt;uTop/nestedTop.yaml.uTestTop/nestedTop.yaml.uSubBlockContainer0/nestedTop.yaml.uSubBlock0/nestedTop.yaml</title>
<g id="a_edge4"><a xlink:title="test(test_st) Test interface">
<path fill="none" stroke="black" d="M153.49,-181.72C141.26,-176.66 128.17,-170.36 117,-163 107,-156.41 97.22,-147.69 88.99,-139.49"/>
<polygon fill="black" stroke="black" points="91.39,-136.93 81.92,-132.18 86.36,-141.8 91.39,-136.93"/>
</a>
</g>
</g>
<!-- uTop/nestedTop.yaml.uTestTop/nestedTop.yaml.uTestBlock1/nestedTop.yaml&#45;&gt;uTop/nestedTop.yaml.uTestTop/nestedTop.yaml.uTestBlock0/nestedTop.yaml -->
<g id="edge3" class="edge">
<title>uTop/nestedTop.yaml.uTestTop/nestedTop.yaml.uTestBlock1/nestedTop.yaml&#45;&gt;uTop/nestedTop.yaml.uTestTop/nestedTop.yaml.uTestBlock0/nestedTop.yaml</title>
<g id="a_edge3"><a xlink:title="test(test_st) Test interface">
<path fill="none" stroke="black" d="M352.76,-132.01C343.08,-142.7 327.45,-155.8 311,-163 287.97,-173.08 279.03,-163.6 255,-171 251.45,-172.1 247.83,-173.41 244.22,-174.86"/>
<polygon fill="black" stroke="black" points="242.54,-171.77 234.73,-178.93 245.3,-178.2 242.54,-171.77"/>
</a>
</g>
</g>
<!-- uTop/nestedTop.yaml.uTestTop/nestedTop.yaml.uSubBlockContainer1/nestedTop.yaml.uSubBlock0/nestedTop.yaml -->
<g id="node8" class="node">
<title>uTop/nestedTop.yaml.uTestTop/nestedTop.yaml.uSubBlockContainer1/nestedTop.yaml.uSubBlock0/nestedTop.yaml</title>
<g id="a_node8"><a xlink:title="sub test block">
<polygon fill="white" stroke="black" points="451.5,-601 370.5,-601 370.5,-565 451.5,-565 451.5,-601"/>
<text text-anchor="middle" x="411" y="-579.3" font-family="Times,serif" font-size="14.00">subBlock</text>
</a>
</g>
</g>
<!-- uTop/nestedTop.yaml.uTestTop/nestedTop.yaml.uTestBlock1/nestedTop.yaml&#45;&gt;uTop/nestedTop.yaml.uTestTop/nestedTop.yaml.uSubBlockContainer1/nestedTop.yaml.uSubBlock0/nestedTop.yaml -->
<g id="edge6" class="edge">
<title>uTop/nestedTop.yaml.uTestTop/nestedTop.yaml.uTestBlock1/nestedTop.yaml&#45;&gt;uTop/nestedTop.yaml.uTestTop/nestedTop.yaml.uSubBlockContainer1/nestedTop.yaml.uSubBlock0/nestedTop.yaml</title>
<g id="a_edge6"><a xlink:title="test(test_st) Test interface">
<path fill="none" stroke="black" d="M360.59,-132.23C358.96,-205.12 353.86,-487.27 376,-555.45"/>
<polygon fill="black" stroke="black" points="372.82,-556.94 379.95,-564.78 379.27,-554.21 372.82,-556.94"/>
</a>
</g>
</g>
<!-- uTop/nestedTop.yaml.uTestTop/nestedTop.yaml.uSubBlockContainer0/nestedTop.yaml -->
<!-- uTop/nestedTop.yaml.uTestTop/nestedTop.yaml.uSubBlockContainer0/nestedTop.yaml.uSubBlock1/nestedTop.yaml -->
<g id="node6" class="node">
<title>uTop/nestedTop.yaml.uTestTop/nestedTop.yaml.uSubBlockContainer0/nestedTop.yaml.uSubBlock1/nestedTop.yaml</title>
<g id="a_node6"><a xlink:title="sub test block">
<polygon fill="white" stroke="black" points="192.5,-60 111.5,-60 111.5,-24 192.5,-24 192.5,-60"/>
<text text-anchor="middle" x="152" y="-38.3" font-family="Times,serif" font-size="14.00">subBlock</text>
</a>
</g>
</g>
<!-- uTop/nestedTop.yaml.uTestTop/nestedTop.yaml.uSubBlockContainer0/nestedTop.yaml.uSubBlock0/nestedTop.yaml&#45;&gt;uTop/nestedTop.yaml.uTestTop/nestedTop.yaml.uSubBlockContainer0/nestedTop.yaml.uSubBlock1/nestedTop.yaml -->
<g id="edge18" class="edge">
<title>uTop/nestedTop.yaml.uTestTop/nestedTop.yaml.uSubBlockContainer0/nestedTop.yaml.uSubBlock0/nestedTop.yaml&#45;&gt;uTop/nestedTop.yaml.uTestTop/nestedTop.yaml.uSubBlockContainer0/nestedTop.yaml.uSubBlock1/nestedTop.yaml</title>
<g id="a_edge18"><a xlink:title="test(test_st) Test interface">
<path fill="none" stroke="black" d="M88.01,-95.7C98.72,-86.88 111.89,-76.03 123.5,-66.47"/>
<polygon fill="black" stroke="black" points="125.74,-69.16 131.23,-60.1 121.29,-63.76 125.74,-69.16"/>
</a>
</g>
</g>
<!-- uTop/nestedTop.yaml.uTestTop/nestedTop.yaml.uSubBlockContainer0/nestedTop.yaml.uSubBlock1/nestedTop.yaml&#45;&gt;uTop/nestedTop.yaml.uTestTop/nestedTop.yaml.uTestBlock0/nestedTop.yaml -->
<g id="edge5" class="edge">
<title>uTop/nestedTop.yaml.uTestTop/nestedTop.yaml.uSubBlockContainer0/nestedTop.yaml.uSubBlock1/nestedTop.yaml&#45;&gt;uTop/nestedTop.yaml.uTestTop/nestedTop.yaml.uTestBlock0/nestedTop.yaml</title>
<g id="a_edge5"><a xlink:title="test(test_st) Test interface">
<path fill="none" stroke="black" d="M192.6,-46.9C224.17,-52.31 266.01,-65.21 287,-96 303.77,-120.6 305.93,-140.02 287,-163 275.2,-177.33 263.6,-165.09 246,-171 242.67,-172.12 239.29,-173.41 235.92,-174.8"/>
<polygon fill="black" stroke="black" points="234.29,-171.7 226.56,-178.94 237.12,-178.1 234.29,-171.7"/>
</a>
</g>
</g>
<!-- uTop/nestedTop.yaml.uTestTop/nestedTop.yaml.uSubBlockContainer1/nestedTop.yaml -->
<!-- uTop/nestedTop.yaml.uTestTop/nestedTop.yaml.uSubBlockContainer1/nestedTop.yaml.uSubBlock1/nestedTop.yaml -->
<g id="node9" class="node">
<title>uTop/nestedTop.yaml.uTestTop/nestedTop.yaml.uSubBlockContainer1/nestedTop.yaml.uSubBlock1/nestedTop.yaml</title>
<g id="a_node9"><a xlink:title="sub test block">
<polygon fill="white" stroke="black" points="463.5,-402 382.5,-402 382.5,-366 463.5,-366 463.5,-402"/>
<text text-anchor="middle" x="423" y="-380.3" font-family="Times,serif" font-size="14.00">subBlock</text>
</a>
</g>
</g>
<!-- uTop/nestedTop.yaml.uTestTop/nestedTop.yaml.uSubBlockContainer1/nestedTop.yaml.uSubBlock0/nestedTop.yaml&#45;&gt;uTop/nestedTop.yaml.uTestTop/nestedTop.yaml.uSubBlockContainer1/nestedTop.yaml.uSubBlock1/nestedTop.yaml -->
<g id="edge19" class="edge">
<title>uTop/nestedTop.yaml.uTestTop/nestedTop.yaml.uSubBlockContainer1/nestedTop.yaml.uSubBlock0/nestedTop.yaml&#45;&gt;uTop/nestedTop.yaml.uTestTop/nestedTop.yaml.uSubBlockContainer1/nestedTop.yaml.uSubBlock1/nestedTop.yaml</title>
<g id="a_edge19"><a xlink:title="test(test_st) Test interface">
<path fill="none" stroke="black" d="M412.04,-564.86C414.13,-530.66 418.82,-453.69 421.33,-412.4"/>
<polygon fill="black" stroke="black" points="424.84,-412.43 421.95,-402.24 417.85,-412.01 424.84,-412.43"/>
</a>
</g>
</g>
<!-- uTop/nestedTop.yaml.uTestTop/nestedTop.yaml.uSubBlockContainer2/nestedTop.yaml.uSubBlock0/nestedTop.yaml -->
<g id="node11" class="node">
<title>uTop/nestedTop.yaml.uTestTop/nestedTop.yaml.uSubBlockContainer2/nestedTop.yaml.uSubBlock0/nestedTop.yaml</title>
<g id="a_node11"><a xlink:title="sub test block">
<polygon fill="white" stroke="black" points="463.5,-287 382.5,-287 382.5,-251 463.5,-251 463.5,-287"/>
<text text-anchor="middle" x="423" y="-265.3" font-family="Times,serif" font-size="14.00">subBlock</text>
</a>
</g>
</g>
<!-- uTop/nestedTop.yaml.uTestTop/nestedTop.yaml.uSubBlockContainer1/nestedTop.yaml.uSubBlock1/nestedTop.yaml&#45;&gt;uTop/nestedTop.yaml.uTestTop/nestedTop.yaml.uSubBlockContainer2/nestedTop.yaml.uSubBlock0/nestedTop.yaml -->
<g id="edge7" class="edge">
<title>uTop/nestedTop.yaml.uTestTop/nestedTop.yaml.uSubBlockContainer1/nestedTop.yaml.uSubBlock1/nestedTop.yaml&#45;&gt;uTop/nestedTop.yaml.uTestTop/nestedTop.yaml.uSubBlockContainer2/nestedTop.yaml.uSubBlock0/nestedTop.yaml</title>
<g id="a_edge7"><a xlink:title="test(test_st) Test interface">
<path fill="none" stroke="black" d="M423,-365.84C423,-347.67 423,-318.72 423,-297.39"/>
<polygon fill="black" stroke="black" points="426.5,-297.32 423,-287.32 419.5,-297.32 426.5,-297.32"/>
</a>
</g>
</g>
<!-- uTop/nestedTop.yaml.uTestTop/nestedTop.yaml.uSubBlockContainer2/nestedTop.yaml -->
<!-- uTop/nestedTop.yaml.uTestTop/nestedTop.yaml.uSubBlockContainer2/nestedTop.yaml.uSubBlock1/nestedTop.yaml -->
<g id="node12" class="node">
<title>uTop/nestedTop.yaml.uTestTop/nestedTop.yaml.uSubBlockContainer2/nestedTop.yaml.uSubBlock1/nestedTop.yaml</title>
<g id="a_node12"><a xlink:title="sub test block">
<polygon fill="white" stroke="black" points="463.5,-215 382.5,-215 382.5,-179 463.5,-179 463.5,-215"/>
<text text-anchor="middle" x="423" y="-193.3" font-family="Times,serif" font-size="14.00">subBlock</text>
</a>
</g>
</g>
<!-- uTop/nestedTop.yaml.uTestTop/nestedTop.yaml.uSubBlockContainer2/nestedTop.yaml.uSubBlock0/nestedTop.yaml&#45;&gt;uTop/nestedTop.yaml.uTestTop/nestedTop.yaml.uSubBlockContainer2/nestedTop.yaml.uSubBlock1/nestedTop.yaml -->
<g id="edge20" class="edge">
<title>uTop/nestedTop.yaml.uTestTop/nestedTop.yaml.uSubBlockContainer2/nestedTop.yaml.uSubBlock0/nestedTop.yaml&#45;&gt;uTop/nestedTop.yaml.uTestTop/nestedTop.yaml.uSubBlockContainer2/nestedTop.yaml.uSubBlock1/nestedTop.yaml</title>
<g id="a_edge20"><a xlink:title="test(test_st) Test interface">
<path fill="none" stroke="black" d="M423,-250.7C423,-242.98 423,-233.71 423,-225.11"/>
<polygon fill="black" stroke="black" points="426.5,-225.1 423,-215.1 419.5,-225.1 426.5,-225.1"/>
</a>
</g>
</g>
<!-- uTop/nestedTop.yaml.uTestTop/nestedTop.yaml.uSubBlockContainer2/nestedTop.yaml.uSubBlock1/nestedTop.yaml&#45;&gt;uTop/nestedTop.yaml.uTestTop/nestedTop.yaml.uTestBlock1/nestedTop.yaml -->
<g id="edge8" class="edge">
<title>uTop/nestedTop.yaml.uTestTop/nestedTop.yaml.uSubBlockContainer2/nestedTop.yaml.uSubBlock1/nestedTop.yaml&#45;&gt;uTop/nestedTop.yaml.uTestTop/nestedTop.yaml.uTestBlock1/nestedTop.yaml</title>
<g id="a_edge8"><a xlink:title="test(test_st) Test interface">
<path fill="none" stroke="black" d="M409.85,-178.82C401.3,-167.65 390.01,-152.9 380.43,-140.38"/>
<polygon fill="black" stroke="black" points="382.99,-137.97 374.13,-132.15 377.43,-142.22 382.99,-137.97"/>
</a>
</g>
</g>
<!-- uTop/nestedTop.yaml.uTestTop/nestedTop.yaml.uFirst/nestedTop.yaml -->
<g id="node13" class="node">
<title>uTop/nestedTop.yaml.uTestTop/nestedTop.yaml.uFirst/nestedTop.yaml</title>
<g id="a_node13"><a xlink:title="initiator">
<polygon fill="white" stroke="black" points="339.5,-215 254.5,-215 254.5,-179 339.5,-179 339.5,-215"/>
<text text-anchor="middle" x="297" y="-193.3" font-family="Times,serif" font-size="14.00">firstBlock</text>
</a>
</g>
</g>
<!-- uTop/nestedTop.yaml.uTestTop/nestedTop.yaml.uSecond/nestedTop.yaml.uSecondSubA/nestedTop.yaml -->
<g id="node15" class="node">
<title>uTop/nestedTop.yaml.uTestTop/nestedTop.yaml.uSecond/nestedTop.yaml.uSecondSubA/nestedTop.yaml</title>
<g id="a_node15"><a xlink:title="sub block A of second">
<polygon fill="white" stroke="black" points="222,-601 118,-601 118,-565 222,-565 222,-601"/>
<text text-anchor="middle" x="170" y="-579.3" font-family="Times,serif" font-size="14.00">secondSubA</text>
</a>
</g>
</g>
<!-- uTop/nestedTop.yaml.uTestTop/nestedTop.yaml.uFirst/nestedTop.yaml&#45;&gt;uTop/nestedTop.yaml.uTestTop/nestedTop.yaml.uSecond/nestedTop.yaml.uSecondSubA/nestedTop.yaml -->
<g id="edge9" class="edge">
<title>uTop/nestedTop.yaml.uTestTop/nestedTop.yaml.uFirst/nestedTop.yaml&#45;&gt;uTop/nestedTop.yaml.uTestTop/nestedTop.yaml.uSecond/nestedTop.yaml.uSecondSubA/nestedTop.yaml</title>
<g id="a_edge9"><a xlink:title="alpha(test_st) Test interface alpha">
<path fill="none" stroke="black" d="M259.28,-215.17C244.05,-223.87 227.6,-235.85 217,-251 150.58,-345.91 159.16,-494.01 166.16,-554.68"/>
<polygon fill="black" stroke="black" points="162.73,-555.47 167.44,-564.96 169.68,-554.61 162.73,-555.47"/>
</a>
</g>
</g>
<!-- uTop/nestedTop.yaml.uTestTop/nestedTop.yaml.uSecond/nestedTop.yaml -->
<!-- uTop/nestedTop.yaml.uTestTop/nestedTop.yaml.uSecond/nestedTop.yaml.uSecondSubB/nestedTop.yaml -->
<g id="node16" class="node">
<title>uTop/nestedTop.yaml.uTestTop/nestedTop.yaml.uSecond/nestedTop.yaml.uSecondSubB/nestedTop.yaml</title>
<g id="a_node16"><a xlink:title="sub block B of second">
<polygon fill="white" stroke="black" points="312,-402 208,-402 208,-366 312,-366 312,-402"/>
<text text-anchor="middle" x="260" y="-380.3" font-family="Times,serif" font-size="14.00">secondSubB</text>
</a>
</g>
</g>
<!-- uTop/nestedTop.yaml.uTestTop/nestedTop.yaml.uSecond/nestedTop.yaml.uSecondSubA/nestedTop.yaml&#45;&gt;uTop/nestedTop.yaml.uTestTop/nestedTop.yaml.uSecond/nestedTop.yaml.uSecondSubB/nestedTop.yaml -->
<g id="edge21" class="edge">
<title>uTop/nestedTop.yaml.uTestTop/nestedTop.yaml.uSecond/nestedTop.yaml.uSecondSubA/nestedTop.yaml&#45;&gt;uTop/nestedTop.yaml.uTestTop/nestedTop.yaml.uSecond/nestedTop.yaml.uSecondSubB/nestedTop.yaml</title>
<g id="a_edge21"><a xlink:title="test(test_st) Test interface">
<path fill="none" stroke="black" d="M196.78,-564.95C199.46,-562.51 201.94,-559.85 204,-557 236.17,-512.48 250.52,-448.51 256.39,-412.44"/>
<polygon fill="black" stroke="black" points="259.9,-412.61 257.94,-402.2 252.98,-411.56 259.9,-412.61"/>
</a>
</g>
</g>
<!-- uTop/nestedTop.yaml.uTestTop/nestedTop.yaml.uLast/nestedTop.yaml -->
<g id="node17" class="node">
<title>uTop/nestedTop.yaml.uTestTop/nestedTop.yaml.uLast/nestedTop.yaml</title>
<g id="a_node17"><a xlink:title="last block">
<polygon fill="white" stroke="black" points="308,-287 226,-287 226,-251 308,-251 308,-287"/>
<text text-anchor="middle" x="267" y="-265.3" font-family="Times,serif" font-size="14.00">lastBlock</text>
</a>
</g>
</g>
<!-- uTop/nestedTop.yaml.uTestTop/nestedTop.yaml.uSecond/nestedTop.yaml.uSecondSubB/nestedTop.yaml&#45;&gt;uTop/nestedTop.yaml.uTestTop/nestedTop.yaml.uLast/nestedTop.yaml -->
<g id="edge10" class="edge">
<title>uTop/nestedTop.yaml.uTestTop/nestedTop.yaml.uSecond/nestedTop.yaml.uSecondSubB/nestedTop.yaml&#45;&gt;uTop/nestedTop.yaml.uTestTop/nestedTop.yaml.uLast/nestedTop.yaml</title>
<g id="a_edge10"><a xlink:title="beta(test_st) Test interface beta">
<path fill="none" stroke="black" d="M261.06,-365.84C262.19,-347.67 263.98,-318.72 265.3,-297.39"/>
<polygon fill="black" stroke="black" points="268.8,-297.52 265.93,-287.32 261.82,-297.09 268.8,-297.52"/>
</a>
</g>
</g>
<!-- uTop/nestedTop.yaml.uTestTop/nestedTop.yaml.uLast/nestedTop.yaml&#45;&gt;uTop/nestedTop.yaml.uTestTop/nestedTop.yaml.uFirst/nestedTop.yaml -->
<g id="edge11" class="edge">
<title>uTop/nestedTop.yaml.uTestTop/nestedTop.yaml.uLast/nestedTop.yaml&#45;&gt;uTop/nestedTop.yaml.uTestTop/nestedTop.yaml.uFirst/nestedTop.yaml</title>
<g id="a_edge11"><a xlink:title="gamma(test_st) Test interface gamma">
<path fill="none" stroke="black" d="M274.42,-250.7C277.79,-242.81 281.87,-233.3 285.62,-224.55"/>
<polygon fill="black" stroke="black" points="288.95,-225.67 289.67,-215.1 282.51,-222.92 288.95,-225.67"/>
</a>
</g>
</g>
<!-- uTop/nestedTop.yaml.uTestTop/nestedTop.yaml.uProducer/nestedTop.yaml -->
<g id="node18" class="node">
<title>uTop/nestedTop.yaml.uTestTop/nestedTop.yaml.uProducer/nestedTop.yaml</title>
<g id="a_node18"><a xlink:title="producer test block">
<polygon fill="white" stroke="black" points="99.5,-601 18.5,-601 18.5,-565 99.5,-565 99.5,-601"/>
<text text-anchor="middle" x="59" y="-579.3" font-family="Times,serif" font-size="14.00">producer</text>
</a>
</g>
</g>
<!-- uTop/nestedTop.yaml.uTestTop/nestedTop.yaml.uConsumer/nestedTop.yaml -->
<g id="node19" class="node">
<title>uTop/nestedTop.yaml.uTestTop/nestedTop.yaml.uConsumer/nestedTop.yaml</title>
<g id="a_node19"><a xlink:title="consumer test block">
<polygon fill="white" stroke="black" points="102,-402 16,-402 16,-366 102,-366 102,-402"/>
<text text-anchor="middle" x="59" y="-380.3" font-family="Times,serif" font-size="14.00">consumer</text>
</a>
</g>
</g>
<!-- uTop/nestedTop.yaml.uTestTop/nestedTop.yaml.uProducer/nestedTop.yaml&#45;&gt;uTop/nestedTop.yaml.uTestTop/nestedTop.yaml.uConsumer/nestedTop.yaml -->
<g id="edge12" class="edge">
<title>uTop/nestedTop.yaml.uTestTop/nestedTop.yaml.uProducer/nestedTop.yaml&#45;&gt;uTop/nestedTop.yaml.uTestTop/nestedTop.yaml.uConsumer/nestedTop.yaml</title>
<g id="a_edge12"><a xlink:title="testrvTracker(testDataSt) Data path test interface">
<path fill="none" stroke="black" d="M38.93,-564.86C22.09,-530.44 20.8,-452.7 35.04,-411.61"/>
<polygon fill="black" stroke="black" points="38.33,-412.82 38.88,-402.24 31.85,-410.16 38.33,-412.82"/>
</a>
</g>
</g>
<!-- uTop/nestedTop.yaml.uTestTop/nestedTop.yaml.uProducer/nestedTop.yaml&#45;&gt;uTop/nestedTop.yaml.uTestTop/nestedTop.yaml.uConsumer/nestedTop.yaml -->
<g id="edge13" class="edge">
<title>uTop/nestedTop.yaml.uTestTop/nestedTop.yaml.uProducer/nestedTop.yaml&#45;&gt;uTop/nestedTop.yaml.uTestTop/nestedTop.yaml.uConsumer/nestedTop.yaml</title>
<g id="a_edge13"><a xlink:title="testrvTracker(testDataSt) Data path test interface">
<path fill="none" stroke="black" d="M46.96,-564.86C36.9,-530.59 36.09,-453.36 44.52,-412.13"/>
<polygon fill="black" stroke="black" points="47.96,-412.78 46.93,-402.24 41.16,-411.12 47.96,-412.78"/>
</a>
</g>
</g>
<!-- uTop/nestedTop.yaml.uTestTop/nestedTop.yaml.uProducer/nestedTop.yaml&#45;&gt;uTop/nestedTop.yaml.uTestTop/nestedTop.yaml.uConsumer/nestedTop.yaml -->
<g id="edge14" class="edge">
<title>uTop/nestedTop.yaml.uTestTop/nestedTop.yaml.uProducer/nestedTop.yaml&#45;&gt;uTop/nestedTop.yaml.uTestTop/nestedTop.yaml.uConsumer/nestedTop.yaml</title>
<g id="a_edge14"><a xlink:title="testrvTracker(testDataSt) Data path test interface">
<path fill="none" stroke="black" d="M54.99,-564.86C51.64,-530.66 51.36,-453.69 54.15,-412.4"/>
<polygon fill="black" stroke="black" points="57.66,-412.49 54.98,-402.24 50.68,-411.92 57.66,-412.49"/>
</a>
</g>
</g>
<!-- uTop/nestedTop.yaml.uTestTop/nestedTop.yaml.uProducer/nestedTop.yaml&#45;&gt;uTop/nestedTop.yaml.uTestTop/nestedTop.yaml.uConsumer/nestedTop.yaml -->
<g id="edge15" class="edge">
<title>uTop/nestedTop.yaml.uTestTop/nestedTop.yaml.uProducer/nestedTop.yaml&#45;&gt;uTop/nestedTop.yaml.uTestTop/nestedTop.yaml.uConsumer/nestedTop.yaml</title>
<g id="a_edge15"><a xlink:title="testrvSize(testDataSt) Data path test interface">
<path fill="none" stroke="black" d="M63.01,-564.86C66.36,-530.66 66.64,-453.69 63.85,-412.4"/>
<polygon fill="black" stroke="black" points="67.32,-411.92 63.02,-402.24 60.34,-412.49 67.32,-411.92"/>
</a>
</g>
</g>
<!-- uTop/nestedTop.yaml.uTestTop/nestedTop.yaml.uProducer/nestedTop.yaml&#45;&gt;uTop/nestedTop.yaml.uTestTop/nestedTop.yaml.uConsumer/nestedTop.yaml -->
<g id="edge16" class="edge">
<title>uTop/nestedTop.yaml.uTestTop/nestedTop.yaml.uProducer/nestedTop.yaml&#45;&gt;uTop/nestedTop.yaml.uTestTop/nestedTop.yaml.uConsumer/nestedTop.yaml</title>
<g id="a_edge16"><a xlink:title="testrvSize(testDataSt) Data path test interface">
<path fill="none" stroke="black" d="M71.04,-564.86C81.1,-530.59 81.91,-453.36 73.48,-412.13"/>
<polygon fill="black" stroke="black" points="76.84,-411.12 71.07,-402.24 70.04,-412.78 76.84,-411.12"/>
</a>
</g>
</g>
<!-- uTop/nestedTop.yaml.uTestTop/nestedTop.yaml.uProducer/nestedTop.yaml&#45;&gt;uTop/nestedTop.yaml.uTestTop/nestedTop.yaml.uConsumer/nestedTop.yaml -->
<g id="edge17" class="edge">
<title>uTop/nestedTop.yaml.uTestTop/nestedTop.yaml.uProducer/nestedTop.yaml&#45;&gt;uTop/nestedTop.yaml.uTestTop/nestedTop.yaml.uConsumer/nestedTop.yaml</title>
<g id="a_edge17"><a xlink:title="testrvSize(testDataSt) Data path test interface">
<path fill="none" stroke="black" d="M79.07,-564.86C95.91,-530.44 97.2,-452.7 82.96,-411.61"/>
<polygon fill="black" stroke="black" points="86.15,-410.16 79.12,-402.24 79.67,-412.82 86.15,-410.16"/>
</a>
</g>
</g>
<!-- uTop/nestedTop.yaml.uNestedL1/nestedTop.yaml -->
<!-- uTop/nestedTop.yaml.uNestedL1/nestedTop.yaml.uNestedL2/nestedTop.yaml -->
<!-- uTop/nestedTop.yaml.uNestedL1/nestedTop.yaml.uNestedL2/nestedTop.yaml.uNestedL3/nestedTop.yaml -->
<!-- uTop/nestedTop.yaml.uNestedL1/nestedTop.yaml.uNestedL2/nestedTop.yaml.uNestedL3/nestedTop.yaml.uNestedL4/nestedTop.yaml -->
<!-- uTop/nestedTop.yaml.uNestedL1/nestedTop.yaml.uNestedL2/nestedTop.yaml.uNestedL3/nestedTop.yaml.uNestedL4/nestedTop.yaml.uNestedL5/nestedTop.yaml -->
</g>
</svg>
