<?xml version="1.0" encoding="UTF-8" standalone="no"?>
<!DOCTYPE svg PUBLIC "-//W3C//DTD SVG 1.1//EN"
 "http://www.w3.org/Graphics/SVG/1.1/DTD/svg11.dtd">
<!-- Generated by graphviz version 2.43.0 (0)
 -->
<!-- Title: %3 Pages: 1 -->
<svg width="445pt" height="445pt"
 viewBox="0.00 0.00 444.50 445.00" xmlns="http://www.w3.org/2000/svg" xmlns:xlink="http://www.w3.org/1999/xlink">
<g id="graph0" class="graph" transform="scale(1 1) rotate(0) translate(4 441)">
<title>%3</title>
<g id="a_graph0"><a xlink:title="uTop/mixed.yaml + depth 3">
<polygon fill="snow" stroke="transparent" points="-4,4 -4,-441 440.5,-441 440.5,4 -4,4"/>
</a>
</g>
<g id="clust1" class="cluster">
<title>cluster_uTop/mixed.yaml.uBlockA/mixed.yaml</title>
<g id="a_clust1"><a xlink:title="The block named A">
<polygon fill="snow" stroke="black" points="68.5,-246 68.5,-321 266.5,-321 266.5,-246 68.5,-246"/>
<text text-anchor="middle" x="167.5" y="-305.8" font-family="Times,serif" font-size="14.00">blockA</text>
</a>
</g>
</g>
<g id="clust2" class="cluster">
<title>cluster_uTop/mixed.yaml.uBlockB/mixed.yaml</title>
<g id="a_clust2"><a xlink:title="The block named B">
<polygon fill="#8470ff" stroke="#8470ff" points="73.5,-8 73.5,-238 428.5,-238 428.5,-8 73.5,-8"/>
<text text-anchor="middle" x="251" y="-222.8" font-family="Times,serif" font-size="14.00">blockB</text>
</a>
</g>
</g>
<g id="clust3" class="cluster">
<title>cluster_uTop/mixed.yaml.uBlockB/mixed.yaml.uThreeCs/mixed.yaml</title>
<g id="a_clust3"><a xlink:title="A block that contains three copies of blockC">
<polygon fill="green" stroke="green" points="81.5,-16 81.5,-91 420.5,-91 420.5,-16 81.5,-16"/>
<text text-anchor="middle" x="251" y="-75.8" font-family="Times,serif" font-size="14.00">threeCs</text>
</a>
</g>
</g>
<!-- uTop/mixed.yaml.uCPU/mixed.yaml -->
<g id="node1" class="node">
<title>uTop/mixed.yaml.uCPU/mixed.yaml</title>
<g id="a_node1"><a xlink:title="A RISC&#45;V CPU">
<polygon fill="pink" stroke="black" points="243.5,-437 189.5,-437 189.5,-401 243.5,-401 243.5,-437"/>
<text text-anchor="middle" x="216.5" y="-415.3" font-family="Times,serif" font-size="14.00">cpu</text>
</a>
</g>
</g>
<!-- uTop/mixed.yaml.uAPBDecode/mixed.yaml -->
<g id="node4" class="node">
<title>uTop/mixed.yaml.uAPBDecode/mixed.yaml</title>
<g id="a_node4"><a xlink:title="The block to decode apb addresses">
<polygon fill="pink" stroke="black" points="264,-365 169,-365 169,-329 264,-329 264,-365"/>
<text text-anchor="middle" x="216.5" y="-343.3" font-family="Times,serif" font-size="14.00">apbDecode</text>
</a>
</g>
</g>
<!-- uTop/mixed.yaml.uCPU/mixed.yaml&#45;&gt;uTop/mixed.yaml.uAPBDecode/mixed.yaml -->
<g id="edge3" class="edge">
<title>uTop/mixed.yaml.uCPU/mixed.yaml&#45;&gt;uTop/mixed.yaml.uAPBDecode/mixed.yaml</title>
<g id="a_edge3"><a xlink:title="apbReg(apbAddrSt, apbDataSt) CPU access to SoC registers in the design">
<path fill="none" stroke="black" d="M216.5,-400.7C216.5,-392.98 216.5,-383.71 216.5,-375.11"/>
<polygon fill="black" stroke="black" points="220,-375.1 216.5,-365.1 213,-375.1 220,-375.1"/>
</a>
</g>
</g>
<!-- uTop/mixed.yaml.uBlockA/mixed.yaml -->
<!-- uTop/mixed.yaml.uBlockC/mixed.yaml -->
<g id="node5" class="node">
<title>uTop/mixed.yaml.uBlockC/mixed.yaml</title>
<g id="a_node5"><a xlink:title="The block named C">
<polygon fill="orange" stroke="black" points="65,-207 0,-207 0,-171 65,-171 65,-207"/>
<text text-anchor="middle" x="32.5" y="-185.3" font-family="Times,serif" font-size="14.00">blockC</text>
</a>
</g>
</g>
<!-- uTop/mixed.yaml.uBlockA/mixed.yaml&#45;&gt;uTop/mixed.yaml.uBlockC/mixed.yaml -->
<g id="edge2" class="edge">
<title>uTop/mixed.yaml.uBlockA/mixed.yaml&#45;&gt;uTop/mixed.yaml.uBlockC/mixed.yaml</title>
<g id="a_edge2"><a xlink:title="cStuffIf(seeSt, cHeaderSt) An interface for C">
<path fill="none" stroke="black" d="M202.09,-253.9C196.53,-250.75 190.49,-247.87 184.5,-246 160.05,-238.35 92.08,-250.1 69.5,-238 60.14,-232.99 52.41,-224.46 46.48,-215.98"/>
<polygon fill="black" stroke="black" points="49.27,-213.86 40.95,-207.3 43.37,-217.61 49.27,-213.86"/>
</a>
</g>
</g>
<!-- uTop/mixed.yaml.uBlockB/mixed.yaml -->
<!-- uTop/mixed.yaml.uBlockA/mixed.yaml&#45;&gt;uTop/mixed.yaml.uBlockB/mixed.yaml -->
<g id="edge4" class="edge">
<title>uTop/mixed.yaml.uBlockA/mixed.yaml&#45;&gt;uTop/mixed.yaml.uBlockB/mixed.yaml</title>
<g id="a_edge4"><a xlink:title="startDone() A start done interface">
<path fill="none" stroke="black" d="M230.95,-253.82C233.74,-243.08 237.38,-229.03 240.54,-216.84"/>
<polygon fill="black" stroke="black" points="243.93,-217.71 243.05,-207.15 237.16,-215.95 243.93,-217.71"/>
</a>
</g>
</g>
<!-- uTop/mixed.yaml.uBlockB/mixed.yaml.uBlockD/mixed.yaml -->
<g id="node8" class="node">
<title>uTop/mixed.yaml.uBlockB/mixed.yaml.uBlockD/mixed.yaml</title>
<g id="a_node8"><a xlink:title="The block named D">
<polygon fill="white" stroke="black" points="197,-207 132,-207 132,-171 197,-171 197,-207"/>
<text text-anchor="middle" x="164.5" y="-185.3" font-family="Times,serif" font-size="14.00">blockD</text>
</a>
</g>
</g>
<!-- uTop/mixed.yaml.uBlockA/mixed.yaml&#45;&gt;uTop/mixed.yaml.uBlockB/mixed.yaml.uBlockD/mixed.yaml -->
<g id="edge1" class="edge">
<title>uTop/mixed.yaml.uBlockA/mixed.yaml&#45;&gt;uTop/mixed.yaml.uBlockB/mixed.yaml.uBlockD/mixed.yaml</title>
<g id="a_edge1"><a xlink:title="aStuffIf(aSt, aASt) An interface for A">
<path fill="none" stroke="black" d="M213.35,-253.82C204.8,-242.65 193.51,-227.9 183.93,-215.38"/>
<polygon fill="black" stroke="black" points="186.49,-212.97 177.63,-207.15 180.93,-217.22 186.49,-212.97"/>
</a>
</g>
</g>
<!-- uTop/mixed.yaml.uBlockA/mixed.yaml.uBlockARegs/mixed.yaml -->
<g id="node3" class="node">
<title>uTop/mixed.yaml.uBlockA/mixed.yaml.uBlockARegs/mixed.yaml</title>
<g id="a_node3"><a xlink:title="The register block inside block A">
<polygon fill="grey" stroke="black" points="176,-290 77,-290 77,-254 176,-254 176,-290"/>
<text text-anchor="middle" x="126.5" y="-268.3" font-family="Times,serif" font-size="14.00">blockARegs</text>
</a>
</g>
</g>
<!-- uTop/mixed.yaml.uAPBDecode/mixed.yaml&#45;&gt;uTop/mixed.yaml.uBlockA/mixed.yaml.uBlockARegs/mixed.yaml -->
<g id="edge5" class="edge">
<title>uTop/mixed.yaml.uAPBDecode/mixed.yaml&#45;&gt;uTop/mixed.yaml.uBlockA/mixed.yaml.uBlockARegs/mixed.yaml</title>
<g id="a_edge5"><a xlink:title="apbReg(apbAddrSt, apbDataSt) CPU access to SoC registers in the design">
<path fill="none" stroke="black" d="M195.14,-328.8C191.91,-326.19 188.62,-323.52 185.5,-321 175.74,-313.09 165.08,-304.43 155.55,-296.67"/>
<polygon fill="black" stroke="black" points="157.47,-293.73 147.51,-290.13 153.05,-299.16 157.47,-293.73"/>
</a>
</g>
</g>
<!-- uTop/mixed.yaml.uBlockB/mixed.yaml.uBlockBRegs/mixed.yaml -->
<g id="node7" class="node">
<title>uTop/mixed.yaml.uBlockB/mixed.yaml.uBlockBRegs/mixed.yaml</title>
<g id="a_node7"><a xlink:title="The register block inside block B">
<polygon fill="grey" stroke="black" points="398.5,-207 298.5,-207 298.5,-171 398.5,-171 398.5,-207"/>
<text text-anchor="middle" x="348.5" y="-185.3" font-family="Times,serif" font-size="14.00">blockBRegs</text>
</a>
</g>
</g>
<!-- uTop/mixed.yaml.uAPBDecode/mixed.yaml&#45;&gt;uTop/mixed.yaml.uBlockB/mixed.yaml.uBlockBRegs/mixed.yaml -->
<g id="edge6" class="edge">
<title>uTop/mixed.yaml.uAPBDecode/mixed.yaml&#45;&gt;uTop/mixed.yaml.uBlockB/mixed.yaml.uBlockBRegs/mixed.yaml</title>
<g id="a_edge6"><a xlink:title="apbReg(apbAddrSt, apbDataSt) CPU access to SoC registers in the design">
<path fill="none" stroke="black" d="M259.86,-328.89C263.66,-326.53 267.28,-323.91 270.5,-321 303.03,-291.67 326.1,-245.52 338.34,-216.55"/>
<polygon fill="black" stroke="black" points="341.67,-217.65 342.22,-207.07 335.19,-215 341.67,-217.65"/>
</a>
</g>
</g>
<!-- uTop/mixed.yaml.uBlockB/mixed.yaml.uBlockE/mixed.yaml -->
<g id="node9" class="node">
<title>uTop/mixed.yaml.uBlockB/mixed.yaml.uBlockE/mixed.yaml</title>
<g id="a_node9"><a xlink:title="The block named E">
<polygon fill="white" stroke="black" points="151,-135 86,-135 86,-99 151,-99 151,-135"/>
<text text-anchor="middle" x="118.5" y="-113.3" font-family="Times,serif" font-size="14.00">blockE</text>
</a>
</g>
</g>
<!-- uTop/mixed.yaml.uBlockB/mixed.yaml.uBlockD/mixed.yaml&#45;&gt;uTop/mixed.yaml.uBlockB/mixed.yaml.uBlockE/mixed.yaml -->
<g id="edge10" class="edge">
<title>uTop/mixed.yaml.uBlockB/mixed.yaml.uBlockD/mixed.yaml&#45;&gt;uTop/mixed.yaml.uBlockB/mixed.yaml.uBlockE/mixed.yaml</title>
<g id="a_edge10"><a xlink:title="dStuffIf(dSt) An interface for D">
<path fill="none" stroke="black" d="M153.13,-170.7C147.78,-162.56 141.3,-152.69 135.39,-143.7"/>
<polygon fill="black" stroke="black" points="138.16,-141.54 129.74,-135.1 132.31,-145.38 138.16,-141.54"/>
</a>
</g>
</g>
<!-- uTop/mixed.yaml.uBlockB/mixed.yaml.uBlockF/mixed.yaml -->
<g id="node10" class="node">
<title>uTop/mixed.yaml.uBlockB/mixed.yaml.uBlockF/mixed.yaml</title>
<g id="a_node10"><a xlink:title="The block named F">
<polygon fill="white" stroke="black" points="233.5,-135 169.5,-135 169.5,-99 233.5,-99 233.5,-135"/>
<text text-anchor="middle" x="201.5" y="-113.3" font-family="Times,serif" font-size="14.00">blockF</text>
</a>
</g>
</g>
<!-- uTop/mixed.yaml.uBlockB/mixed.yaml.uBlockD/mixed.yaml&#45;&gt;uTop/mixed.yaml.uBlockB/mixed.yaml.uBlockF/mixed.yaml -->
<g id="edge11" class="edge">
<title>uTop/mixed.yaml.uBlockB/mixed.yaml.uBlockD/mixed.yaml&#45;&gt;uTop/mixed.yaml.uBlockB/mixed.yaml.uBlockF/mixed.yaml</title>
<g id="a_edge11"><a xlink:title="dStuffIf(dSt) An interface for D">
<path fill="none" stroke="black" d="M173.65,-170.7C177.9,-162.64 183.06,-152.89 187.77,-143.98"/>
<polygon fill="black" stroke="black" points="190.88,-145.58 192.46,-135.1 184.69,-142.31 190.88,-145.58"/>
</a>
</g>
</g>
<!-- uTop/mixed.yaml.uBlockB/mixed.yaml.uThreeCs/mixed.yaml.uBlockC0/mixed.yaml -->
<g id="node12" class="node">
<title>uTop/mixed.yaml.uBlockB/mixed.yaml.uThreeCs/mixed.yaml.uBlockC0/mixed.yaml</title>
<g id="a_node12"><a xlink:title="The block named C">
<polygon fill="orange" stroke="black" points="321,-60 256,-60 256,-24 321,-24 321,-60"/>
<text text-anchor="middle" x="288.5" y="-38.3" font-family="Times,serif" font-size="14.00">blockC</text>
</a>
</g>
</g>
<!-- uTop/mixed.yaml.uBlockB/mixed.yaml.uBlockD/mixed.yaml&#45;&gt;uTop/mixed.yaml.uBlockB/mixed.yaml.uThreeCs/mixed.yaml.uBlockC0/mixed.yaml -->
<g id="edge7" class="edge">
<title>uTop/mixed.yaml.uBlockB/mixed.yaml.uBlockD/mixed.yaml&#45;&gt;uTop/mixed.yaml.uBlockB/mixed.yaml.uThreeCs/mixed.yaml.uBlockC0/mixed.yaml</title>
<g id="a_edge7"><a xlink:title="cStuffIf(seeSt, cHeaderSt) An interface for C">
<path fill="none" stroke="black" d="M197.36,-170.84C212.51,-161.73 229.89,-149.42 242.5,-135 259.32,-115.77 271.71,-89.3 279.36,-69.69"/>
<polygon fill="black" stroke="black" points="282.71,-70.73 282.93,-60.14 276.16,-68.28 282.71,-70.73"/>
</a>
</g>
</g>
<!-- uTop/mixed.yaml.uBlockB/mixed.yaml.uThreeCs/mixed.yaml.uBlockC1/mixed.yaml -->
<g id="node13" class="node">
<title>uTop/mixed.yaml.uBlockB/mixed.yaml.uThreeCs/mixed.yaml.uBlockC1/mixed.yaml</title>
<g id="a_node13"><a xlink:title="The block named C">
<polygon fill="orange" stroke="black" points="238,-60 173,-60 173,-24 238,-24 238,-60"/>
<text text-anchor="middle" x="205.5" y="-38.3" font-family="Times,serif" font-size="14.00">blockC</text>
</a>
</g>
</g>
<!-- uTop/mixed.yaml.uBlockB/mixed.yaml.uBlockF/mixed.yaml&#45;&gt;uTop/mixed.yaml.uBlockB/mixed.yaml.uThreeCs/mixed.yaml.uBlockC1/mixed.yaml -->
<g id="edge8" class="edge">
<title>uTop/mixed.yaml.uBlockB/mixed.yaml.uBlockF/mixed.yaml&#45;&gt;uTop/mixed.yaml.uBlockB/mixed.yaml.uThreeCs/mixed.yaml.uBlockC1/mixed.yaml</title>
<g id="a_edge8"><a xlink:title="cStuffIf(seeSt, cHeaderSt) An interface for C">
<path fill="none" stroke="black" d="M202.45,-98.7C202.91,-90.25 203.48,-79.87 204,-70.37"/>
<polygon fill="black" stroke="black" points="207.51,-70.35 204.56,-60.18 200.52,-69.97 207.51,-70.35"/>
</a>
</g>
</g>
<!-- uTop/mixed.yaml.uBlockB/mixed.yaml.uThreeCs/mixed.yaml.uBlockC2/mixed.yaml -->
<g id="node14" class="node">
<title>uTop/mixed.yaml.uBlockB/mixed.yaml.uThreeCs/mixed.yaml.uBlockC2/mixed.yaml</title>
<g id="a_node14"><a xlink:title="The block named C">
<polygon fill="orange" stroke="black" points="155,-60 90,-60 90,-24 155,-24 155,-60"/>
<text text-anchor="middle" x="122.5" y="-38.3" font-family="Times,serif" font-size="14.00">blockC</text>
</a>
</g>
</g>
<!-- uTop/mixed.yaml.uBlockB/mixed.yaml.uBlockF/mixed.yaml&#45;&gt;uTop/mixed.yaml.uBlockB/mixed.yaml.uThreeCs/mixed.yaml.uBlockC2/mixed.yaml -->
<g id="edge9" class="edge">
<title>uTop/mixed.yaml.uBlockB/mixed.yaml.uBlockF/mixed.yaml&#45;&gt;uTop/mixed.yaml.uBlockB/mixed.yaml.uThreeCs/mixed.yaml.uBlockC2/mixed.yaml</title>
<g id="a_edge9"><a xlink:title="cStuffIf(seeSt, cHeaderSt) An interface for C">
<path fill="none" stroke="black" d="M173.43,-98.85C169.98,-96.36 166.58,-93.72 163.5,-91 155.77,-84.18 148.19,-75.9 141.69,-68.15"/>
<polygon fill="black" stroke="black" points="144.13,-65.6 135.11,-60.04 138.7,-70.01 144.13,-65.6"/>
</a>
</g>
</g>
<!-- uTop/mixed.yaml.uBlockB/mixed.yaml.uThreeCs/mixed.yaml -->
</g>
</svg>
