<?xml version="1.0" encoding="UTF-8" standalone="no"?>
<!DOCTYPE svg PUBLIC "-//W3C//DTD SVG 1.1//EN"
 "http://www.w3.org/Graphics/SVG/1.1/DTD/svg11.dtd">
<!-- Generated by graphviz version 2.43.0 (0)
 -->
<!-- Title: %3 Pages: 1 -->
<svg width="445pt" height="517pt"
 viewBox="0.00 0.00 444.50 517.00" xmlns="http://www.w3.org/2000/svg" xmlns:xlink="http://www.w3.org/1999/xlink">
<g id="graph0" class="graph" transform="scale(1 1) rotate(0) translate(4 513)">
<title>%3</title>
<g id="a_graph0"><a xlink:title="uTop/mixed.yaml + depth 3">
<polygon fill="snow" stroke="transparent" points="-4,4 -4,-513 440.5,-513 440.5,4 -4,4"/>
</a>
</g>
<g id="clust1" class="cluster">
<title>cluster_uTop/mixed.yaml.uBlockA/mixed.yaml</title>
<g id="a_clust1"><a xlink:title="The block named A">
<polygon fill="snow" stroke="black" points="76.5,-318 76.5,-393 274.5,-393 274.5,-318 76.5,-318"/>
<text text-anchor="middle" x="175.5" y="-377.8" font-family="Times,serif" font-size="14.00">blockA</text>
</a>
</g>
</g>
<g id="clust2" class="cluster">
<title>cluster_uTop/mixed.yaml.uBlockB/mixed.yaml</title>
<g id="a_clust2"><a xlink:title="The block named B">
<polygon fill="#8470ff" stroke="#8470ff" points="73.5,-8 73.5,-310 428.5,-310 428.5,-8 73.5,-8"/>
<text text-anchor="middle" x="251" y="-294.8" font-family="Times,serif" font-size="14.00">blockB</text>
</a>
</g>
</g>
<g id="clust3" class="cluster">
<title>cluster_uTop/mixed.yaml.uBlockB/mixed.yaml.uThreeCs/mixed.yaml</title>
<g id="a_clust3"><a xlink:title="A block that contains three copies of blockC">
<polygon fill="green" stroke="green" points="81.5,-16 81.5,-91 420.5,-91 420.5,-16 81.5,-16"/>
<text text-anchor="middle" x="251" y="-75.8" font-family="Times,serif" font-size="14.00">threeCs</text>
</a>
</g>
</g>
<!-- uTop/mixed.yaml.uCPU/mixed.yaml -->
<g id="node1" class="node">
<title>uTop/mixed.yaml.uCPU/mixed.yaml</title>
<g id="a_node1"><a xlink:title="A RISC&#45;V CPU">
<polygon fill="pink" stroke="black" points="251.5,-509 197.5,-509 197.5,-473 251.5,-473 251.5,-509"/>
<text text-anchor="middle" x="224.5" y="-487.3" font-family="Times,serif" font-size="14.00">cpu</text>
</a>
</g>
</g>
<!-- uTop/mixed.yaml.uAPBDecode/mixed.yaml -->
<g id="node4" class="node">
<title>uTop/mixed.yaml.uAPBDecode/mixed.yaml</title>
<g id="a_node4"><a xlink:title="The block to decode apb addresses">
<polygon fill="pink" stroke="black" points="272,-437 177,-437 177,-401 272,-401 272,-437"/>
<text text-anchor="middle" x="224.5" y="-415.3" font-family="Times,serif" font-size="14.00">apbDecode</text>
</a>
</g>
</g>
<!-- uTop/mixed.yaml.uCPU/mixed.yaml&#45;&gt;uTop/mixed.yaml.uAPBDecode/mixed.yaml -->
<g id="edge3" class="edge">
<title>uTop/mixed.yaml.uCPU/mixed.yaml&#45;&gt;uTop/mixed.yaml.uAPBDecode/mixed.yaml</title>
<g id="a_edge3"><a xlink:title="apbReg(apbAddrSt, apbDataSt) CPU access to SoC registers in the design">
<path fill="none" stroke="black" d="M224.5,-472.7C224.5,-464.98 224.5,-455.71 224.5,-447.11"/>
<polygon fill="black" stroke="black" points="228,-447.1 224.5,-437.1 221,-447.1 228,-447.1"/>
</a>
</g>
</g>
<!-- uTop/mixed.yaml.uBlockA/mixed.yaml -->
<!-- uTop/mixed.yaml.uBlockC/mixed.yaml -->
<g id="node5" class="node">
<title>uTop/mixed.yaml.uBlockC/mixed.yaml</title>
<g id="a_node5"><a xlink:title="The block named C">
<polygon fill="orange" stroke="black" points="65,-279 0,-279 0,-243 65,-243 65,-279"/>
<text text-anchor="middle" x="32.5" y="-257.3" font-family="Times,serif" font-size="14.00">blockC</text>
</a>
</g>
</g>
<!-- uTop/mixed.yaml.uBlockA/mixed.yaml&#45;&gt;uTop/mixed.yaml.uBlockC/mixed.yaml -->
<g id="edge2" class="edge">
<title>uTop/mixed.yaml.uBlockA/mixed.yaml&#45;&gt;uTop/mixed.yaml.uBlockC/mixed.yaml</title>
<g id="a_edge2"><a xlink:title="cStuffIf(seeSt) An interface for C">
<path fill="none" stroke="black" d="M210.09,-325.88C204.54,-322.74 198.5,-319.86 192.5,-318 166.34,-309.88 93.67,-322.88 69.5,-310 60.13,-305.01 52.39,-296.49 46.46,-288"/>
<polygon fill="black" stroke="black" points="49.26,-285.88 40.94,-279.32 43.35,-289.63 49.26,-285.88"/>
</a>
</g>
</g>
<!-- uTop/mixed.yaml.uBlockB/mixed.yaml -->
<!-- uTop/mixed.yaml.uBlockA/mixed.yaml&#45;&gt;uTop/mixed.yaml.uBlockB/mixed.yaml -->
<g id="edge4" class="edge">
<title>uTop/mixed.yaml.uBlockA/mixed.yaml&#45;&gt;uTop/mixed.yaml.uBlockB/mixed.yaml</title>
<g id="a_edge4"><a xlink:title="startDone() A start done interface">
<path fill="none" stroke="black" d="M238.11,-325.82C240.34,-315.19 243.25,-301.31 245.79,-289.2"/>
<polygon fill="black" stroke="black" points="249.27,-289.66 247.9,-279.15 242.42,-288.22 249.27,-289.66"/>
</a>
</g>
</g>
<!-- uTop/mixed.yaml.uBlockB/mixed.yaml.uBlockD/mixed.yaml -->
<g id="node7" class="node">
<title>uTop/mixed.yaml.uBlockB/mixed.yaml.uBlockD/mixed.yaml</title>
<g id="a_node7"><a xlink:title="The block named D">
<polygon fill="white" stroke="black" points="201,-279 136,-279 136,-243 201,-243 201,-279"/>
<text text-anchor="middle" x="168.5" y="-257.3" font-family="Times,serif" font-size="14.00">blockD</text>
</a>
</g>
</g>
<!-- uTop/mixed.yaml.uBlockA/mixed.yaml&#45;&gt;uTop/mixed.yaml.uBlockB/mixed.yaml.uBlockD/mixed.yaml -->
<g id="edge1" class="edge">
<title>uTop/mixed.yaml.uBlockA/mixed.yaml&#45;&gt;uTop/mixed.yaml.uBlockB/mixed.yaml.uBlockD/mixed.yaml</title>
<g id="a_edge1"><a xlink:title="aStuffIf(aSt, aASt) An interface for A">
<path fill="none" stroke="black" d="M220.5,-325.82C211.32,-314.55 199.15,-299.61 188.89,-287.02"/>
<polygon fill="black" stroke="black" points="191.51,-284.69 182.48,-279.15 186.08,-289.12 191.51,-284.69"/>
</a>
</g>
</g>
<!-- uTop/mixed.yaml.uBlockA/mixed.yaml.uBlockARegs/_global -->
<g id="node3" class="node">
<title>uTop/mixed.yaml.uBlockA/mixed.yaml.uBlockARegs/_global</title>
<g id="a_node3"><a xlink:title="blockA Register handler">
<polygon fill="white" stroke="black" points="184,-362 85,-362 85,-326 184,-326 184,-362"/>
<text text-anchor="middle" x="134.5" y="-340.3" font-family="Times,serif" font-size="14.00">blockARegs</text>
</a>
</g>
</g>
<!-- uTop/mixed.yaml.uAPBDecode/mixed.yaml&#45;&gt;uTop/mixed.yaml.uBlockA/mixed.yaml.uBlockARegs/_global -->
<g id="edge5" class="edge">
<title>uTop/mixed.yaml.uAPBDecode/mixed.yaml&#45;&gt;uTop/mixed.yaml.uBlockA/mixed.yaml.uBlockARegs/_global</title>
<g id="a_edge5"><a xlink:title="apbReg(apbAddrSt, apbDataSt) CPU access to SoC registers in the design">
<path fill="none" stroke="black" d="M203.14,-400.8C199.91,-398.19 196.62,-395.52 193.5,-393 183.74,-385.09 173.08,-376.43 163.55,-368.67"/>
<polygon fill="black" stroke="black" points="165.47,-365.73 155.51,-362.13 161.05,-371.16 165.47,-365.73"/>
</a>
</g>
</g>
<!-- uTop/mixed.yaml.uBlockB/mixed.yaml.uBlockBRegs/_global -->
<g id="node14" class="node">
<title>uTop/mixed.yaml.uBlockB/mixed.yaml.uBlockBRegs/_global</title>
<g id="a_node14"><a xlink:title="blockB Register handler">
<polygon fill="white" stroke="black" points="402.5,-279 302.5,-279 302.5,-243 402.5,-243 402.5,-279"/>
<text text-anchor="middle" x="352.5" y="-257.3" font-family="Times,serif" font-size="14.00">blockBRegs</text>
</a>
</g>
</g>
<!-- uTop/mixed.yaml.uAPBDecode/mixed.yaml&#45;&gt;uTop/mixed.yaml.uBlockB/mixed.yaml.uBlockBRegs/_global -->
<g id="edge6" class="edge">
<title>uTop/mixed.yaml.uAPBDecode/mixed.yaml&#45;&gt;uTop/mixed.yaml.uBlockB/mixed.yaml.uBlockBRegs/_global</title>
<g id="a_edge6"><a xlink:title="apbReg(apbAddrSt, apbDataSt) CPU access to SoC registers in the design">
<path fill="none" stroke="black" d="M267.93,-400.97C271.71,-398.59 275.31,-395.94 278.5,-393 310.27,-363.69 331.89,-317.53 343.21,-288.56"/>
<polygon fill="black" stroke="black" points="346.53,-289.67 346.78,-279.08 339.98,-287.2 346.53,-289.67"/>
</a>
</g>
</g>
<!-- uTop/mixed.yaml.uBlockB/mixed.yaml.uBlockF0/mixed.yaml -->
<g id="node8" class="node">
<title>uTop/mixed.yaml.uBlockB/mixed.yaml.uBlockF0/mixed.yaml</title>
<g id="a_node8"><a xlink:title="The block named F">
<polygon fill="white" stroke="black" points="175.5,-207 111.5,-207 111.5,-171 175.5,-171 175.5,-207"/>
<text text-anchor="middle" x="143.5" y="-185.3" font-family="Times,serif" font-size="14.00">blockF</text>
</a>
</g>
</g>
<!-- uTop/mixed.yaml.uBlockB/mixed.yaml.uBlockD/mixed.yaml&#45;&gt;uTop/mixed.yaml.uBlockB/mixed.yaml.uBlockF0/mixed.yaml -->
<g id="edge10" class="edge">
<title>uTop/mixed.yaml.uBlockB/mixed.yaml.uBlockD/mixed.yaml&#45;&gt;uTop/mixed.yaml.uBlockB/mixed.yaml.uBlockF0/mixed.yaml</title>
<g id="a_edge10"><a xlink:title="dStuffIf(dSt) An interface for D">
<path fill="none" stroke="black" d="M156.4,-242.7C152.81,-234.9 149.24,-225.51 146.5,-216.83"/>
<polygon fill="black" stroke="black" points="149.83,-215.75 143.71,-207.1 143.1,-217.68 149.83,-215.75"/>
</a>
</g>
</g>
<!-- uTop/mixed.yaml.uBlockB/mixed.yaml.uBlockD/mixed.yaml&#45;&gt;uTop/mixed.yaml.uBlockB/mixed.yaml.uBlockF0/mixed.yaml -->
<g id="edge12" class="edge">
<title>uTop/mixed.yaml.uBlockB/mixed.yaml.uBlockD/mixed.yaml&#45;&gt;uTop/mixed.yaml.uBlockB/mixed.yaml.uBlockF0/mixed.yaml</title>
<g id="a_edge12"><a xlink:title="dStuffIf(dSt) An interface for D">
<path fill="none" stroke="black" d="M168.24,-242.7C166.23,-234.81 163.06,-225.3 159.55,-216.55"/>
<polygon fill="black" stroke="black" points="162.66,-214.92 155.5,-207.1 156.23,-217.67 162.66,-214.92"/>
</a>
</g>
</g>
<!-- uTop/mixed.yaml.uBlockB/mixed.yaml.uBlockF1/mixed.yaml -->
<g id="node9" class="node">
<title>uTop/mixed.yaml.uBlockB/mixed.yaml.uBlockF1/mixed.yaml</title>
<g id="a_node9"><a xlink:title="The block named F">
<polygon fill="white" stroke="black" points="226.5,-135 162.5,-135 162.5,-99 226.5,-99 226.5,-135"/>
<text text-anchor="middle" x="194.5" y="-113.3" font-family="Times,serif" font-size="14.00">blockF</text>
</a>
</g>
</g>
<!-- uTop/mixed.yaml.uBlockB/mixed.yaml.uBlockD/mixed.yaml&#45;&gt;uTop/mixed.yaml.uBlockB/mixed.yaml.uBlockF1/mixed.yaml -->
<g id="edge11" class="edge">
<title>uTop/mixed.yaml.uBlockB/mixed.yaml.uBlockD/mixed.yaml&#45;&gt;uTop/mixed.yaml.uBlockB/mixed.yaml.uBlockF1/mixed.yaml</title>
<g id="a_edge11"><a xlink:title="dStuffIf(dSt) An interface for D">
<path fill="none" stroke="black" d="M166.77,-242.54C169.03,-232.3 173.03,-219.05 175.5,-207 179.7,-186.57 182.24,-163.11 185.01,-145.41"/>
<polygon fill="black" stroke="black" points="188.52,-145.66 186.78,-135.21 181.62,-144.46 188.52,-145.66"/>
</a>
</g>
</g>
<!-- uTop/mixed.yaml.uBlockB/mixed.yaml.uThreeCs/mixed.yaml.uBlockC0/mixed.yaml -->
<g id="node11" class="node">
<title>uTop/mixed.yaml.uBlockB/mixed.yaml.uThreeCs/mixed.yaml.uBlockC0/mixed.yaml</title>
<g id="a_node11"><a xlink:title="The block named C">
<polygon fill="orange" stroke="black" points="321,-60 256,-60 256,-24 321,-24 321,-60"/>
<text text-anchor="middle" x="288.5" y="-38.3" font-family="Times,serif" font-size="14.00">blockC</text>
</a>
</g>
</g>
<!-- uTop/mixed.yaml.uBlockB/mixed.yaml.uBlockD/mixed.yaml&#45;&gt;uTop/mixed.yaml.uBlockB/mixed.yaml.uThreeCs/mixed.yaml.uBlockC0/mixed.yaml -->
<g id="edge7" class="edge">
<title>uTop/mixed.yaml.uBlockB/mixed.yaml.uBlockD/mixed.yaml&#45;&gt;uTop/mixed.yaml.uBlockB/mixed.yaml.uThreeCs/mixed.yaml.uBlockC0/mixed.yaml</title>
<g id="a_edge7"><a xlink:title="cStuffIf(seeSt) An interface for C">
<path fill="none" stroke="black" d="M177.92,-242.97C198.81,-205.19 249.15,-114.16 274.05,-69.12"/>
<polygon fill="black" stroke="black" points="277.19,-70.69 278.96,-60.25 271.06,-67.31 277.19,-70.69"/>
</a>
</g>
</g>
<!-- uTop/mixed.yaml.uBlockB/mixed.yaml.uBlockF0/mixed.yaml&#45;&gt;uTop/mixed.yaml.uBlockB/mixed.yaml.uBlockF1/mixed.yaml -->
<g id="edge13" class="edge">
<title>uTop/mixed.yaml.uBlockB/mixed.yaml.uBlockF0/mixed.yaml&#45;&gt;uTop/mixed.yaml.uBlockB/mixed.yaml.uBlockF1/mixed.yaml</title>
<g id="a_edge13"><a xlink:title="dStuffIf(dSt) An interface for D">
<path fill="none" stroke="black" d="M156.11,-170.7C162.1,-162.47 169.38,-152.48 175.98,-143.42"/>
<polygon fill="black" stroke="black" points="178.98,-145.25 182.04,-135.1 173.32,-141.13 178.98,-145.25"/>
</a>
</g>
</g>
<!-- uTop/mixed.yaml.uBlockB/mixed.yaml.uThreeCs/mixed.yaml.uBlockC1/mixed.yaml -->
<g id="node12" class="node">
<title>uTop/mixed.yaml.uBlockB/mixed.yaml.uThreeCs/mixed.yaml.uBlockC1/mixed.yaml</title>
<g id="a_node12"><a xlink:title="The block named C">
<polygon fill="orange" stroke="black" points="155,-60 90,-60 90,-24 155,-24 155,-60"/>
<text text-anchor="middle" x="122.5" y="-38.3" font-family="Times,serif" font-size="14.00">blockC</text>
</a>
</g>
</g>
<!-- uTop/mixed.yaml.uBlockB/mixed.yaml.uBlockF0/mixed.yaml&#45;&gt;uTop/mixed.yaml.uBlockB/mixed.yaml.uThreeCs/mixed.yaml.uBlockC1/mixed.yaml -->
<g id="edge8" class="edge">
<title>uTop/mixed.yaml.uBlockB/mixed.yaml.uBlockF0/mixed.yaml&#45;&gt;uTop/mixed.yaml.uBlockB/mixed.yaml.uThreeCs/mixed.yaml.uBlockC1/mixed.yaml</title>
<g id="a_edge8"><a xlink:title="cStuffIf(seeSt) An interface for C">
<path fill="none" stroke="black" d="M141.01,-170.8C137.41,-145.94 130.72,-99.74 126.44,-70.23"/>
<polygon fill="black" stroke="black" points="129.89,-69.58 124.99,-60.18 122.96,-70.58 129.89,-69.58"/>
</a>
</g>
</g>
<!-- uTop/mixed.yaml.uBlockB/mixed.yaml.uBlockF1/mixed.yaml&#45;&gt;uTop/mixed.yaml.uBlockB/mixed.yaml.uBlockD/mixed.yaml -->
<g id="edge14" class="edge">
<title>uTop/mixed.yaml.uBlockB/mixed.yaml.uBlockF1/mixed.yaml&#45;&gt;uTop/mixed.yaml.uBlockB/mixed.yaml.uBlockD/mixed.yaml</title>
<g id="a_edge14"><a xlink:title="dStuffIf(dSt) An interface for D">
<path fill="none" stroke="black" d="M200.21,-135.21C201.23,-153.24 198.57,-182.33 193.5,-207 191.74,-215.57 189.21,-224.74 186.28,-233.01"/>
<polygon fill="black" stroke="black" points="182.93,-231.95 182.52,-242.54 189.44,-234.52 182.93,-231.95"/>
</a>
</g>
</g>
<!-- uTop/mixed.yaml.uBlockB/mixed.yaml.uThreeCs/mixed.yaml.uBlockC2/mixed.yaml -->
<g id="node13" class="node">
<title>uTop/mixed.yaml.uBlockB/mixed.yaml.uThreeCs/mixed.yaml.uBlockC2/mixed.yaml</title>
<g id="a_node13"><a xlink:title="The block named C">
<polygon fill="orange" stroke="black" points="238,-60 173,-60 173,-24 238,-24 238,-60"/>
<text text-anchor="middle" x="205.5" y="-38.3" font-family="Times,serif" font-size="14.00">blockC</text>
</a>
</g>
</g>
<!-- uTop/mixed.yaml.uBlockB/mixed.yaml.uBlockF1/mixed.yaml&#45;&gt;uTop/mixed.yaml.uBlockB/mixed.yaml.uThreeCs/mixed.yaml.uBlockC2/mixed.yaml -->
<g id="edge9" class="edge">
<title>uTop/mixed.yaml.uBlockB/mixed.yaml.uBlockF1/mixed.yaml&#45;&gt;uTop/mixed.yaml.uBlockB/mixed.yaml.uThreeCs/mixed.yaml.uBlockC2/mixed.yaml</title>
<g id="a_edge9"><a xlink:title="cStuffIf(seeSt) An interface for C">
<path fill="none" stroke="black" d="M197.11,-98.7C198.39,-90.15 199.98,-79.65 201.42,-70.07"/>
<polygon fill="black" stroke="black" points="204.88,-70.59 202.91,-60.18 197.96,-69.54 204.88,-70.59"/>
</a>
</g>
</g>
<!-- uTop/mixed.yaml.uBlockB/mixed.yaml.uThreeCs/mixed.yaml -->
</g>
</svg>
