<?xml version="1.0" encoding="UTF-8" standalone="no"?>
<!DOCTYPE svg PUBLIC "-//W3C//DTD SVG 1.1//EN"
 "http://www.w3.org/Graphics/SVG/1.1/DTD/svg11.dtd">
<!-- Generated by graphviz version 2.43.0 (0)
 -->
<!-- Title: %3 Pages: 1 -->
<svg width="382pt" height="506pt"
 viewBox="0.00 0.00 382.00 506.00" xmlns="http://www.w3.org/2000/svg" xmlns:xlink="http://www.w3.org/1999/xlink">
<g id="graph0" class="graph" transform="scale(1 1) rotate(0) translate(4 502)">
<title>%3</title>
<g id="a_graph0"><a xlink:title="uTop/mixed.yaml + depth 2">
<polygon fill="snow" stroke="transparent" points="-4,4 -4,-502 378,-502 378,4 -4,4"/>
</a>
</g>
<g id="clust1" class="cluster">
<title>cluster_uTop/mixed.yaml.uBlockA/mixed.yaml</title>
<g id="a_clust1"><a xlink:title="The block named A">
<polygon fill="snow" stroke="black" points="8,-307 8,-382 206,-382 206,-307 8,-307"/>
<text text-anchor="middle" x="107" y="-366.8" font-family="Times,serif" font-size="14.00">blockA</text>
</a>
</g>
</g>
<g id="clust2" class="cluster">
<title>cluster_uTop/mixed.yaml.uBlockB/mixed.yaml</title>
<g id="a_clust2"><a xlink:title="The block named B">
<polygon fill="#8470ff" stroke="#8470ff" points="83,-8 83,-299 366,-299 366,-8 83,-8"/>
<text text-anchor="middle" x="224.5" y="-283.8" font-family="Times,serif" font-size="14.00">blockB</text>
</a>
</g>
</g>
<!-- uTop/mixed.yaml.uCPU/mixed.yaml -->
<g id="node1" class="node">
<title>uTop/mixed.yaml.uCPU/mixed.yaml</title>
<g id="a_node1"><a xlink:title="A RISC&#45;V CPU">
<polygon fill="pink" stroke="black" points="183,-498 129,-498 129,-462 183,-462 183,-498"/>
<text text-anchor="middle" x="156" y="-476.3" font-family="Times,serif" font-size="14.00">cpu</text>
</a>
</g>
</g>
<!-- uTop/mixed.yaml.uAPBDecode/mixed.yaml -->
<g id="node4" class="node">
<title>uTop/mixed.yaml.uAPBDecode/mixed.yaml</title>
<g id="a_node4"><a xlink:title="The block to decode apb addresses">
<polygon fill="pink" stroke="black" points="203.5,-426 108.5,-426 108.5,-390 203.5,-390 203.5,-426"/>
<text text-anchor="middle" x="156" y="-404.3" font-family="Times,serif" font-size="14.00">apbDecode</text>
</a>
</g>
</g>
<!-- uTop/mixed.yaml.uCPU/mixed.yaml&#45;&gt;uTop/mixed.yaml.uAPBDecode/mixed.yaml -->
<g id="edge3" class="edge">
<title>uTop/mixed.yaml.uCPU/mixed.yaml&#45;&gt;uTop/mixed.yaml.uAPBDecode/mixed.yaml</title>
<g id="a_edge3"><a xlink:title="apbReg(apbAddrSt, apbDataSt) CPU access to SoC registers in the design">
<path fill="none" stroke="black" d="M156,-461.7C156,-453.98 156,-444.71 156,-436.11"/>
<polygon fill="black" stroke="black" points="159.5,-436.1 156,-426.1 152.5,-436.1 159.5,-436.1"/>
</a>
</g>
</g>
<!-- uTop/mixed.yaml.uBlockA/mixed.yaml -->
<!-- uTop/mixed.yaml.uBlockC/mixed.yaml -->
<g id="node5" class="node">
<title>uTop/mixed.yaml.uBlockC/mixed.yaml</title>
<g id="a_node5"><a xlink:title="The block named C">
<polygon fill="orange" stroke="black" points="73.5,-268 8.5,-268 8.5,-232 73.5,-232 73.5,-268"/>
<text text-anchor="middle" x="41" y="-246.3" font-family="Times,serif" font-size="14.00">blockC</text>
</a>
</g>
</g>
<!-- uTop/mixed.yaml.uBlockA/mixed.yaml&#45;&gt;uTop/mixed.yaml.uBlockC/mixed.yaml -->
<g id="edge2" class="edge">
<title>uTop/mixed.yaml.uBlockA/mixed.yaml&#45;&gt;uTop/mixed.yaml.uBlockC/mixed.yaml</title>
<g id="a_edge2"><a xlink:title="cStuffIf(seeSt) An interface for C">
<path fill="none" stroke="black" d="M140.52,-314.87C135.23,-311.88 129.57,-309.07 124,-307 104.96,-299.91 96.44,-309.42 79,-299 69.93,-293.58 62.17,-285.13 56.07,-276.81"/>
<polygon fill="black" stroke="black" points="58.84,-274.66 50.33,-268.34 53.04,-278.58 58.84,-274.66"/>
</a>
</g>
</g>
<!-- uTop/mixed.yaml.uBlockB/mixed.yaml -->
<!-- uTop/mixed.yaml.uBlockA/mixed.yaml&#45;&gt;uTop/mixed.yaml.uBlockB/mixed.yaml -->
<g id="edge4" class="edge">
<title>uTop/mixed.yaml.uBlockA/mixed.yaml&#45;&gt;uTop/mixed.yaml.uBlockB/mixed.yaml</title>
<g id="a_edge4"><a xlink:title="startDone() A start done interface">
<path fill="none" stroke="black" d="M174.7,-314.82C180.24,-303.87 187.53,-289.46 193.78,-277.11"/>
<polygon fill="black" stroke="black" points="196.92,-278.66 198.32,-268.15 190.68,-275.49 196.92,-278.66"/>
</a>
</g>
</g>
<!-- uTop/mixed.yaml.uBlockB/mixed.yaml.uBlockD/mixed.yaml -->
<g id="node7" class="node">
<title>uTop/mixed.yaml.uBlockB/mixed.yaml.uBlockD/mixed.yaml</title>
<g id="a_node7"><a xlink:title="The block named D">
<polygon fill="white" stroke="black" points="156.5,-268 91.5,-268 91.5,-232 156.5,-232 156.5,-268"/>
<text text-anchor="middle" x="124" y="-246.3" font-family="Times,serif" font-size="14.00">blockD</text>
</a>
</g>
</g>
<!-- uTop/mixed.yaml.uBlockA/mixed.yaml&#45;&gt;uTop/mixed.yaml.uBlockB/mixed.yaml.uBlockD/mixed.yaml -->
<g id="edge1" class="edge">
<title>uTop/mixed.yaml.uBlockA/mixed.yaml&#45;&gt;uTop/mixed.yaml.uBlockB/mixed.yaml.uBlockD/mixed.yaml</title>
<g id="a_edge1"><a xlink:title="aStuffIf(aSt, aASt) An interface for A">
<path fill="none" stroke="black" d="M157.09,-314.82C151.41,-303.87 143.94,-289.46 137.54,-277.11"/>
<polygon fill="black" stroke="black" points="140.6,-275.42 132.89,-268.15 134.39,-278.64 140.6,-275.42"/>
</a>
</g>
</g>
<!-- uTop/mixed.yaml.uBlockA/mixed.yaml.uBlockARegs/_global -->
<g id="node3" class="node">
<title>uTop/mixed.yaml.uBlockA/mixed.yaml.uBlockARegs/_global</title>
<g id="a_node3"><a xlink:title="blockA Register handler">
<polygon fill="white" stroke="black" points="115.5,-351 16.5,-351 16.5,-315 115.5,-315 115.5,-351"/>
<text text-anchor="middle" x="66" y="-329.3" font-family="Times,serif" font-size="14.00">blockARegs</text>
</a>
</g>
</g>
<!-- uTop/mixed.yaml.uAPBDecode/mixed.yaml&#45;&gt;uTop/mixed.yaml.uBlockA/mixed.yaml.uBlockARegs/_global -->
<g id="edge5" class="edge">
<title>uTop/mixed.yaml.uAPBDecode/mixed.yaml&#45;&gt;uTop/mixed.yaml.uBlockA/mixed.yaml.uBlockARegs/_global</title>
<g id="a_edge5"><a xlink:title="apbReg(apbAddrSt, apbDataSt) CPU access to SoC registers in the design">
<path fill="none" stroke="black" d="M134.64,-389.8C131.41,-387.19 128.12,-384.52 125,-382 115.24,-374.09 104.58,-365.43 95.05,-357.67"/>
<polygon fill="black" stroke="black" points="96.97,-354.73 87.01,-351.13 92.55,-360.16 96.97,-354.73"/>
</a>
</g>
</g>
<!-- uTop/mixed.yaml.uBlockB/mixed.yaml.uBlockBRegs/_global -->
<g id="node11" class="node">
<title>uTop/mixed.yaml.uBlockB/mixed.yaml.uBlockBRegs/_global</title>
<g id="a_node11"><a xlink:title="blockB Register handler">
<polygon fill="white" stroke="black" points="358,-268 258,-268 258,-232 358,-232 358,-268"/>
<text text-anchor="middle" x="308" y="-246.3" font-family="Times,serif" font-size="14.00">blockBRegs</text>
</a>
</g>
</g>
<!-- uTop/mixed.yaml.uAPBDecode/mixed.yaml&#45;&gt;uTop/mixed.yaml.uBlockB/mixed.yaml.uBlockBRegs/_global -->
<g id="edge6" class="edge">
<title>uTop/mixed.yaml.uAPBDecode/mixed.yaml&#45;&gt;uTop/mixed.yaml.uBlockB/mixed.yaml.uBlockBRegs/_global</title>
<g id="a_edge6"><a xlink:title="apbReg(apbAddrSt, apbDataSt) CPU access to SoC registers in the design">
<path fill="none" stroke="black" d="M198.5,-389.85C202.56,-387.48 206.47,-384.86 210,-382 246.68,-352.28 277.04,-305.93 293.83,-277.07"/>
<polygon fill="black" stroke="black" points="297.08,-278.43 298.99,-268.01 291,-274.96 297.08,-278.43"/>
</a>
</g>
</g>
<!-- uTop/mixed.yaml.uBlockB/mixed.yaml.uBlockF0/mixed.yaml -->
<g id="node8" class="node">
<title>uTop/mixed.yaml.uBlockB/mixed.yaml.uBlockF0/mixed.yaml</title>
<g id="a_node8"><a xlink:title="The block named F">
<polygon fill="white" stroke="black" points="155,-196 91,-196 91,-160 155,-160 155,-196"/>
<text text-anchor="middle" x="123" y="-174.3" font-family="Times,serif" font-size="14.00">blockF</text>
</a>
</g>
</g>
<!-- uTop/mixed.yaml.uBlockB/mixed.yaml.uBlockD/mixed.yaml&#45;&gt;uTop/mixed.yaml.uBlockB/mixed.yaml.uBlockF0/mixed.yaml -->
<g id="edge10" class="edge">
<title>uTop/mixed.yaml.uBlockB/mixed.yaml.uBlockD/mixed.yaml&#45;&gt;uTop/mixed.yaml.uBlockB/mixed.yaml.uBlockF0/mixed.yaml</title>
<g id="a_edge10"><a xlink:title="dStuffIf(dSt) An interface for D">
<path fill="none" stroke="black" d="M117.84,-231.7C116.93,-223.98 116.57,-214.71 116.79,-206.11"/>
<polygon fill="black" stroke="black" points="120.29,-206.28 117.35,-196.1 113.3,-205.89 120.29,-206.28"/>
</a>
</g>
</g>
<!-- uTop/mixed.yaml.uBlockB/mixed.yaml.uBlockD/mixed.yaml&#45;&gt;uTop/mixed.yaml.uBlockB/mixed.yaml.uBlockF0/mixed.yaml -->
<g id="edge12" class="edge">
<title>uTop/mixed.yaml.uBlockB/mixed.yaml.uBlockD/mixed.yaml&#45;&gt;uTop/mixed.yaml.uBlockB/mixed.yaml.uBlockF0/mixed.yaml</title>
<g id="a_edge12"><a xlink:title="dStuffIf(dSt) An interface for D">
<path fill="none" stroke="black" d="M129.67,-231.7C130.35,-223.98 130.45,-214.71 129.98,-206.11"/>
<polygon fill="black" stroke="black" points="133.47,-205.78 129.14,-196.1 126.49,-206.36 133.47,-205.78"/>
</a>
</g>
</g>
<!-- uTop/mixed.yaml.uBlockB/mixed.yaml.uBlockF1/mixed.yaml -->
<g id="node9" class="node">
<title>uTop/mixed.yaml.uBlockB/mixed.yaml.uBlockF1/mixed.yaml</title>
<g id="a_node9"><a xlink:title="The block named F">
<polygon fill="white" stroke="black" points="206,-124 142,-124 142,-88 206,-88 206,-124"/>
<text text-anchor="middle" x="174" y="-102.3" font-family="Times,serif" font-size="14.00">blockF</text>
</a>
</g>
</g>
<!-- uTop/mixed.yaml.uBlockB/mixed.yaml.uBlockD/mixed.yaml&#45;&gt;uTop/mixed.yaml.uBlockB/mixed.yaml.uBlockF1/mixed.yaml -->
<g id="edge11" class="edge">
<title>uTop/mixed.yaml.uBlockB/mixed.yaml.uBlockD/mixed.yaml&#45;&gt;uTop/mixed.yaml.uBlockB/mixed.yaml.uBlockF1/mixed.yaml</title>
<g id="a_edge11"><a xlink:title="dStuffIf(dSt) An interface for D">
<path fill="none" stroke="black" d="M132.74,-231.85C140.16,-222.13 149.71,-209.28 155,-196 162.85,-176.29 165.18,-152.31 167,-134.2"/>
<polygon fill="black" stroke="black" points="170.5,-134.36 168.08,-124.04 163.54,-133.62 170.5,-134.36"/>
</a>
</g>
</g>
<!-- uTop/mixed.yaml.uBlockB/mixed.yaml.uThreeCs/mixed.yaml -->
<g id="node10" class="node">
<title>uTop/mixed.yaml.uBlockB/mixed.yaml.uThreeCs/mixed.yaml</title>
<g id="a_node10"><a xlink:title="A block that contains three copies of blockC">
<polygon fill="green" stroke="black" points="210.5,-52 137.5,-52 137.5,-16 210.5,-16 210.5,-52"/>
<text text-anchor="middle" x="174" y="-30.3" font-family="Times,serif" font-size="14.00">threeCs</text>
</a>
</g>
</g>
<!-- uTop/mixed.yaml.uBlockB/mixed.yaml.uBlockD/mixed.yaml&#45;&gt;uTop/mixed.yaml.uBlockB/mixed.yaml.uThreeCs/mixed.yaml -->
<g id="edge7" class="edge">
<title>uTop/mixed.yaml.uBlockB/mixed.yaml.uBlockD/mixed.yaml&#45;&gt;uTop/mixed.yaml.uBlockB/mixed.yaml.uThreeCs/mixed.yaml</title>
<g id="a_edge7"><a xlink:title="cStuffIf(seeSt) An interface for C">
<path fill="none" stroke="black" d="M143.15,-231.87C166.17,-209.72 203.18,-168.63 215,-124 219.1,-108.53 220.17,-103.14 215,-88 211.56,-77.93 205.34,-68.28 198.77,-60.05"/>
<polygon fill="black" stroke="black" points="201.32,-57.65 192.17,-52.32 196,-62.2 201.32,-57.65"/>
</a>
</g>
</g>
<!-- uTop/mixed.yaml.uBlockB/mixed.yaml.uBlockF0/mixed.yaml&#45;&gt;uTop/mixed.yaml.uBlockB/mixed.yaml.uBlockF1/mixed.yaml -->
<g id="edge13" class="edge">
<title>uTop/mixed.yaml.uBlockB/mixed.yaml.uBlockF0/mixed.yaml&#45;&gt;uTop/mixed.yaml.uBlockB/mixed.yaml.uBlockF1/mixed.yaml</title>
<g id="a_edge13"><a xlink:title="dStuffIf(dSt) An interface for D">
<path fill="none" stroke="black" d="M135.61,-159.7C141.6,-151.47 148.88,-141.48 155.48,-132.42"/>
<polygon fill="black" stroke="black" points="158.48,-134.25 161.54,-124.1 152.82,-130.13 158.48,-134.25"/>
</a>
</g>
</g>
<!-- uTop/mixed.yaml.uBlockB/mixed.yaml.uBlockF0/mixed.yaml&#45;&gt;uTop/mixed.yaml.uBlockB/mixed.yaml.uThreeCs/mixed.yaml -->
<g id="edge8" class="edge">
<title>uTop/mixed.yaml.uBlockB/mixed.yaml.uBlockF0/mixed.yaml&#45;&gt;uTop/mixed.yaml.uBlockB/mixed.yaml.uThreeCs/mixed.yaml</title>
<g id="a_edge8"><a xlink:title="cStuffIf(seeSt) An interface for C">
<path fill="none" stroke="black" d="M122.23,-159.93C122.01,-141.51 123.42,-111.63 133,-88 137.06,-77.97 143.59,-68.24 150.25,-59.9"/>
<polygon fill="black" stroke="black" points="153.08,-61.97 156.86,-52.08 147.73,-57.45 153.08,-61.97"/>
</a>
</g>
</g>
<!-- uTop/mixed.yaml.uBlockB/mixed.yaml.uBlockF1/mixed.yaml&#45;&gt;uTop/mixed.yaml.uBlockB/mixed.yaml.uBlockD/mixed.yaml -->
<g id="edge14" class="edge">
<title>uTop/mixed.yaml.uBlockB/mixed.yaml.uBlockF1/mixed.yaml&#45;&gt;uTop/mixed.yaml.uBlockB/mixed.yaml.uBlockD/mixed.yaml</title>
<g id="a_edge14"><a xlink:title="dStuffIf(dSt) An interface for D">
<path fill="none" stroke="black" d="M181.34,-124.04C183.89,-142.45 182.44,-172.31 173,-196 168.99,-206.06 162.53,-215.88 155.52,-224.27"/>
<polygon fill="black" stroke="black" points="152.79,-222.08 148.69,-231.85 157.99,-226.77 152.79,-222.08"/>
</a>
</g>
</g>
<!-- uTop/mixed.yaml.uBlockB/mixed.yaml.uBlockF1/mixed.yaml&#45;&gt;uTop/mixed.yaml.uBlockB/mixed.yaml.uThreeCs/mixed.yaml -->
<g id="edge9" class="edge">
<title>uTop/mixed.yaml.uBlockB/mixed.yaml.uBlockF1/mixed.yaml&#45;&gt;uTop/mixed.yaml.uBlockB/mixed.yaml.uThreeCs/mixed.yaml</title>
<g id="a_edge9"><a xlink:title="cStuffIf(seeSt) An interface for C">
<path fill="none" stroke="black" d="M174,-87.7C174,-79.98 174,-70.71 174,-62.11"/>
<polygon fill="black" stroke="black" points="177.5,-62.1 174,-52.1 170.5,-62.1 177.5,-62.1"/>
</a>
</g>
</g>
</g>
</svg>
