<?xml version="1.0" encoding="UTF-8" standalone="no"?>
<!DOCTYPE svg PUBLIC "-//W3C//DTD SVG 1.1//EN"
 "http://www.w3.org/Graphics/SVG/1.1/DTD/svg11.dtd">
<!-- Generated by graphviz version 2.43.0 (0)
 -->
<!-- Title: %3 Pages: 1 -->
<svg width="396pt" height="282pt"
 viewBox="0.00 0.00 396.00 282.00" xmlns="http://www.w3.org/2000/svg" xmlns:xlink="http://www.w3.org/1999/xlink">
<g id="graph0" class="graph" transform="scale(1 1) rotate(0) translate(4 278)">
<title>%3</title>
<g id="a_graph0"><a xlink:title="uTop/hierInclude.yaml + depth 3">
<polygon fill="snow" stroke="transparent" points="-4,4 -4,-278 392,-278 392,4 -4,4"/>
</a>
</g>
<g id="clust1" class="cluster">
<title>cluster_uTop/hierInclude.yaml.uBlockB/hierInclude.yaml</title>
<g id="a_clust1"><a xlink:title="The block named B">
<polygon fill="#8470ff" stroke="#8470ff" points="8,-80 8,-230 190,-230 190,-80 8,-80"/>
<text text-anchor="middle" x="99" y="-214.8" font-family="Times,serif" font-size="14.00">blockB</text>
</a>
</g>
</g>
<g id="clust2" class="cluster">
<title>cluster_uTop/hierInclude.yaml.uBlockC/hierInclude.yaml</title>
<g id="a_clust2"><a xlink:title="The block named C">
<polygon fill="orange" stroke="orange" points="198,-8 198,-155 380,-155 380,-8 198,-8"/>
<text text-anchor="middle" x="289" y="-139.8" font-family="Times,serif" font-size="14.00">blockC</text>
</a>
</g>
</g>
<!-- uTop/hierInclude.yaml.uBlockA/hierInclude.yaml -->
<g id="node1" class="node">
<title>uTop/hierInclude.yaml.uBlockA/hierInclude.yaml</title>
<g id="a_node1"><a xlink:title="The block named A">
<polygon fill="green" stroke="black" points="175,-274 111,-274 111,-238 175,-238 175,-274"/>
<text text-anchor="middle" x="143" y="-252.3" font-family="Times,serif" font-size="14.00">blockA</text>
</a>
</g>
</g>
<!-- uTop/hierInclude.yaml.uBlockB/hierInclude.yaml.uBlockBX/b/hierIncludeB.yaml -->
<g id="node3" class="node">
<title>uTop/hierInclude.yaml.uBlockB/hierInclude.yaml.uBlockBX/b/hierIncludeB.yaml</title>
<g id="a_node3"><a xlink:title="The block named BX">
<polygon fill="white" stroke="black" points="98,-199 24,-199 24,-163 98,-163 98,-199"/>
<text text-anchor="middle" x="61" y="-177.3" font-family="Times,serif" font-size="14.00">blockBX</text>
</a>
</g>
</g>
<!-- uTop/hierInclude.yaml.uBlockA/hierInclude.yaml&#45;&gt;uTop/hierInclude.yaml.uBlockB/hierInclude.yaml.uBlockBX/b/hierIncludeB.yaml -->
<g id="edge1" class="edge">
<title>uTop/hierInclude.yaml.uBlockA/hierInclude.yaml&#45;&gt;uTop/hierInclude.yaml.uBlockB/hierInclude.yaml.uBlockBX/b/hierIncludeB.yaml</title>
<g id="a_edge1"><a xlink:title="anInterface(aSt) An interface for testing">
<path fill="none" stroke="black" d="M116.97,-237.85C113.53,-235.32 110.12,-232.67 107,-230 98.71,-222.92 90.27,-214.52 82.92,-206.75"/>
<polygon fill="black" stroke="black" points="85.35,-204.22 75.98,-199.26 80.21,-208.97 85.35,-204.22"/>
</a>
</g>
</g>
<!-- uTop/hierInclude.yaml.uBlockC/hierInclude.yaml.uBlockCX/c/hierIncludeC.yaml -->
<g id="node7" class="node">
<title>uTop/hierInclude.yaml.uBlockC/hierInclude.yaml.uBlockCX/c/hierIncludeC.yaml</title>
<g id="a_node7"><a xlink:title="The block named CX">
<polygon fill="white" stroke="black" points="280,-124 206,-124 206,-88 280,-88 280,-124"/>
<text text-anchor="middle" x="243" y="-102.3" font-family="Times,serif" font-size="14.00">blockCX</text>
</a>
</g>
</g>
<!-- uTop/hierInclude.yaml.uBlockA/hierInclude.yaml&#45;&gt;uTop/hierInclude.yaml.uBlockC/hierInclude.yaml.uBlockCX/c/hierIncludeC.yaml -->
<g id="edge2" class="edge">
<title>uTop/hierInclude.yaml.uBlockA/hierInclude.yaml&#45;&gt;uTop/hierInclude.yaml.uBlockC/hierInclude.yaml.uBlockCX/c/hierIncludeC.yaml</title>
<g id="a_edge2"><a xlink:title="anInterface(aSt) An interface for testing">
<path fill="none" stroke="black" d="M175.1,-243.73C182,-240.17 188.77,-235.64 194,-230 219.1,-202.9 231.99,-161.37 238.12,-134.19"/>
<polygon fill="black" stroke="black" points="241.59,-134.7 240.21,-124.2 234.73,-133.27 241.59,-134.7"/>
</a>
</g>
</g>
<!-- uTop/hierInclude.yaml.uBlockB/hierInclude.yaml -->
<!-- uTop/hierInclude.yaml.uBlockB/hierInclude.yaml.uBlockBY/b/hierIncludeB.yaml -->
<g id="node4" class="node">
<title>uTop/hierInclude.yaml.uBlockB/hierInclude.yaml.uBlockBY/b/hierIncludeB.yaml</title>
<g id="a_node4"><a xlink:title="The block named BY">
<polygon fill="white" stroke="black" points="89.5,-124 16.5,-124 16.5,-88 89.5,-88 89.5,-124"/>
<text text-anchor="middle" x="53" y="-102.3" font-family="Times,serif" font-size="14.00">blockBY</text>
</a>
</g>
</g>
<!-- uTop/hierInclude.yaml.uBlockB/hierInclude.yaml.uBlockBX/b/hierIncludeB.yaml&#45;&gt;uTop/hierInclude.yaml.uBlockB/hierInclude.yaml.uBlockBY/b/hierIncludeB.yaml -->
<g id="edge4" class="edge">
<title>uTop/hierInclude.yaml.uBlockB/hierInclude.yaml.uBlockBX/b/hierIncludeB.yaml&#45;&gt;uTop/hierInclude.yaml.uBlockB/hierInclude.yaml.uBlockBY/b/hierIncludeB.yaml</title>
<g id="a_edge4"><a xlink:title="bnInterface(bSt) An interface running inside B">
<path fill="none" stroke="black" d="M59.1,-162.7C58.18,-154.25 57.04,-143.87 56,-134.37"/>
<polygon fill="black" stroke="black" points="59.45,-133.73 54.88,-124.18 52.49,-134.5 59.45,-133.73"/>
</a>
</g>
</g>
<!-- uTop/hierInclude.yaml.uBlockB/hierInclude.yaml.uBlockBZ/b/hierIncludeB.yaml -->
<g id="node5" class="node">
<title>uTop/hierInclude.yaml.uBlockB/hierInclude.yaml.uBlockBZ/b/hierIncludeB.yaml</title>
<g id="a_node5"><a xlink:title="The block named BZ">
<polygon fill="white" stroke="black" points="182,-124 108,-124 108,-88 182,-88 182,-124"/>
<text text-anchor="middle" x="145" y="-102.3" font-family="Times,serif" font-size="14.00">blockBZ</text>
</a>
</g>
</g>
<!-- uTop/hierInclude.yaml.uBlockB/hierInclude.yaml.uBlockBX/b/hierIncludeB.yaml&#45;&gt;uTop/hierInclude.yaml.uBlockB/hierInclude.yaml.uBlockBZ/b/hierIncludeB.yaml -->
<g id="edge5" class="edge">
<title>uTop/hierInclude.yaml.uBlockB/hierInclude.yaml.uBlockBX/b/hierIncludeB.yaml&#45;&gt;uTop/hierInclude.yaml.uBlockB/hierInclude.yaml.uBlockBZ/b/hierIncludeB.yaml</title>
<g id="a_edge5"><a xlink:title="bnInterface(bSt) An interface running inside B">
<path fill="none" stroke="black" d="M87.75,-162.88C91.28,-160.34 94.78,-157.68 98,-155 106.46,-147.94 115.08,-139.55 122.59,-131.78"/>
<polygon fill="black" stroke="black" points="125.35,-133.95 129.68,-124.28 120.27,-129.14 125.35,-133.95"/>
</a>
</g>
</g>
<!-- uTop/hierInclude.yaml.uBlockB/hierInclude.yaml.uBlockBX/b/hierIncludeB.yaml&#45;&gt;uTop/hierInclude.yaml.uBlockC/hierInclude.yaml.uBlockCX/c/hierIncludeC.yaml -->
<g id="edge3" class="edge">
<title>uTop/hierInclude.yaml.uBlockB/hierInclude.yaml.uBlockBX/b/hierIncludeB.yaml&#45;&gt;uTop/hierInclude.yaml.uBlockC/hierInclude.yaml.uBlockCX/c/hierIncludeC.yaml</title>
<g id="a_edge3"><a xlink:title="b2C(anotherSt, yetAnotherSt) Between subsystems">
<path fill="none" stroke="black" d="M98.16,-165.34C101.12,-164.45 104.09,-163.66 107,-163 144.87,-154.42 158.76,-171.31 194,-155 205.37,-149.74 215.67,-140.7 223.86,-131.87"/>
<polygon fill="black" stroke="black" points="226.55,-134.11 230.48,-124.27 221.27,-129.51 226.55,-134.11"/>
</a>
</g>
</g>
<!-- uTop/hierInclude.yaml.uBlockC/hierInclude.yaml -->
<!-- uTop/hierInclude.yaml.uBlockC/hierInclude.yaml.uBlockCY/c/hierIncludeC.yaml -->
<g id="node8" class="node">
<title>uTop/hierInclude.yaml.uBlockC/hierInclude.yaml.uBlockCY/c/hierIncludeC.yaml</title>
<g id="a_node8"><a xlink:title="The block named CY">
<polygon fill="white" stroke="black" points="280,-52 206,-52 206,-16 280,-16 280,-52"/>
<text text-anchor="middle" x="243" y="-30.3" font-family="Times,serif" font-size="14.00">blockCY</text>
</a>
</g>
</g>
<!-- uTop/hierInclude.yaml.uBlockC/hierInclude.yaml.uBlockCX/c/hierIncludeC.yaml&#45;&gt;uTop/hierInclude.yaml.uBlockC/hierInclude.yaml.uBlockCY/c/hierIncludeC.yaml -->
<g id="edge6" class="edge">
<title>uTop/hierInclude.yaml.uBlockC/hierInclude.yaml.uBlockCX/c/hierIncludeC.yaml&#45;&gt;uTop/hierInclude.yaml.uBlockC/hierInclude.yaml.uBlockCY/c/hierIncludeC.yaml</title>
<g id="a_edge6"><a xlink:title="cnInterface(cSt) An interface running inside C">
<path fill="none" stroke="black" d="M243,-87.7C243,-79.98 243,-70.71 243,-62.11"/>
<polygon fill="black" stroke="black" points="246.5,-62.1 243,-52.1 239.5,-62.1 246.5,-62.1"/>
</a>
</g>
</g>
<!-- uTop/hierInclude.yaml.uBlockC/hierInclude.yaml.uBlockCZ/c/hierIncludeC.yaml -->
<g id="node9" class="node">
<title>uTop/hierInclude.yaml.uBlockC/hierInclude.yaml.uBlockCZ/c/hierIncludeC.yaml</title>
<g id="a_node9"><a xlink:title="The block named CZ">
<polygon fill="white" stroke="black" points="372,-52 298,-52 298,-16 372,-16 372,-52"/>
<text text-anchor="middle" x="335" y="-30.3" font-family="Times,serif" font-size="14.00">blockCZ</text>
</a>
</g>
</g>
<!-- uTop/hierInclude.yaml.uBlockC/hierInclude.yaml.uBlockCX/c/hierIncludeC.yaml&#45;&gt;uTop/hierInclude.yaml.uBlockC/hierInclude.yaml.uBlockCZ/c/hierIncludeC.yaml -->
<g id="edge7" class="edge">
<title>uTop/hierInclude.yaml.uBlockC/hierInclude.yaml.uBlockCX/c/hierIncludeC.yaml&#45;&gt;uTop/hierInclude.yaml.uBlockC/hierInclude.yaml.uBlockCZ/c/hierIncludeC.yaml</title>
<g id="a_edge7"><a xlink:title="cnInterface(cSt) An interface running inside C">
<path fill="none" stroke="black" d="M265.74,-87.7C277.44,-78.8 291.86,-67.82 304.51,-58.2"/>
<polygon fill="black" stroke="black" points="306.68,-60.94 312.52,-52.1 302.44,-55.37 306.68,-60.94"/>
</a>
</g>
</g>
</g>
</svg>
