<?xml version="1.0" encoding="UTF-8" standalone="no"?>
<!DOCTYPE svg PUBLIC "-//W3C//DTD SVG 1.1//EN"
 "http://www.w3.org/Graphics/SVG/1.1/DTD/svg11.dtd">
<!-- Generated by graphviz version 2.43.0 (0)
 -->
<!-- Title: %3 Pages: 1 -->
<svg width="382pt" height="434pt"
 viewBox="0.00 0.00 382.00 434.00" xmlns="http://www.w3.org/2000/svg" xmlns:xlink="http://www.w3.org/1999/xlink">
<g id="graph0" class="graph" transform="scale(1 1) rotate(0) translate(4 430)">
<title>%3</title>
<g id="a_graph0"><a xlink:title="uTop/mixed.yaml + depth 2">
<polygon fill="snow" stroke="transparent" points="-4,4 -4,-430 378,-430 378,4 -4,4"/>
</a>
</g>
<g id="clust1" class="cluster">
<title>cluster_uTop/mixed.yaml.uBlockA/mixed.yaml</title>
<g id="a_clust1"><a xlink:title="The block named A">
<polygon fill="snow" stroke="black" points="8,-235 8,-310 206,-310 206,-235 8,-235"/>
<text text-anchor="middle" x="107" y="-294.8" font-family="Times,serif" font-size="14.00">blockA</text>
</a>
</g>
</g>
<g id="clust2" class="cluster">
<title>cluster_uTop/mixed.yaml.uBlockB/mixed.yaml</title>
<g id="a_clust2"><a xlink:title="The block named B">
<polygon fill="#8470ff" stroke="#8470ff" points="83,-8 83,-227 366,-227 366,-8 83,-8"/>
<text text-anchor="middle" x="224.5" y="-211.8" font-family="Times,serif" font-size="14.00">blockB</text>
</a>
</g>
</g>
<!-- uTop/mixed.yaml.uCPU/mixed.yaml -->
<g id="node1" class="node">
<title>uTop/mixed.yaml.uCPU/mixed.yaml</title>
<g id="a_node1"><a xlink:title="A RISC&#45;V CPU">
<polygon fill="pink" stroke="black" points="183,-426 129,-426 129,-390 183,-390 183,-426"/>
<text text-anchor="middle" x="156" y="-404.3" font-family="Times,serif" font-size="14.00">cpu</text>
</a>
</g>
</g>
<!-- uTop/mixed.yaml.uAPBDecode/mixed.yaml -->
<g id="node4" class="node">
<title>uTop/mixed.yaml.uAPBDecode/mixed.yaml</title>
<g id="a_node4"><a xlink:title="The block to decode apb addresses">
<polygon fill="pink" stroke="black" points="203.5,-354 108.5,-354 108.5,-318 203.5,-318 203.5,-354"/>
<text text-anchor="middle" x="156" y="-332.3" font-family="Times,serif" font-size="14.00">apbDecode</text>
</a>
</g>
</g>
<!-- uTop/mixed.yaml.uCPU/mixed.yaml&#45;&gt;uTop/mixed.yaml.uAPBDecode/mixed.yaml -->
<g id="edge3" class="edge">
<title>uTop/mixed.yaml.uCPU/mixed.yaml&#45;&gt;uTop/mixed.yaml.uAPBDecode/mixed.yaml</title>
<g id="a_edge3"><a xlink:title="apbReg(apbAddrSt, apbDataSt) CPU access to SoC registers in the design">
<path fill="none" stroke="black" d="M156,-389.7C156,-381.98 156,-372.71 156,-364.11"/>
<polygon fill="black" stroke="black" points="159.5,-364.1 156,-354.1 152.5,-364.1 159.5,-364.1"/>
</a>
</g>
</g>
<!-- uTop/mixed.yaml.uBlockA/mixed.yaml -->
<!-- uTop/mixed.yaml.uBlockC/mixed.yaml -->
<g id="node5" class="node">
<title>uTop/mixed.yaml.uBlockC/mixed.yaml</title>
<g id="a_node5"><a xlink:title="The block named C">
<polygon fill="orange" stroke="black" points="73.5,-196 8.5,-196 8.5,-160 73.5,-160 73.5,-196"/>
<text text-anchor="middle" x="41" y="-174.3" font-family="Times,serif" font-size="14.00">blockC</text>
</a>
</g>
</g>
<!-- uTop/mixed.yaml.uBlockA/mixed.yaml&#45;&gt;uTop/mixed.yaml.uBlockC/mixed.yaml -->
<g id="edge2" class="edge">
<title>uTop/mixed.yaml.uBlockA/mixed.yaml&#45;&gt;uTop/mixed.yaml.uBlockC/mixed.yaml</title>
<g id="a_edge2"><a xlink:title="cStuffIf(seeSt, cHeaderSt) An interface for C">
<path fill="none" stroke="black" d="M140.52,-242.87C135.23,-239.88 129.57,-237.07 124,-235 104.96,-227.91 96.44,-237.42 79,-227 69.93,-221.58 62.17,-213.13 56.07,-204.81"/>
<polygon fill="black" stroke="black" points="58.84,-202.66 50.33,-196.34 53.04,-206.58 58.84,-202.66"/>
</a>
</g>
</g>
<!-- uTop/mixed.yaml.uBlockB/mixed.yaml -->
<!-- uTop/mixed.yaml.uBlockA/mixed.yaml&#45;&gt;uTop/mixed.yaml.uBlockB/mixed.yaml -->
<g id="edge4" class="edge">
<title>uTop/mixed.yaml.uBlockA/mixed.yaml&#45;&gt;uTop/mixed.yaml.uBlockB/mixed.yaml</title>
<g id="a_edge4"><a xlink:title="startDone() A start done interface">
<path fill="none" stroke="black" d="M174.7,-242.82C180.24,-231.87 187.53,-217.46 193.78,-205.11"/>
<polygon fill="black" stroke="black" points="196.92,-206.66 198.32,-196.15 190.68,-203.49 196.92,-206.66"/>
</a>
</g>
</g>
<!-- uTop/mixed.yaml.uBlockB/mixed.yaml.uBlockD/mixed.yaml -->
<g id="node8" class="node">
<title>uTop/mixed.yaml.uBlockB/mixed.yaml.uBlockD/mixed.yaml</title>
<g id="a_node8"><a xlink:title="The block named D">
<polygon fill="white" stroke="black" points="156.5,-196 91.5,-196 91.5,-160 156.5,-160 156.5,-196"/>
<text text-anchor="middle" x="124" y="-174.3" font-family="Times,serif" font-size="14.00">blockD</text>
</a>
</g>
</g>
<!-- uTop/mixed.yaml.uBlockA/mixed.yaml&#45;&gt;uTop/mixed.yaml.uBlockB/mixed.yaml.uBlockD/mixed.yaml -->
<g id="edge1" class="edge">
<title>uTop/mixed.yaml.uBlockA/mixed.yaml&#45;&gt;uTop/mixed.yaml.uBlockB/mixed.yaml.uBlockD/mixed.yaml</title>
<g id="a_edge1"><a xlink:title="aStuffIf(aSt, aASt) An interface for A">
<path fill="none" stroke="black" d="M157.09,-242.82C151.41,-231.87 143.94,-217.46 137.54,-205.11"/>
<polygon fill="black" stroke="black" points="140.6,-203.42 132.89,-196.15 134.39,-206.64 140.6,-203.42"/>
</a>
</g>
</g>
<!-- uTop/mixed.yaml.uBlockA/mixed.yaml.uBlockARegs/mixed.yaml -->
<g id="node3" class="node">
<title>uTop/mixed.yaml.uBlockA/mixed.yaml.uBlockARegs/mixed.yaml</title>
<g id="a_node3"><a xlink:title="The register block inside block A">
<polygon fill="grey" stroke="black" points="115.5,-279 16.5,-279 16.5,-243 115.5,-243 115.5,-279"/>
<text text-anchor="middle" x="66" y="-257.3" font-family="Times,serif" font-size="14.00">blockARegs</text>
</a>
</g>
</g>
<!-- uTop/mixed.yaml.uAPBDecode/mixed.yaml&#45;&gt;uTop/mixed.yaml.uBlockA/mixed.yaml.uBlockARegs/mixed.yaml -->
<g id="edge5" class="edge">
<title>uTop/mixed.yaml.uAPBDecode/mixed.yaml&#45;&gt;uTop/mixed.yaml.uBlockA/mixed.yaml.uBlockARegs/mixed.yaml</title>
<g id="a_edge5"><a xlink:title="apbReg(apbAddrSt, apbDataSt) CPU access to SoC registers in the design">
<path fill="none" stroke="black" d="M134.64,-317.8C131.41,-315.19 128.12,-312.52 125,-310 115.24,-302.09 104.58,-293.43 95.05,-285.67"/>
<polygon fill="black" stroke="black" points="96.97,-282.73 87.01,-279.13 92.55,-288.16 96.97,-282.73"/>
</a>
</g>
</g>
<!-- uTop/mixed.yaml.uBlockB/mixed.yaml.uBlockBRegs/mixed.yaml -->
<g id="node7" class="node">
<title>uTop/mixed.yaml.uBlockB/mixed.yaml.uBlockBRegs/mixed.yaml</title>
<g id="a_node7"><a xlink:title="The register block inside block B">
<polygon fill="grey" stroke="black" points="358,-196 258,-196 258,-160 358,-160 358,-196"/>
<text text-anchor="middle" x="308" y="-174.3" font-family="Times,serif" font-size="14.00">blockBRegs</text>
</a>
</g>
</g>
<!-- uTop/mixed.yaml.uAPBDecode/mixed.yaml&#45;&gt;uTop/mixed.yaml.uBlockB/mixed.yaml.uBlockBRegs/mixed.yaml -->
<g id="edge6" class="edge">
<title>uTop/mixed.yaml.uAPBDecode/mixed.yaml&#45;&gt;uTop/mixed.yaml.uBlockB/mixed.yaml.uBlockBRegs/mixed.yaml</title>
<g id="a_edge6"><a xlink:title="apbReg(apbAddrSt, apbDataSt) CPU access to SoC registers in the design">
<path fill="none" stroke="black" d="M198.5,-317.85C202.56,-315.48 206.47,-312.86 210,-310 246.68,-280.28 277.04,-233.93 293.83,-205.07"/>
<polygon fill="black" stroke="black" points="297.08,-206.43 298.99,-196.01 291,-202.96 297.08,-206.43"/>
</a>
</g>
</g>
<!-- uTop/mixed.yaml.uBlockB/mixed.yaml.uBlockE/mixed.yaml -->
<g id="node9" class="node">
<title>uTop/mixed.yaml.uBlockB/mixed.yaml.uBlockE/mixed.yaml</title>
<g id="a_node9"><a xlink:title="The block named E">
<polygon fill="white" stroke="black" points="156.5,-124 91.5,-124 91.5,-88 156.5,-88 156.5,-124"/>
<text text-anchor="middle" x="124" y="-102.3" font-family="Times,serif" font-size="14.00">blockE</text>
</a>
</g>
</g>
<!-- uTop/mixed.yaml.uBlockB/mixed.yaml.uBlockD/mixed.yaml&#45;&gt;uTop/mixed.yaml.uBlockB/mixed.yaml.uBlockE/mixed.yaml -->
<g id="edge10" class="edge">
<title>uTop/mixed.yaml.uBlockB/mixed.yaml.uBlockD/mixed.yaml&#45;&gt;uTop/mixed.yaml.uBlockB/mixed.yaml.uBlockE/mixed.yaml</title>
<g id="a_edge10"><a xlink:title="dStuffIf(dSt) An interface for D">
<path fill="none" stroke="black" d="M124,-159.7C124,-151.98 124,-142.71 124,-134.11"/>
<polygon fill="black" stroke="black" points="127.5,-134.1 124,-124.1 120.5,-134.1 127.5,-134.1"/>
</a>
</g>
</g>
<!-- uTop/mixed.yaml.uBlockB/mixed.yaml.uBlockF/mixed.yaml -->
<g id="node10" class="node">
<title>uTop/mixed.yaml.uBlockB/mixed.yaml.uBlockF/mixed.yaml</title>
<g id="a_node10"><a xlink:title="The block named F">
<polygon fill="white" stroke="black" points="239,-124 175,-124 175,-88 239,-88 239,-124"/>
<text text-anchor="middle" x="207" y="-102.3" font-family="Times,serif" font-size="14.00">blockF</text>
</a>
</g>
</g>
<!-- uTop/mixed.yaml.uBlockB/mixed.yaml.uBlockD/mixed.yaml&#45;&gt;uTop/mixed.yaml.uBlockB/mixed.yaml.uBlockF/mixed.yaml -->
<g id="edge11" class="edge">
<title>uTop/mixed.yaml.uBlockB/mixed.yaml.uBlockD/mixed.yaml&#45;&gt;uTop/mixed.yaml.uBlockB/mixed.yaml.uBlockF/mixed.yaml</title>
<g id="a_edge11"><a xlink:title="dStuffIf(dSt) An interface for D">
<path fill="none" stroke="black" d="M144.52,-159.7C154.87,-150.97 167.59,-140.24 178.84,-130.75"/>
<polygon fill="black" stroke="black" points="181.33,-133.23 186.72,-124.1 176.82,-127.88 181.33,-133.23"/>
</a>
</g>
</g>
<!-- uTop/mixed.yaml.uBlockB/mixed.yaml.uThreeCs/mixed.yaml -->
<g id="node11" class="node">
<title>uTop/mixed.yaml.uBlockB/mixed.yaml.uThreeCs/mixed.yaml</title>
<g id="a_node11"><a xlink:title="A block that contains three copies of blockC">
<polygon fill="green" stroke="black" points="243.5,-52 170.5,-52 170.5,-16 243.5,-16 243.5,-52"/>
<text text-anchor="middle" x="207" y="-30.3" font-family="Times,serif" font-size="14.00">threeCs</text>
</a>
</g>
</g>
<!-- uTop/mixed.yaml.uBlockB/mixed.yaml.uBlockD/mixed.yaml&#45;&gt;uTop/mixed.yaml.uBlockB/mixed.yaml.uThreeCs/mixed.yaml -->
<g id="edge7" class="edge">
<title>uTop/mixed.yaml.uBlockB/mixed.yaml.uBlockD/mixed.yaml&#45;&gt;uTop/mixed.yaml.uBlockB/mixed.yaml.uThreeCs/mixed.yaml</title>
<g id="a_edge7"><a xlink:title="cStuffIf(seeSt, cHeaderSt) An interface for C">
<path fill="none" stroke="black" d="M156.67,-163.29C193.18,-147.93 247.32,-125.03 248,-124 261.33,-103.81 247.19,-78.58 232,-60.15"/>
<polygon fill="black" stroke="black" points="234.26,-57.42 225.03,-52.2 228.99,-62.03 234.26,-57.42"/>
</a>
</g>
</g>
<!-- uTop/mixed.yaml.uBlockB/mixed.yaml.uBlockF/mixed.yaml&#45;&gt;uTop/mixed.yaml.uBlockB/mixed.yaml.uThreeCs/mixed.yaml -->
<g id="edge8" class="edge">
<title>uTop/mixed.yaml.uBlockB/mixed.yaml.uBlockF/mixed.yaml&#45;&gt;uTop/mixed.yaml.uBlockB/mixed.yaml.uThreeCs/mixed.yaml</title>
<g id="a_edge8"><a xlink:title="cStuffIf(seeSt, cHeaderSt) An interface for C">
<path fill="none" stroke="black" d="M201.08,-87.7C200.29,-79.98 200.06,-70.71 200.4,-62.11"/>
<polygon fill="black" stroke="black" points="203.9,-62.32 201.1,-52.1 196.92,-61.84 203.9,-62.32"/>
</a>
</g>
</g>
<!-- uTop/mixed.yaml.uBlockB/mixed.yaml.uBlockF/mixed.yaml&#45;&gt;uTop/mixed.yaml.uBlockB/mixed.yaml.uThreeCs/mixed.yaml -->
<g id="edge9" class="edge">
<title>uTop/mixed.yaml.uBlockB/mixed.yaml.uBlockF/mixed.yaml&#45;&gt;uTop/mixed.yaml.uBlockB/mixed.yaml.uThreeCs/mixed.yaml</title>
<g id="a_edge9"><a xlink:title="cStuffIf(seeSt, cHeaderSt) An interface for C">
<path fill="none" stroke="black" d="M212.92,-87.7C213.71,-79.98 213.94,-70.71 213.6,-62.11"/>
<polygon fill="black" stroke="black" points="217.08,-61.84 212.9,-52.1 210.1,-62.32 217.08,-61.84"/>
</a>
</g>
</g>
</g>
</svg>
