<?xml version="1.0" encoding="UTF-8" standalone="no"?>
<!DOCTYPE svg PUBLIC "-//W3C//DTD SVG 1.1//EN"
 "http://www.w3.org/Graphics/SVG/1.1/DTD/svg11.dtd">
<!-- Generated by graphviz version 2.43.0 (0)
 -->
<!-- Title: %3 Pages: 1 -->
<svg width="171pt" height="260pt"
 viewBox="0.00 0.00 171.00 260.00" xmlns="http://www.w3.org/2000/svg" xmlns:xlink="http://www.w3.org/1999/xlink">
<g id="graph0" class="graph" transform="scale(1 1) rotate(0) translate(4 256)">
<title>%3</title>
<g id="a_graph0"><a xlink:title="uTop/mixed.yaml + depth 1">
<polygon fill="snow" stroke="transparent" points="-4,4 -4,-256 167,-256 167,4 -4,4"/>
</a>
</g>
<!-- uTop/mixed.yaml.uCPU/mixed.yaml -->
<g id="node1" class="node">
<title>uTop/mixed.yaml.uCPU/mixed.yaml</title>
<g id="a_node1"><a xlink:title="A RISC&#45;V CPU">
<polygon fill="pink" stroke="black" points="142.5,-252 88.5,-252 88.5,-216 142.5,-216 142.5,-252"/>
<text text-anchor="middle" x="115.5" y="-230.3" font-family="Times,serif" font-size="14.00">cpu</text>
</a>
</g>
</g>
<!-- uTop/mixed.yaml.uAPBDecode/mixed.yaml -->
<g id="node3" class="node">
<title>uTop/mixed.yaml.uAPBDecode/mixed.yaml</title>
<g id="a_node3"><a xlink:title="The block to decode apb addresses">
<polygon fill="pink" stroke="black" points="163,-180 68,-180 68,-144 163,-144 163,-180"/>
<text text-anchor="middle" x="115.5" y="-158.3" font-family="Times,serif" font-size="14.00">apbDecode</text>
</a>
</g>
</g>
<!-- uTop/mixed.yaml.uCPU/mixed.yaml&#45;&gt;uTop/mixed.yaml.uAPBDecode/mixed.yaml -->
<g id="edge3" class="edge">
<title>uTop/mixed.yaml.uCPU/mixed.yaml&#45;&gt;uTop/mixed.yaml.uAPBDecode/mixed.yaml</title>
<g id="a_edge3"><a xlink:title="apbReg(apbAddrSt, apbDataSt) CPU access to SoC registers in the design">
<path fill="none" stroke="black" d="M115.5,-215.7C115.5,-207.98 115.5,-198.71 115.5,-190.11"/>
<polygon fill="black" stroke="black" points="119,-190.1 115.5,-180.1 112,-190.1 119,-190.1"/>
</a>
</g>
</g>
<!-- uTop/mixed.yaml.uBlockA/mixed.yaml -->
<g id="node2" class="node">
<title>uTop/mixed.yaml.uBlockA/mixed.yaml</title>
<g id="a_node2"><a xlink:title="The block named A">
<polygon fill="white" stroke="black" points="117.5,-108 53.5,-108 53.5,-72 117.5,-72 117.5,-108"/>
<text text-anchor="middle" x="85.5" y="-86.3" font-family="Times,serif" font-size="14.00">blockA</text>
</a>
</g>
</g>
<!-- uTop/mixed.yaml.uBlockC/mixed.yaml -->
<g id="node4" class="node">
<title>uTop/mixed.yaml.uBlockC/mixed.yaml</title>
<g id="a_node4"><a xlink:title="The block named C">
<polygon fill="orange" stroke="black" points="65,-36 0,-36 0,0 65,0 65,-36"/>
<text text-anchor="middle" x="32.5" y="-14.3" font-family="Times,serif" font-size="14.00">blockC</text>
</a>
</g>
</g>
<!-- uTop/mixed.yaml.uBlockA/mixed.yaml&#45;&gt;uTop/mixed.yaml.uBlockC/mixed.yaml -->
<g id="edge2" class="edge">
<title>uTop/mixed.yaml.uBlockA/mixed.yaml&#45;&gt;uTop/mixed.yaml.uBlockC/mixed.yaml</title>
<g id="a_edge2"><a xlink:title="cStuffIf(seeSt, cHeaderSt) An interface for C">
<path fill="none" stroke="black" d="M72.4,-71.7C66.11,-63.39 58.45,-53.28 51.54,-44.14"/>
<polygon fill="black" stroke="black" points="54.28,-41.96 45.45,-36.1 48.7,-46.19 54.28,-41.96"/>
</a>
</g>
</g>
<!-- uTop/mixed.yaml.uBlockB/mixed.yaml -->
<g id="node5" class="node">
<title>uTop/mixed.yaml.uBlockB/mixed.yaml</title>
<g id="a_node5"><a xlink:title="The block named B">
<polygon fill="#8470ff" stroke="black" points="148,-36 83,-36 83,0 148,0 148,-36"/>
<text text-anchor="middle" x="115.5" y="-14.3" font-family="Times,serif" font-size="14.00">blockB</text>
</a>
</g>
</g>
<!-- uTop/mixed.yaml.uBlockA/mixed.yaml&#45;&gt;uTop/mixed.yaml.uBlockB/mixed.yaml -->
<g id="edge1" class="edge">
<title>uTop/mixed.yaml.uBlockA/mixed.yaml&#45;&gt;uTop/mixed.yaml.uBlockB/mixed.yaml</title>
<g id="a_edge1"><a xlink:title="aStuffIf(aSt, aASt) An interface for A">
<path fill="none" stroke="black" d="M87,-71.7C89.59,-63.73 93.51,-54.1 97.68,-45.26"/>
<polygon fill="black" stroke="black" points="100.92,-46.61 102.27,-36.1 94.67,-43.48 100.92,-46.61"/>
</a>
</g>
</g>
<!-- uTop/mixed.yaml.uBlockA/mixed.yaml&#45;&gt;uTop/mixed.yaml.uBlockB/mixed.yaml -->
<g id="edge4" class="edge">
<title>uTop/mixed.yaml.uBlockA/mixed.yaml&#45;&gt;uTop/mixed.yaml.uBlockB/mixed.yaml</title>
<g id="a_edge4"><a xlink:title="startDone() A start done interface">
<path fill="none" stroke="black" d="M98.83,-71.7C103.02,-63.81 107.32,-54.3 110.69,-45.55"/>
<polygon fill="black" stroke="black" points="114,-46.7 114.06,-36.1 107.41,-44.35 114,-46.7"/>
</a>
</g>
</g>
<!-- uTop/mixed.yaml.uAPBDecode/mixed.yaml&#45;&gt;uTop/mixed.yaml.uBlockA/mixed.yaml -->
<g id="edge5" class="edge">
<title>uTop/mixed.yaml.uAPBDecode/mixed.yaml&#45;&gt;uTop/mixed.yaml.uBlockA/mixed.yaml</title>
<g id="a_edge5"><a xlink:title="apbReg(apbAddrSt, apbDataSt) CPU access to SoC registers in the design">
<path fill="none" stroke="black" d="M108.08,-143.7C104.71,-135.81 100.63,-126.3 96.88,-117.55"/>
<polygon fill="black" stroke="black" points="99.99,-115.92 92.83,-108.1 93.55,-118.67 99.99,-115.92"/>
</a>
</g>
</g>
<!-- uTop/mixed.yaml.uAPBDecode/mixed.yaml&#45;&gt;uTop/mixed.yaml.uBlockB/mixed.yaml -->
<g id="edge6" class="edge">
<title>uTop/mixed.yaml.uAPBDecode/mixed.yaml&#45;&gt;uTop/mixed.yaml.uBlockB/mixed.yaml</title>
<g id="a_edge6"><a xlink:title="apbReg(apbAddrSt, apbDataSt) CPU access to SoC registers in the design">
<path fill="none" stroke="black" d="M119.96,-143.95C122.44,-133.63 125.25,-120.15 126.5,-108 128.13,-92.08 128.13,-87.92 126.5,-72 125.62,-63.46 123.97,-54.26 122.21,-45.96"/>
<polygon fill="black" stroke="black" points="125.58,-45.03 119.96,-36.05 118.76,-46.57 125.58,-45.03"/>
</a>
</g>
</g>
</g>
</svg>
